<svg xmlns="http://www.w3.org/2000/svg" viewBox="0 0 1200 600" role="img" aria-label="New Zealand flag">
  <rect width="1200" height="600" fill="#00247d"/>
  <path d="M0 0h600v300H0z" fill="#012169"/>
  <path d="M0 0l600 300m0-300L0 300" stroke="#fff" stroke-width="60"/>
  <path d="M0 0l600 300m0-300L0 300" stroke="#c8102e" stroke-width="34"/>
  <path d="M300 0v300M0 150h600" stroke="#fff" stroke-width="100"/>
  <path d="M300 0v300M0 150h600" stroke="#c8102e" stroke-width="60"/>
  <g fill="#c8102e" stroke="#fff" stroke-width="12">
    <path d="M880 120l16 42h45l-36 26 14 42-39-25-38 25 14-42-36-26h45z"/>
    <path d="M1010 250l13 35h38l-31 22 12 36-32-21-32 21 12-36-31-22h38z"/>
    <path d="M840 340l13 35h38l-31 22 12 36-32-21-32 21 12-36-31-22h38z"/>
    <path d="M1035 455l16 42h45l-36 26 14 42-39-25-38 25 14-42-36-26h45z"/>
  </g>
</svg>
