<?xml version="1.0" encoding="UTF-8" standalone="no"?><!DOCTYPE svg PUBLIC "-//W3C//DTD SVG 1.1//EN" "http://www.w3.org/Graphics/SVG/1.1/DTD/svg11.dtd"><svg width="100%" height="100%" viewBox="0 0 3867 2509" version="1.1" xmlns="http://www.w3.org/2000/svg" xmlns:xlink="http://www.w3.org/1999/xlink" xml:space="preserve" xmlns:serif="http://www.serif.com/" style="fill-rule:evenodd;clip-rule:evenodd;stroke-linejoin:round;stroke-miterlimit:2;"><g><path d="M3667.12,2309.75l0,-2113.17l-2112.96,0l-0,396.792l-194.709,-0l0,-593.375l2505.33,-0l-0,2506.21l-2505.42,0l0,-591.666l195.042,-0l-0,395.041l2112.71,0.167Z" style="fill-rule:nonzero;"/><path d="M1359.38,754.667c6.708,-0.375 12.792,-1.042 18.833,-1.042c102.084,0 204.167,-0.333 306.25,0c102.084,0.333 175.625,48.042 205.959,134.708c18.625,53.292 21.708,108.625 15.833,164.292c-2.147,22.034 -6.332,43.822 -12.5,65.083c-17.917,59.709 -53.875,103.959 -115.542,124.792c2.25,2.875 3.125,5.25 4.625,5.75c69.334,23.125 107.75,73.667 122.167,142.708c16.667,79.167 13,157.5 -17.708,232.875c-32.042,78.625 -92.75,124.5 -176.584,127.709c-116.375,4.5 -233.083,1.166 -351.291,1.166l-0.042,-998.041Zm195.5,836.416l69.708,0c44.125,-0.208 67.084,-16.083 79.584,-58.125c13.312,-45.399 13.975,-93.584 1.916,-139.333c-6.791,-26.583 -19.916,-51.875 -48.5,-57.167c-33.333,-6.208 -67.75,-5.541 -102.583,-7.916l-0.125,262.541Zm0,-421.875c22.167,0 42.125,0.25 62.083,0c48.125,-0.625 78.667,-22.208 86.25,-69.708c5.479,-37.454 6.571,-75.417 3.25,-113.125c-2.333,-30.208 -15.833,-61.958 -48.75,-68.042c-32.916,-6.083 -68,-1.333 -102.833,-1.333l0,252.208Z" style="fill-rule:nonzero;"/><path d="M891.667,919.417l-0,832.541l-198,0l-0,-997.25c6.708,-0.375 14,-1.083 21.25,-1.083c90.958,0 181.916,-1.083 272.833,0.292c75,1.125 144.583,18.875 197,77.666c40.917,45.834 58.333,101.959 63.625,161.584c5.875,68.625 4.875,137.166 -18.625,203.458c-15.958,45.083 -40.833,83.333 -81.875,109.25c-10.625,6.667 -10.875,12.917 -7.625,23.833c40.385,136.626 80.441,273.348 120.167,410.167c0.958,3.25 1.583,6.583 2.791,11.708l-205.208,0l-140.125,-543.25c19,0 34.625,0.209 50.25,0c36.708,-0.666 60.5,-20.833 71.167,-53.791c19.458,-60.209 20.583,-121.459 -0.917,-181.584c-13.417,-37.5 -38.042,-53.291 -77.708,-53.583c-22.084,-0.083 -44,0.042 -69,0.042" style="fill-rule:nonzero;"/><path d="M0,754.667l199.625,-0l0,729.416c-0.384,14.534 0.832,29.066 3.625,43.334c10.667,47.541 44.292,70.833 94.708,67.583c41.334,-2.833 68.959,-32.167 73.75,-78.75c0.746,-8.313 1.05,-16.658 0.917,-25l0,-736.375l188.042,-0c1.108,4.275 1.833,8.637 2.166,13.042c0,249.208 1.125,498.458 -0.875,747.666c-1.041,125.667 -84.208,220.834 -207.833,245.375c-69.958,13.834 -139.542,11.709 -206.917,-12.833c-84.375,-30.667 -129.166,-94.292 -142.916,-181.042c-3.059,-21.261 -4.452,-42.729 -4.167,-64.208c-0.25,-240.806 -0.292,-481.681 -0.125,-722.625l-0,-25.583Z" style="fill-rule:nonzero;"/><path d="M2854.17,1022.21l-175.792,0c-3.625,-18.208 -6.417,-40.166 -12.5,-61.166c-8.333,-28.75 -21.875,-54.792 -54.833,-62c-56.542,-12.5 -99.709,33.583 -88.209,92.916c6.792,35 27.167,62.167 51.209,86.417c55.208,55.667 112.25,109.583 167.25,165.5c53.583,54.5 99.166,115.042 114.291,192c21.875,111.458 0,210.167 -94.416,282.833c-50.375,38.792 -110.125,51.917 -172.375,50.334c-93.709,-2.417 -171.417,-36.834 -220.834,-120.834c-30.208,-51.25 -42.333,-107.666 -45.833,-170.375l182.667,0c7.958,27.75 13.541,57.917 25,85.459c15.458,36.416 50.791,50.416 87.75,40.333c23.791,-6.5 37.875,-22.75 44.791,-45.083c14.709,-47.292 6.667,-91.667 -25.916,-128.5c-37.25,-41.959 -77.459,-81.375 -117.125,-121.167c-48.917,-49.083 -101.25,-94.875 -137.5,-155.292c-61.584,-102.583 -59.667,-232.541 6.291,-321.666c27.473,-37.083 65.941,-64.585 109.917,-78.584c57.436,-19.75 119.399,-22.356 178.292,-7.5c95.833,24.292 144.125,92.75 164.75,184.375c6.333,28.125 8.416,57.292 13.125,92" style="fill-rule:nonzero;"/><rect x="2026.17" y="755.417" width="197.792" height="996.167" style="fill-rule:nonzero;"/></g></svg>