<?xml version="1.0" encoding="UTF-8"?>
<svg data-bbox="-0.091 0.087 1967.133 1932.445" xmlns="http://www.w3.org/2000/svg" viewBox="0 0 1968 1933" fill-rule="evenodd" clip-rule="evenodd" stroke-linejoin="round" stroke-miterlimit="2" data-type="ugc">
    <g>
        <path fill="#ffffff" d="M1845.448.087v1932.445H138.908V.087z"/>
        <path d="M1789.251 57.527H196.721v1812.22h1592.655z" fill="#004987"/>
        <path d="M983.35 1521.003c543.319 0 983.692-253.382 983.692-565.945S1526.669 389.112 983.35 389.112C440.157 389.112-.091 642.495-.091 955.058s440.248 565.945 983.442 565.945" fill="#ffffff"/>
        <path d="M983.35 1468.412c492.841 0 892.186-229.76 892.186-513.354s-399.345-513.23-892.185-513.23c-492.592 0-891.936 229.76-891.936 513.23s399.344 513.354 891.936 513.354" fill="#8e9090"/>
        <path d="M662.085 768.44c19.27 27.477 36.925 65.894 34.688 105.555l-149.941-.621c-.87-33.57-22.38-64.154-52.84-80.441-25.487-8.206-50.975.994-71.365 15.292-42.77 47.867-34.563 120.226-31.455 183.385 0 43.889 18.276 86.533 55.824 109.037 38.79 10.07 79.57-2.114 96.976-37.796 1.99-11.19 7.957-20.266 6.092-33.569H469.5V923.354h226.155v288.194h-71.24c-11.19-16.287-12.31-38.666-24.494-54.953-53.959 62.289-149.692 74.349-227.149 48.861-100.83-32.574-143.6-138.378-148.697-235.23-3.109-97.847 21.26-186.37 98.841-248.534 100.707-68.256 261.588-52.964 339.17 46.748" fill="#ffffff"/>
        <path d="M1489.246 688.372c88.522.87 171.2 15.541 218.943 98.469 63.16 91.63 61.046 241.322-3.108 331.958-59.305 80.316-143.973 91.88-237.966 92.252-42.023 1.368-177.542 2.114-175.677.497V688.994c60.3 0 130.919-1.368 197.808-.622" fill="#ffffff"/>
        <path d="M1056.208 1211.548v-205.391l-130.794.622.373 204.77H770.002v-521.56h155.785v189.477l129.923.497.373-189.975h151.93v521.56z" fill="#ffffff"/>
        <path d="M1549.172 833.713c32.699 35.558 41.899 82.43 40.904 133.405a193.95 193.95 0 0 1-37.796 101.825q-42.52 34.812-101.825 28.596V802.133c39.66-6.216 71.365 8.081 98.717 31.58" fill="#8e9090"/>
    </g>
</svg>
