<?xml version="1.0" encoding="UTF-8"?>
<svg data-bbox="-0.006 0.002 1041.909 253.469" xmlns="http://www.w3.org/2000/svg" viewBox="0 0 1042 254" fill-rule="evenodd" clip-rule="evenodd" stroke-linejoin="round" stroke-miterlimit="2" data-type="ugc">
    <g>
        <path d="M14.752 5.173H.002V95.86h51.275v-9.38H14.752z" fill-rule="nonzero"/>
        <path d="M65.852 95.86h68.66v-9.38h-53.91V50.878h52.33v-9.382h-52.33V14.555h53.91V5.173h-68.66z" fill-rule="nonzero"/>
        <path d="M219.854 14.555V5.173h-60.232V95.86h14.75V50.878h44.077v-9.382h-44.076V14.555z" fill-rule="nonzero"/>
        <path d="M303.79 14.555V5.173h-60.23V95.86h14.75V50.878h44.076v-9.382H258.31V14.555z" fill-rule="nonzero"/>
        <path d="M342.247 5.173h-14.75V95.86h51.275v-9.38h-36.525z" fill-rule="nonzero"/>
        <path d="M393.347 95.86h68.66v-9.38h-53.91V50.878h52.33v-9.382h-52.33V14.555h53.91V5.173h-68.66z" fill-rule="nonzero"/>
        <path d="M501.868 14.555h4.39q7.903 0 13.608.541 5.71.541 10.274 2.165 4.565 1.623 7.2 4.931t2.634 8.72q0 5.052-2.723 8.3-2.72 3.245-7.462 4.99-4.74 1.743-10.45 2.346-5.706.6-12.905.601h-4.566zm0 41.495h3.688l40.037 39.81h18.087l-42.144-40.652q15.276-.965 24.233-7.758 8.955-6.797 8.955-17.26 0-7.337-3.863-12.328-3.864-4.992-10.536-7.697-6.672-2.708-15.277-3.849-8.604-1.143-18.79-1.143h-19.14V95.86h14.75z" fill-rule="nonzero"/>
        <path d="M686.191 17.682q-4.69-6.737-12.664-10.404-7.975-3.668-17.825-3.668-6.567 0-12.509 1.624-5.942 1.623-10.632 4.69-4.691 3.066-7.272 7.337-2.579 4.268-2.578 9.442 0 4.689 1.953 8.238 1.955 3.547 5.472 6.255 3.52 2.705 7.818 4.63 4.3 1.923 10.4 4.09l7.191 2.405.626.24q5.16 1.803 8.52 3.188a33.5 33.5 0 0 1 6.254 3.368q2.894 1.983 4.614 4.75 1.721 2.764 1.72 6.495 0 3.728-1.956 6.976-1.952 3.247-5.393 5.653-3.44 2.404-7.818 3.729a31.2 31.2 0 0 1-9.068 1.323q-9.226 0-15.715-4.872t-7.895-11.967l-12.821 2.766q2.814 10.583 12.742 17.02 9.93 6.433 24.002 6.434 7.66 0 14.384-2.105 6.724-2.108 11.883-5.953 5.16-3.852 7.975-8.96 2.814-5.114 2.814-11.006 0-5.174-2.189-9.14-2.19-3.971-6.02-6.917-3.83-2.948-8.6-5.051-4.768-2.106-11.492-4.39l-7.817-2.646q-3.91-1.325-6.88-2.526a39 39 0 0 1-5.629-2.826q-2.66-1.625-4.3-3.85a8.2 8.2 0 0 1-1.641-4.99q0-6.135 5.785-10.104 5.784-3.969 13.76-3.969 7.19 0 11.882 2.406 4.69 2.405 8.444 7.457z" fill-rule="nonzero"/>
        <path fill-rule="nonzero" d="M723.873 5.173V95.86H710.74V5.173z"/>
        <path d="M739.978 95.86h13.447l15.166-61.34h.313l37.839 65.069 37.994-65.069h.313l15.167 61.34h13.446L849.741.002l-42.998 76.133L763.9.002z" fill-rule="nonzero"/>
        <path d="M889.455 95.86h61.136v-9.38h-48.002V50.878h46.595v-9.382h-46.595V14.555h48.002V5.173h-61.136z" fill-rule="nonzero"/>
        <path d="M1037.682 17.682q-4.691-6.737-12.665-10.404-7.974-3.668-17.825-3.668-6.567 0-12.508 1.624-5.943 1.623-10.633 4.69-4.691 3.066-7.272 7.337-2.579 4.268-2.578 9.442 0 4.689 1.953 8.238 1.955 3.547 5.473 6.255 3.518 2.705 7.817 4.63 4.302 1.923 10.4 4.09l7.192 2.405.625.24q5.16 1.803 8.52 3.188a33.5 33.5 0 0 1 6.255 3.368q2.893 1.983 4.613 4.75 1.721 2.764 1.72 6.495 0 3.728-1.955 6.976-1.954 3.247-5.393 5.653-3.44 2.404-7.818 3.729a31.2 31.2 0 0 1-9.069 1.323q-9.225 0-15.715-4.872-6.488-4.872-7.895-11.967l-12.821 2.766q2.814 10.583 12.742 17.02 9.93 6.433 24.002 6.434 7.661 0 14.385-2.105 6.722-2.108 11.883-5.953 5.16-3.852 7.974-8.96 2.814-5.114 2.814-11.006 0-5.174-2.189-9.14-2.19-3.971-6.02-6.917-3.83-2.948-8.6-5.051-4.768-2.106-11.491-4.39l-7.818-2.646q-3.909-1.325-6.88-2.526a39 39 0 0 1-5.629-2.826q-2.66-1.625-4.3-3.85a8.2 8.2 0 0 1-1.641-4.99q0-6.135 5.785-10.104 5.784-3.969 13.76-3.969 7.19 0 11.882 2.406 4.692 2.405 8.444 7.457z" fill-rule="nonzero"/>
        <path d="m93.817 221.998 16.535 29.67h17.278L64.648 142.137-.006 251.668h17.092l16.907-29.67zm-6.131-10.815H40.31l23.966-41.871z" fill="#b1aa14" fill-rule="nonzero"/>
        <path d="M158.47 157.942h4.645q8.361 0 14.398.624 6.04.624 10.87 2.496t7.617 5.685q2.787 3.811 2.787 10.051 0 5.825-2.881 9.567-2.879 3.743-7.895 5.754-5.016 2.009-11.056 2.704-6.036.691-13.654.693h-4.83zm0 47.834h3.902l42.36 45.892h19.136l-44.59-46.863q16.165-1.11 25.64-8.942 9.474-7.836 9.475-19.896 0-8.46-4.088-14.212-4.088-5.755-11.147-8.873-7.058-3.12-16.163-4.437-9.104-1.318-19.88-1.317h-20.25v104.54h15.606z" fill="#b1aa14" fill-rule="nonzero"/>
        <path d="M350.39 155.585q-18.394-10.26-41.803-10.26-14.862 0-28.148 4.23-13.28 4.226-23.41 11.784-10.123 7.555-15.791 17.47-5.665 9.912-5.665 21.005-.001 10.952 5.759 20.728 5.76 9.773 15.883 17.192 10.13 7.417 23.41 11.577 13.284 4.16 27.962 4.16 10.96 0 21.829-2.704t19.973-7.556v-14.42q-8.547 6.377-19.693 10.122-11.149 3.743-22.666 3.743-11.52 0-21.923-3.466-10.403-3.468-18.302-9.497-7.894-6.031-12.262-13.935-4.363-7.903-4.364-16.36.001-8.459 4.364-16.36 4.368-7.904 12.262-13.934 7.898-6.032 18.116-9.498 10.22-3.467 21.737-3.466 11.891-.001 23.038 3.674t19.693 10.19z" fill="#b1aa14" fill-rule="nonzero"/>
        <path d="M393.12 189.554v-42.426h-15.606v104.54h15.606v-51.3h71.715v51.3h15.606v-104.54h-15.606v42.426z" fill="#b1aa14" fill-rule="nonzero"/>
        <path fill="#b1aa14" fill-rule="nonzero" d="M525.401 147.128v104.54h-15.606v-104.54z"/>
        <path d="M590.984 157.942h34.185v-10.814h-83.604v10.814h33.813v93.726h15.606z" fill="#b1aa14" fill-rule="nonzero"/>
        <path d="M641.147 251.668h72.643v-10.814h-57.037v-41.04h55.365v-10.815h-55.365v-31.057h57.037v-10.814h-72.643z" fill="#b1aa14" fill-rule="nonzero"/>
        <path d="M847.186 155.585q-18.393-10.26-41.803-10.26-14.861 0-28.148 4.23-13.28 4.226-23.41 11.784-10.123 7.555-15.791 17.47-5.665 9.912-5.665 21.005 0 10.952 5.76 20.728 5.759 9.773 15.883 17.192 10.128 7.417 23.409 11.577 13.285 4.16 27.962 4.16 10.96 0 21.829-2.704t19.974-7.556v-14.42q-8.547 6.377-19.694 10.122-11.148 3.743-22.666 3.743t-21.923-3.466q-10.403-3.468-18.301-9.497-7.895-6.031-12.262-13.935-4.365-7.903-4.365-16.36 0-8.459 4.365-16.36 4.366-7.904 12.262-13.934 7.897-6.032 18.115-9.498 10.22-3.467 21.737-3.466 11.892-.001 23.038 3.674t19.694 10.19z" fill="#b1aa14" fill-rule="nonzero"/>
        <path d="M910.725 157.942h34.185v-10.814h-83.605v10.814h33.814v93.726h15.606z" fill="#b1aa14" fill-rule="nonzero"/>
        <path d="M1036.875 161.547q-5.573-7.766-15.05-11.993-9.474-4.229-21.179-4.228-7.803 0-14.863 1.871-7.06 1.872-12.633 5.407-5.575 3.535-8.641 8.458-3.065 4.92-3.064 10.884 0 5.406 2.32 9.497 2.325 4.09 6.503 7.21 4.182 3.118 9.29 5.338 5.111 2.218 12.356 4.714l8.546 2.773.743.277q6.131 2.08 10.125 3.674a40.2 40.2 0 0 1 7.431 3.882q3.44 2.287 5.482 5.477 2.044 3.186 2.044 7.487 0 4.297-2.324 8.041-2.32 3.743-6.408 6.517-4.087 2.77-9.29 4.298a38.2 38.2 0 0 1-10.775 1.525q-10.961 0-18.673-5.615-7.708-5.617-9.381-13.796l-15.235 3.19q3.345 12.198 15.14 19.618 11.8 7.417 28.52 7.418 9.104 0 17.093-2.427 7.99-2.43 14.12-6.863 6.13-4.439 9.475-10.33 3.345-5.892 3.344-12.685c0-3.977-.868-7.487-2.601-10.538q-2.6-4.576-7.154-7.972-4.55-3.397-10.219-5.823-5.664-2.429-13.654-5.06l-9.289-3.05q-4.644-1.528-8.175-2.912a46.4 46.4 0 0 1-6.688-3.259q-3.159-1.872-5.11-4.436-1.95-2.567-1.95-5.754-.001-7.07 6.874-11.647 6.875-4.575 16.35-4.575 8.547-.001 14.12 2.773 5.573 2.772 10.032 8.596z" fill="#b1aa14" fill-rule="nonzero"/>
    </g>
</svg>
