<?xml version="1.0" encoding="UTF-8" standalone="no"?><!DOCTYPE svg PUBLIC "-//W3C//DTD SVG 1.1//EN" "http://www.w3.org/Graphics/SVG/1.1/DTD/svg11.dtd"><svg width="100%" height="100%" viewBox="0 0 4342 1059" version="1.1" xmlns="http://www.w3.org/2000/svg" xmlns:xlink="http://www.w3.org/1999/xlink" xml:space="preserve" xmlns:serif="http://www.serif.com/" style="fill-rule:evenodd;clip-rule:evenodd;stroke-linejoin:round;stroke-miterlimit:2;"><g><path d="M61.467,21.554l-61.459,0l0,377.863l213.646,-0l0,-39.084l-152.187,0l-0,-338.779Z" style="fill-rule:nonzero;"/><path d="M274.383,399.417l286.084,-0l-0,-39.084l-224.625,0l-0,-148.341l218.041,-0l0,-39.092l-218.041,0l-0,-112.254l224.625,-0l-0,-39.092l-286.084,0l0,377.863Z" style="fill-rule:nonzero;"/><path d="M916.058,60.646l0,-39.092l-250.966,0l-0,377.863l61.458,-0l0,-187.425l183.654,-0l0,-39.092l-183.65,0l0,-112.254l189.504,-0Z" style="fill-rule:nonzero;"/><path d="M1265.79,60.646l-0,-39.092l-250.959,0l0,377.863l61.459,-0l-0,-187.425l183.65,-0l-0,-39.092l-183.65,0l-0,-112.254l189.5,-0Z" style="fill-rule:nonzero;"/><path d="M1426.03,21.554l-61.458,0l-0,377.863l213.646,-0l-0,-39.084l-152.188,0l0,-338.779Z" style="fill-rule:nonzero;"/><path d="M1638.95,399.417l286.083,-0l0,-39.084l-224.625,0l0,-148.341l218.042,-0l-0,-39.092l-218.042,0l0,-112.254l224.625,-0l0,-39.092l-286.083,0l-0,377.863Z" style="fill-rule:nonzero;"/><path d="M2091.12,60.646l18.291,-0c21.953,-0 40.853,0.751 56.7,2.254c15.861,1.503 30.131,4.51 42.809,9.021c12.68,4.508 22.68,11.357 30,20.546c7.319,9.189 10.977,21.3 10.975,36.333c-0,14.033 -3.782,25.561 -11.346,34.583c-7.556,9.014 -17.92,15.945 -31.092,20.792c-13.166,4.842 -27.68,8.1 -43.541,9.775c-15.85,1.667 -33.774,2.501 -53.771,2.504l-19.025,0l-0,-135.808Zm-0,172.896l15.366,-0l166.821,165.875l75.363,-0l-175.6,-169.384c42.433,-2.68 76.09,-13.455 100.971,-32.325c24.875,-18.88 37.312,-42.852 37.312,-71.916c0,-20.381 -5.365,-37.503 -16.096,-51.367c-10.733,-13.867 -25.366,-24.557 -43.9,-32.071c-18.533,-7.522 -39.751,-12.868 -63.654,-16.037c-23.9,-3.175 -49.997,-4.763 -78.292,-4.763l-79.75,0l0,377.863l61.459,-0l-0,-165.875Z" style="fill-rule:nonzero;"/><path d="M2859.13,73.675c-13.028,-18.714 -30.617,-33.164 -52.766,-43.35c-22.153,-10.189 -46.91,-15.283 -74.271,-15.283c-18.242,-0 -35.616,2.255 -52.121,6.766c-16.506,4.509 -31.272,11.023 -44.3,19.542c-13.031,8.517 -23.131,18.707 -30.3,30.571c-7.164,11.855 -10.745,24.969 -10.742,39.342c0,13.025 2.713,24.466 8.138,34.325c5.43,9.852 13.03,18.54 22.8,26.062c9.777,7.514 20.636,13.944 32.575,19.292c11.944,5.341 26.389,11.022 43.333,17.041l29.963,10.021l2.608,1c14.333,5.009 26.167,9.436 35.5,13.284c9.159,3.741 17.894,8.445 26.058,14.033c8.039,5.508 14.447,12.105 19.225,19.792c4.781,7.677 7.17,16.698 7.167,27.062c-0,10.356 -2.717,20.044 -8.15,29.067c-5.422,9.019 -12.913,16.871 -22.471,23.554c-9.556,6.678 -20.414,11.857 -32.575,15.537c-12.254,3.687 -24.986,5.545 -37.783,5.513c-25.628,-0 -47.454,-6.767 -65.479,-20.3c-18.025,-13.533 -28.991,-30.154 -32.896,-49.863l-53.421,11.525c7.817,29.398 25.514,53.036 53.092,70.917c27.583,17.869 60.919,26.806 100.008,26.808c21.278,0 41.255,-2.923 59.933,-8.77c18.678,-5.856 35.182,-14.124 49.513,-24.805c14.333,-10.7 25.409,-23.144 33.229,-37.333c7.817,-14.206 11.725,-29.492 11.725,-45.858c-0,-14.373 -3.04,-27.067 -9.121,-38.084c-6.083,-11.03 -14.444,-20.637 -25.083,-28.82c-10.639,-8.189 -22.584,-15.205 -35.834,-21.046c-13.244,-5.85 -29.205,-11.948 -47.883,-18.292l-32.571,-11.025c-10.861,-3.681 -20.416,-7.189 -28.666,-10.525c-8.123,-3.286 -15.967,-7.224 -23.455,-11.775c-7.389,-4.514 -13.361,-9.861 -17.916,-16.042c-4.497,-5.992 -6.9,-13.3 -6.838,-20.791c0,-17.042 8.035,-31.075 24.104,-42.1c16.067,-11.025 35.178,-16.538 57.334,-16.538c19.972,0 36.475,3.342 49.508,10.025c13.028,6.681 24.756,17.038 35.183,31.071l43.646,-21.55Z" style="fill-rule:nonzero;"/><rect x="2961.42" y="21.554" width="54.721" height="377.863" style="fill-rule:nonzero;"/><path d="M3083.24,399.417l56.029,-0l63.191,-255.584l1.305,0l157.662,271.121l158.309,-271.121l1.304,0l63.196,255.584l56.025,-0l-99.675,-399.409l-179.159,317.221l-178.512,-317.221l-99.675,399.409Z" style="fill-rule:nonzero;"/><path d="M3706.06,399.417l254.733,-0l-0,-39.084l-200.008,0l-0.001,-148.341l194.146,-0l0,-39.092l-194.146,0l0.001,-112.254l200.008,-0l-0,-39.092l-254.733,0l-0,377.863Z" style="fill-rule:nonzero;"/><path d="M4323.68,73.675c-13.031,-18.714 -30.621,-33.164 -52.771,-43.35c-22.15,-10.189 -46.907,-15.283 -74.271,-15.283c-18.241,-0 -35.614,2.255 -52.116,6.766c-16.509,4.509 -31.277,11.023 -44.305,19.542c-13.03,8.517 -23.13,18.707 -30.3,30.571c-7.163,11.855 -10.744,24.969 -10.741,39.342c-0,13.025 2.712,24.466 8.137,34.325c5.431,9.852 13.032,18.54 22.804,26.062c9.773,7.514 20.63,13.944 32.571,19.292c11.95,5.341 26.395,11.022 43.334,17.041l29.966,10.021l2.604,1c14.334,5.009 26.167,9.436 35.5,13.284c9.161,3.74 17.897,8.445 26.063,14.033c8.036,5.508 14.443,12.105 19.221,19.792c4.78,7.677 7.169,16.698 7.166,27.062c0,10.356 -2.715,20.044 -8.145,29.067c-5.428,9.019 -12.918,16.871 -22.471,23.554c-9.556,6.678 -20.414,11.857 -32.575,15.537c-12.256,3.688 -24.989,5.545 -37.788,5.513c-25.625,-0 -47.451,-6.767 -65.479,-20.3c-18.022,-13.533 -28.987,-30.154 -32.896,-49.863l-53.421,11.525c7.817,29.398 25.514,53.036 53.092,70.917c27.583,17.869 60.92,26.806 100.008,26.808c21.281,0 41.26,-2.923 59.938,-8.77c18.672,-5.856 35.176,-14.124 49.512,-24.805c14.334,-10.7 25.409,-23.144 33.225,-37.333c7.817,-14.206 11.725,-29.492 11.725,-45.858c0,-14.373 -3.04,-27.067 -9.12,-38.084c-6.084,-11.03 -14.445,-20.637 -25.084,-28.82c-10.639,-8.189 -22.583,-15.205 -35.833,-21.046c-13.244,-5.85 -29.204,-11.948 -47.879,-18.292l-32.575,-11.025c-10.859,-3.681 -20.414,-7.189 -28.667,-10.525c-8.123,-3.286 -15.966,-7.224 -23.454,-11.775c-7.389,-4.514 -13.361,-9.861 -17.917,-16.042c-4.496,-5.992 -6.9,-13.3 -6.837,-20.791c-0,-17.042 8.035,-31.075 24.104,-42.1c16.067,-11.025 35.178,-16.538 57.333,-16.538c19.973,0 36.475,3.342 49.509,10.025c13.033,6.681 24.761,17.038 35.183,31.071l43.65,-21.55Z" style="fill-rule:nonzero;"/><path d="M390.904,924.992l68.896,123.625l71.992,-0l-262.425,-456.38l-269.392,456.38l71.217,-0l70.445,-123.625l249.267,-0Zm-25.546,-45.063l-197.4,0l99.859,-174.462l97.541,174.462Z" style="fill-rule:nonzero;"/><path d="M660.292,658.092l19.354,-0c23.225,-0 43.222,0.866 59.991,2.6c16.778,1.733 31.875,5.2 45.292,10.4c13.417,5.2 23.996,13.096 31.738,23.687c7.741,10.586 11.612,24.546 11.612,41.879c0,16.181 -4.001,29.468 -12.004,39.863c-7.997,10.397 -18.962,18.389 -32.896,23.975c-13.933,5.58 -29.289,9.336 -46.067,11.267c-16.766,1.919 -35.73,2.881 -56.891,2.887l-20.125,0l-0.004,-156.558Zm-0,199.308l16.258,0l176.5,191.217l79.733,-0l-185.791,-195.263c44.902,-3.083 80.514,-15.503 106.833,-37.258c26.317,-21.767 39.476,-49.4 39.479,-82.9c0,-23.5 -5.678,-43.239 -17.033,-59.217c-11.356,-15.986 -26.838,-28.31 -46.446,-36.971c-19.606,-8.666 -42.054,-14.829 -67.346,-18.487c-25.289,-3.661 -52.9,-5.49 -82.833,-5.488l-84.375,0l-0,435.584l65.025,-0l-0.004,-191.217Z" style="fill-rule:nonzero;"/><path d="M1459.96,648.271c-51.094,-28.5 -109.154,-42.75 -174.179,-42.75c-41.283,-0 -80.378,5.875 -117.283,17.625c-36.889,11.739 -69.403,28.105 -97.542,49.1c-28.119,20.986 -50.051,45.25 -65.796,72.792c-15.736,27.533 -23.604,56.706 -23.604,87.52c-0.003,30.423 7.996,59.211 23.996,86.367c16,27.147 38.06,51.025 66.179,71.633c28.139,20.603 60.653,36.682 97.542,48.238c36.9,11.555 75.736,17.333 116.508,17.333c30.445,0 60.763,-3.755 90.954,-11.267c30.192,-7.511 57.932,-18.005 83.221,-31.483l0,-60.083c-23.742,17.714 -51.093,31.772 -82.054,42.175c-30.969,10.397 -62.45,15.596 -94.442,15.596c-32,-0 -62.448,-4.814 -91.345,-14.442c-28.898,-9.633 -54.317,-22.824 -76.259,-39.571c-21.928,-16.753 -38.958,-36.107 -51.091,-58.062c-12.12,-21.953 -18.181,-44.675 -18.184,-68.167c0.003,-23.497 6.064,-46.219 18.183,-68.167c12.134,-21.955 29.164,-41.308 51.092,-58.058c21.939,-16.756 47.1,-29.947 75.483,-39.575c28.389,-9.631 58.58,-14.444 90.571,-14.442c33.031,-0.002 65.028,5.1 95.992,15.309c30.964,10.208 58.315,24.361 82.054,42.458l0.004,-60.079Z" style="fill-rule:nonzero;"/><path d="M1638,789.808l0,-176.775l-65.025,0l0,435.584l65.025,-0l0,-213.75l298.813,-0l-0,213.75l65.025,-0l-0,-435.584l-65.025,0l-0,176.775l-298.813,0Z" style="fill-rule:nonzero;"/><rect x="2124.15" y="613.033" width="65.025" height="435.583" style="fill-rule:nonzero;"/><path d="M2462.43,658.092l142.438,-0l-0,-45.059l-348.35,0l-0,45.059l140.887,-0l0,390.525l65.025,-0l0,-390.525Z" style="fill-rule:nonzero;"/><path d="M2671.45,1048.62l302.679,-0l0,-45.059l-237.654,0l-0,-171l230.687,0l0,-45.062l-230.687,-0l-0,-129.404l237.654,-0l0,-45.059l-302.679,0l-0,435.584Z" style="fill-rule:nonzero;"/><path d="M3529.94,648.271c-51.092,-28.5 -109.152,-42.75 -174.179,-42.75c-41.281,-0 -80.375,5.875 -117.284,17.625c-36.889,11.739 -69.403,28.105 -97.541,49.1c-28.12,20.986 -50.052,45.25 -65.796,72.792c-15.736,27.533 -23.604,56.706 -23.604,87.52c-0,30.423 8,59.211 24,86.367c15.997,27.147 38.056,51.025 66.179,71.633c28.133,20.603 60.646,36.682 97.537,48.238c36.903,11.555 75.739,17.333 116.509,17.333c30.444,0 60.762,-3.755 90.954,-11.267c30.191,-7.511 57.933,-18.005 83.225,-31.483l-0,-60.083c-23.742,17.714 -51.095,31.772 -82.059,42.175c-30.966,10.397 -62.447,15.596 -94.441,15.596c-31.995,-0 -62.443,-4.814 -91.346,-14.442c-28.897,-9.633 -54.315,-22.824 -76.254,-39.571c-21.931,-16.753 -38.961,-36.107 -51.092,-58.062c-12.125,-21.953 -18.188,-44.675 -18.188,-68.167c0.001,-23.497 6.063,-46.219 18.188,-68.167c12.128,-21.955 29.158,-41.308 51.092,-58.058c21.936,-16.756 47.095,-29.947 75.479,-39.575c28.389,-9.631 58.579,-14.444 90.571,-14.442c33.033,-0.002 65.03,5.1 95.991,15.309c30.961,10.208 58.314,24.361 82.059,42.458l-0,-60.079Z" style="fill-rule:nonzero;"/><path d="M3794.69,658.092l142.437,-0l0,-45.059l-348.354,0l-0,45.059l140.892,-0l-0,390.525l65.025,-0l-0,-390.525Z" style="fill-rule:nonzero;"/><path d="M4320.31,673.113c-15.481,-21.573 -36.384,-38.23 -62.709,-49.971c-26.316,-11.748 -55.732,-17.62 -88.246,-17.617c-21.675,-0 -42.318,2.599 -61.929,7.796c-19.611,5.2 -37.157,12.71 -52.637,22.529c-15.486,9.819 -27.488,21.567 -36.004,35.242c-8.514,13.666 -12.77,28.783 -12.767,45.35c-0,15.016 3.222,28.207 9.667,39.571c6.458,11.361 15.49,21.375 27.095,30.041c11.617,8.661 24.52,16.075 38.709,22.242c14.197,6.161 31.358,12.708 51.483,19.642l35.608,11.554l3.096,1.154c17.031,5.778 31.093,10.88 42.188,15.308c10.856,4.298 21.233,9.719 30.962,16.175c9.556,6.353 17.17,13.96 22.842,22.821c5.678,8.85 8.517,19.249 8.517,31.196c-0,11.936 -3.228,23.104 -9.684,33.504c-6.444,10.397 -15.344,19.449 -26.7,27.154c-11.353,7.695 -24.255,13.664 -38.708,17.909c-14.585,4.249 -29.704,6.389 -44.896,6.354c-30.447,-0 -56.382,-7.799 -77.804,-23.396c-21.411,-15.603 -34.44,-34.764 -39.088,-57.484l-63.479,13.292c9.292,33.883 30.32,61.131 63.084,81.742c32.777,20.603 72.388,30.905 118.833,30.908c25.289,0 49.029,-3.371 71.221,-10.112c22.194,-6.75 41.805,-16.282 58.833,-28.596c17.028,-12.331 30.188,-26.678 39.479,-43.042c9.292,-16.366 13.936,-33.985 13.934,-52.854c-0,-16.571 -3.617,-31.196 -10.838,-43.908c-7.222,-12.711 -17.158,-23.784 -29.808,-33.217c-12.639,-9.436 -26.832,-17.524 -42.579,-24.262c-15.734,-6.748 -34.698,-13.775 -56.892,-21.084l-38.704,-12.708c-12.9,-4.245 -24.254,-8.289 -34.063,-12.134c-9.637,-3.773 -18.956,-8.314 -27.866,-13.579c-8.775,-5.2 -15.873,-11.361 -21.292,-18.483c-5.417,-7.131 -8.125,-15.122 -8.125,-23.975c-0.003,-19.639 9.544,-35.815 28.642,-48.529c19.097,-12.708 41.805,-19.063 68.125,-19.063c23.741,-0.002 43.352,3.849 58.833,11.554c15.48,7.7 29.414,19.639 41.8,35.817l51.867,-24.841Z" style="fill-rule:nonzero;"/></g></svg>