<?xml version="1.0" encoding="UTF-8"?>
<svg data-bbox="0 0 712.68 134.998" xmlns="http://www.w3.org/2000/svg" viewBox="0 0 713 135" fill-rule="evenodd" clip-rule="evenodd" stroke-linejoin="round" stroke-miterlimit="2" data-type="ugc">
    <g>
        <path d="M11.1 124.755q1.1 0 1.957-.282a6.3 6.3 0 0 0 1.533-.734q.675-.451 1.18-1.016.506-.564.887-1.112.234.192.374.596t.139.822q0 .695-.337 1.46-.336.767-1.13 1.411-.79.645-2.096 1.065-1.305.42-3.225.42-2.611 0-4.561-.872-1.95-.87-3.24-2.467t-1.936-3.84Q0 117.966 0 115.24q0-2.678.66-4.904t1.958-3.822a8.84 8.84 0 0 1 3.24-2.484q1.942-.887 4.494-.887 1.73 0 3.013.299 1.284.297 2.134.814t1.275 1.217q.425.702.425 1.51 0 .611-.242 1.135-.24.526-.718.912a3.5 3.5 0 0 1-1.18.605 5.5 5.5 0 0 1-1.613.218q0-.824-.162-1.637a4.7 4.7 0 0 0-.55-1.476 3.2 3.2 0 0 0-1.018-1.072q-.63-.412-1.57-.412-1.421 0-2.404.66-.982.662-1.576 1.937t-.858 3.137-.264 4.25.323 4.177q.323 1.791 1.041 2.976.719 1.187 1.87 1.775 1.15.588 2.822.588" fill="#d3d4de" fill-rule="nonzero"/>
        <path d="M40.383 115.239q0 2.725-.668 4.968-.667 2.242-1.964 3.839a8.8 8.8 0 0 1-3.182 2.467q-1.884.872-4.333.872-2.565 0-4.48-.872a8.4 8.4 0 0 1-3.174-2.467q-1.261-1.597-1.892-3.847-.63-2.25-.63-4.993 0-2.741.63-4.975t1.899-3.815a8.5 8.5 0 0 1 3.182-2.444q1.913-.862 4.494-.862 2.434 0 4.32.862a8.7 8.7 0 0 1 3.173 2.452q1.29 1.589 1.957 3.823.668 2.234.668 4.992m-15.279 0q0 2.371.279 4.226.278 1.854.894 3.137.615 1.282 1.591 1.96.975.677 2.368.677 1.407 0 2.383-.678.975-.676 1.576-1.96.602-1.281.872-3.136.272-1.856.272-4.226 0-2.372-.272-4.226-.27-1.855-.872-3.137-.6-1.282-1.568-1.952t-2.362-.67q-1.407 0-2.39.67t-1.598 1.952q-.616 1.282-.894 3.137-.279 1.854-.279 4.226" fill="#d3d4de" fill-rule="nonzero"/>
        <path d="M59.636 127.062 47.92 108.868v14.29q0 .71.125 1.13.124.42.33.645.205.225.491.298t.595.073h1.26v1.758h-7.845v-1.758h1.262q.323 0 .6-.073.28-.073.492-.298t.33-.645q.117-.42.117-1.13v-15.92q0-.66-.124-1.056-.125-.395-.338-.604a1.1 1.1 0 0 0-.49-.283 2.3 2.3 0 0 0-.587-.072h-1.262v-1.743h6.673l10.6 16.485v-12.727q0-.66-.124-1.056-.125-.395-.337-.604a1.1 1.1 0 0 0-.491-.283 2.3 2.3 0 0 0-.587-.072h-1.26v-1.743h7.844v1.743h-1.261q-.309 0-.586.072-.28.073-.492.299t-.33.645q-.117.42-.117 1.129v19.694z" fill="#d3d4de" fill-rule="nonzero"/>
        <path d="M73.64 127.385q-2.022 0-3.372-.42-1.349-.42-2.163-1.08-.814-.662-1.158-1.485a4.2 4.2 0 0 1-.345-1.629q0-.855.286-1.435t.762-.952q.477-.37 1.086-.532a5 5 0 0 1 1.268-.162q0 1.42.308 2.493t.85 1.79 1.298 1.08a3.8 3.8 0 0 0 1.65.363q.88 0 1.57-.273.687-.275 1.172-.759t.733-1.137q.25-.653.25-1.41 0-.84-.309-1.493a3.8 3.8 0 0 0-.93-1.21q-.625-.557-1.57-1.064-.945-.509-2.207-1.09-1.569-.709-2.646-1.459-1.078-.75-1.738-1.621a5.6 5.6 0 0 1-.946-1.887 8.2 8.2 0 0 1-.285-2.226q0-1.516.557-2.742a6.2 6.2 0 0 1 1.54-2.096 6.9 6.9 0 0 1 2.33-1.34q1.35-.467 2.933-.467 1.657 0 2.86.299 1.201.297 1.987.814.783.516 1.165 1.217t.381 1.51q0 .58-.227 1.08a2.4 2.4 0 0 1-.69.87q-.46.372-1.158.58-.695.21-1.62.21 0-.692-.168-1.491a5.3 5.3 0 0 0-.55-1.484 3.5 3.5 0 0 0-.99-1.137q-.609-.453-1.474-.452-.6 0-1.143.194a2.6 2.6 0 0 0-.946.58 2.8 2.8 0 0 0-.638.96q-.234.573-.234 1.315 0 .694.205 1.306.204.614.755 1.202.55.588 1.51 1.177.961.59 2.486 1.267 1.539.693 2.624 1.418 1.085.726 1.782 1.557a5.4 5.4 0 0 1 1.012 1.823q.315.992.315 2.201 0 1.597-.572 2.928a6.4 6.4 0 0 1-1.642 2.283q-1.071.952-2.574 1.483-1.502.533-3.38.533" fill="#d3d4de" fill-rule="nonzero"/>
        <path d="M105.255 105.223h-1.29q-.308 0-.587.072-.279.073-.491.299-.213.225-.33.645t-.118 1.129v12.888q0 1.66-.432 2.983-.433 1.323-1.349 2.242-.916.92-2.338 1.412-1.424.492-3.388.492-1.965 0-3.512-.412-1.546-.41-2.616-1.315-1.072-.902-1.636-2.33-.565-1.428-.564-3.46v-12.63q0-.66-.125-1.056-.126-.395-.337-.604a1.1 1.1 0 0 0-.484-.283 2.2 2.2 0 0 0-.58-.072h-1.29v-1.743H94.14v1.743h-1.26q-.308 0-.587.072-.28.073-.49.299-.214.225-.331.645t-.117 1.129v12.758q0 1.387.314 2.331.317.943.903 1.516t1.407.822q.82.251 1.848.25.996 0 1.803-.282a3.4 3.4 0 0 0 1.371-.879q.566-.597.872-1.516.308-.92.308-2.177v-12.953q0-.66-.116-1.056-.12-.395-.33-.604a1.1 1.1 0 0 0-.492-.283 2.3 2.3 0 0 0-.586-.072h-1.262v-1.743h7.86z" fill="#d3d4de" fill-rule="nonzero"/>
        <path d="M106.575 127.062v-1.758h1.262q.337 0 .616-.073a1 1 0 0 0 .484-.298q.205-.225.322-.645t.117-1.13v-15.79q0-.71-.117-1.13-.117-.418-.322-.644a1 1 0 0 0-.484-.299 2.4 2.4 0 0 0-.616-.072h-1.262v-1.743h10.367v1.743h-1.26q-.309 0-.594.072a1.03 1.03 0 0 0-.491.283q-.206.209-.33.604t-.125 1.056v17.808h5.586q1.056 0 1.643-.735.586-.733.85-2.136l.484-2.485h1.687l-.22 7.372z" fill="#d3d4de" fill-rule="nonzero"/>
        <path d="M135.463 123.159q0 .709.117 1.13.118.418.33.644.213.225.491.298.279.073.602.073h1.26v1.758h-10.367v-1.758h1.261q.337 0 .617-.073a1 1 0 0 0 .483-.298q.206-.225.323-.645t.118-1.13v-17.661h-2.406q-.675 0-1.129.162-.455.16-.74.458-.285.3-.425.735t-.198.984l-.205 2.049h-2.024l.161-6.405h18.71l.147 6.405h-2.009l-.22-2.05a5 5 0 0 0-.198-.983 1.9 1.9 0 0 0-.425-.735 1.9 1.9 0 0 0-.74-.458q-.455-.163-1.13-.162h-2.404z" fill="#d3d4de" fill-rule="nonzero"/>
        <path d="M143.719 127.062v-1.758h1.262q.336 0 .615-.073a1 1 0 0 0 .483-.298q.207-.225.323-.645.118-.42.118-1.13v-15.774q0-.71-.118-1.129t-.323-.645a1 1 0 0 0-.483-.299 2.4 2.4 0 0 0-.615-.073h-1.262v-1.758h10.367v1.758h-1.261q-.323 0-.609.073a1 1 0 0 0-.491.299q-.205.226-.323.645-.117.42-.116 1.13v15.774q0 .709.116 1.13.118.418.323.644.205.225.491.298t.609.073h1.26v1.758z" fill="#d3d4de" fill-rule="nonzero"/>
        <path d="m172.519 127.062-11.716-18.194v14.29q0 .71.124 1.13.125.42.33.645t.492.298q.284.073.593.073h1.26v1.758h-7.843v-1.758h1.26q.323 0 .602-.073t.491-.298.33-.645.117-1.13v-15.92q0-.66-.125-1.056-.124-.395-.337-.604a1.1 1.1 0 0 0-.491-.283 2.3 2.3 0 0 0-.587-.072h-1.26v-1.743h6.671l10.601 16.485v-12.727q0-.66-.125-1.056-.124-.395-.337-.604a1.1 1.1 0 0 0-.49-.283 2.3 2.3 0 0 0-.587-.072h-1.261v-1.743h7.844v1.743h-1.26q-.31 0-.587.072-.28.073-.491.299-.213.225-.33.645t-.118 1.129v19.694z" fill="#d3d4de" fill-rule="nonzero"/>
        <path d="M191.288 127.385q-2.786 0-4.861-.872-2.075-.87-3.453-2.467t-2.053-3.84q-.675-2.241-.675-4.967 0-2.678.72-4.904.717-2.225 2.125-3.822t3.505-2.484 4.853-.887q1.877 0 3.277.299 1.4.297 2.346.814t1.415 1.217q.47.702.47 1.51 0 .58-.25 1.088a2.6 2.6 0 0 1-.748.895q-.498.386-1.217.605-.719.216-1.67.217 0-1-.222-1.839a3.9 3.9 0 0 0-.681-1.435 3.14 3.14 0 0 0-1.166-.927q-.704-.331-1.656-.331-1.643 0-2.793.66-1.152.662-1.878 1.937t-1.055 3.137-.33 4.25.344 4.234q.344 1.846 1.115 3.105.769 1.257 1.994 1.912 1.225.653 2.998.653.558 0 1.114-.049a7 7 0 0 0 1.086-.177v-4.855q0-1.323-.543-1.839-.542-.516-1.598-.516h-.396v-1.742h9.443v1.742h-.395q-.455 0-.792.121a1.2 1.2 0 0 0-.558.411q-.22.29-.322.766a5.7 5.7 0 0 0-.103 1.186v5.42a17 17 0 0 1-3.548 1.33 16 16 0 0 1-3.842.444" fill="#d3d4de" fill-rule="nonzero"/>
        <path d="M217.897 125.046h6.013q.454 0 .776-.186.323-.186.557-.524.236-.338.375-.798.138-.46.213-1.009l.234-1.548h2.082l-.22 6.08H210.33v-1.757h1.261q.323 0 .602-.065t.49-.266q.214-.202.331-.597t.118-1.04v-15.968q0-.71-.118-1.13-.117-.418-.323-.644a1 1 0 0 0-.484-.299 2.4 2.4 0 0 0-.616-.072h-1.26v-1.743h16.671l.118 6.082h-2.097l-.147-1.565q-.117-1.21-.557-1.855t-1.363-.645h-5.06v8.258h7.127v1.984h-7.127z" fill="#d3d4de" fill-rule="nonzero"/>
        <path d="m246.697 127.062-11.716-18.194v14.29q0 .71.125 1.13.124.42.33.645.205.225.491.298.285.073.594.073h1.26v1.758h-7.844v-1.758h1.26q.323 0 .602-.073t.492-.298q.211-.225.329-.645t.117-1.13v-15.92q0-.66-.124-1.056-.125-.395-.338-.604a1.1 1.1 0 0 0-.49-.283 2.3 2.3 0 0 0-.587-.072h-1.26v-1.743h6.67l10.602 16.485v-12.727q0-.66-.125-1.056-.124-.395-.337-.604a1.1 1.1 0 0 0-.491-.283 2.3 2.3 0 0 0-.587-.072h-1.26v-1.743h7.844v1.743h-1.261q-.309 0-.586.072-.28.073-.492.299t-.33.645q-.117.42-.117 1.129v19.694z" fill="#d3d4de" fill-rule="nonzero"/>
        <path d="M265.466 127.385q-2.786 0-4.86-.872-2.075-.87-3.454-2.467-1.378-1.597-2.053-3.84-.674-2.241-.674-4.967 0-2.678.719-4.904.718-2.225 2.126-3.822t3.505-2.484 4.852-.887q1.879 0 3.277.299 1.401.297 2.347.814.945.516 1.415 1.217.469.702.47 1.51 0 .58-.25 1.088a2.6 2.6 0 0 1-.748.895q-.498.386-1.217.605-.72.216-1.671.217 0-1-.22-1.839a4 4 0 0 0-.683-1.435 3.14 3.14 0 0 0-1.165-.927q-.705-.331-1.657-.331-1.642 0-2.793.66-1.151.662-1.877 1.937-.727 1.274-1.056 3.137t-.33 4.25.344 4.234 1.115 3.105q.77 1.257 1.994 1.912 1.225.653 2.999.653.558 0 1.114-.049a7 7 0 0 0 1.086-.177v-4.855q0-1.323-.543-1.839t-1.598-.516h-.396v-1.742h9.443v1.742h-.396q-.455 0-.792.121-.337.12-.557.411-.22.29-.323.766a5.7 5.7 0 0 0-.102 1.186v5.42a17 17 0 0 1-3.549 1.33 16 16 0 0 1-3.842.444" fill="#d3d4de" fill-rule="nonzero"/>
        <path d="M276.7 127.062v-1.758h1.26q.337 0 .616-.073a1 1 0 0 0 .484-.298q.205-.225.323-.645.117-.42.117-1.13v-15.774q0-.71-.117-1.129t-.323-.645a1 1 0 0 0-.484-.299 2.4 2.4 0 0 0-.616-.073h-1.26v-1.758h10.366v1.758h-1.26a2.5 2.5 0 0 0-.61.073 1 1 0 0 0-.49.299q-.206.226-.324.645-.117.42-.117 1.13v15.774q0 .709.117 1.13.118.418.323.644.205.225.492.298.285.073.608.073h1.261v1.758z" fill="#d3d4de" fill-rule="nonzero"/>
        <path d="m305.498 127.062-11.716-18.194v14.29q0 .71.126 1.13.124.42.329.645t.491.298.594.073h1.261v1.758h-7.844v-1.758h1.26q.323 0 .601-.073.28-.073.491-.298.214-.225.33-.645.118-.42.118-1.13v-15.92q0-.66-.125-1.056-.124-.395-.337-.604a1.1 1.1 0 0 0-.49-.283 2.3 2.3 0 0 0-.587-.072h-1.261v-1.743h6.672l10.6 16.485v-12.727q0-.66-.124-1.056-.125-.395-.337-.604a1.1 1.1 0 0 0-.492-.283 2.3 2.3 0 0 0-.586-.072h-1.26v-1.743h7.844v1.743h-1.261q-.309 0-.587.072-.279.073-.49.299-.214.225-.33.645-.118.42-.118 1.129v19.694z" fill="#d3d4de" fill-rule="nonzero"/>
        <path d="M319.971 125.046h6.013q.454 0 .776-.186.323-.186.558-.524a2.9 2.9 0 0 0 .374-.798q.138-.46.213-1.009l.234-1.548h2.082l-.22 6.08h-17.595v-1.757h1.26q.324 0 .602-.065.279-.065.491-.266.213-.202.33-.597t.118-1.04v-15.968q0-.71-.118-1.13-.117-.418-.323-.644a1 1 0 0 0-.484-.299 2.4 2.4 0 0 0-.616-.072h-1.26v-1.743h16.671l.118 6.082h-2.097l-.146-1.565q-.12-1.21-.558-1.855-.44-.645-1.363-.645h-5.06v8.258h7.127v1.984h-7.127z" fill="#d3d4de" fill-rule="nonzero"/>
        <path d="M339.577 125.046h6.012q.454 0 .777-.186t.557-.524q.236-.338.374-.798a6.4 6.4 0 0 0 .212-1.009l.235-1.548h2.082l-.22 6.08h-17.595v-1.757h1.261q.322 0 .602-.065.278-.065.49-.266.213-.202.33-.597t.117-1.04v-15.968q0-.71-.116-1.13-.12-.418-.323-.644a1 1 0 0 0-.484-.299 2.4 2.4 0 0 0-.616-.072h-1.26v-1.743h16.671l.118 6.082h-2.098l-.147-1.565q-.116-1.21-.557-1.855-.439-.645-1.364-.645h-5.058v8.258h7.126v1.984h-7.126z" fill="#d3d4de" fill-rule="nonzero"/>
        <path d="M351.617 125.304h1.26q.31 0 .587-.065.279-.065.491-.266.213-.202.337-.597t.125-1.04v-16.098q0-.66-.125-1.056-.124-.395-.337-.604a1.1 1.1 0 0 0-.491-.283 2.3 2.3 0 0 0-.586-.072h-1.261v-1.743h9.677q4.252 0 6.24 1.565 1.986 1.564 1.986 4.549 0 1.306-.352 2.322a6.3 6.3 0 0 1-.93 1.774 6.2 6.2 0 0 1-1.313 1.283 8.5 8.5 0 0 1-1.496.863l3.578 6.774q.381.71.74 1.218.36.508.72.839.357.33.74.484.38.152.805.153h.118v1.758h-.982q-1.35 0-2.354-.113t-1.759-.443a4 4 0 0 1-1.305-.912q-.55-.58-1.019-1.5l-3.564-7.275h-1.994v6.517q0 .645.125 1.04.124.395.337.597t.491.266q.28.066.587.065h1.29v1.758h-10.366zm7.536-10.404h1.686q1.04 0 1.738-.306a2.6 2.6 0 0 0 1.114-.912q.419-.604.602-1.516.183-.91.183-2.12 0-1.258-.206-2.13-.204-.87-.645-1.427a2.5 2.5 0 0 0-1.143-.807q-.704-.25-1.701-.25h-1.628z" fill="#d3d4de" fill-rule="nonzero"/>
        <path d="M379.947 127.385q-2.025 0-3.373-.42-1.35-.42-2.162-1.08-.815-.662-1.159-1.485a4.2 4.2 0 0 1-.345-1.629q0-.855.286-1.435t.763-.952q.477-.37 1.084-.532a5 5 0 0 1 1.27-.162q0 1.42.307 2.493t.85 1.79 1.298 1.08a3.76 3.76 0 0 0 1.65.363q.88 0 1.568-.273.69-.275 1.173-.759t.733-1.137.25-1.41q0-.84-.307-1.493a3.8 3.8 0 0 0-.932-1.21q-.623-.557-1.569-1.064-.946-.509-2.206-1.09-1.57-.709-2.648-1.459-1.077-.75-1.737-1.621a5.6 5.6 0 0 1-.946-1.887 8.2 8.2 0 0 1-.286-2.226q.001-1.516.557-2.742a6.2 6.2 0 0 1 1.54-2.096q.982-.872 2.332-1.34 1.348-.467 2.932-.467 1.656 0 2.86.299 1.202.297 1.986.814.785.516 1.166 1.217.382.702.382 1.51 0 .58-.228 1.08a2.36 2.36 0 0 1-.689.87q-.463.372-1.158.58-.697.21-1.62.21 0-.692-.17-1.491a5.3 5.3 0 0 0-.55-1.484 3.5 3.5 0 0 0-.99-1.137q-.607-.453-1.473-.452-.6 0-1.143.194a2.6 2.6 0 0 0-.946.58q-.405.387-.638.96-.235.573-.235 1.315.001.694.206 1.306.205.614.754 1.202.55.588 1.511 1.177t2.485 1.267q1.54.693 2.625 1.418 1.085.726 1.782 1.557a5.3 5.3 0 0 1 1.011 1.823q.315.992.315 2.201 0 1.597-.571 2.928a6.4 6.4 0 0 1-1.643 2.283q-1.07.952-2.573 1.483-1.502.533-3.38.533" fill="#d3d4de" fill-rule="nonzero"/>
        <path d="m415.134 127.062-2.067-2.42q-.558.614-1.24 1.113-.681.5-1.502.863a9 9 0 0 1-1.782.564 10 10 0 0 1-2.089.203q-1.848-.001-3.27-.476-1.423-.476-2.39-1.38a5.8 5.8 0 0 1-1.466-2.21q-.5-1.306-.5-2.967 0-1.451.419-2.476a5.7 5.7 0 0 1 1.122-1.775 6.8 6.8 0 0 1 1.634-1.273q.931-.525 1.958-.976a19 19 0 0 1-1.019-1.476 9 9 0 0 1-.712-1.395 7.4 7.4 0 0 1-.41-1.42 8.7 8.7 0 0 1-.132-1.564q0-1.097.381-1.984a4.15 4.15 0 0 1 1.136-1.532q.757-.644 1.885-.993 1.128-.346 2.625-.346 1.45 0 2.529.37 1.078.372 1.789 1.017t1.07 1.5q.36.855.36 1.807 0 1-.28 1.807a4.8 4.8 0 0 1-.842 1.491q-.565.685-1.423 1.282t-2.03 1.194a.8.8 0 0 0 .22.242l4.252 4.919q.19-1.145.249-2.265.059-1.122.058-2.057v-1.452h6.57v1.742h-.47q-.497 0-.974.064a2.4 2.4 0 0 0-.887.299 2.3 2.3 0 0 0-.727.677q-.315.444-.505 1.201-.235.92-.55 1.961t-.77 2.104l2.991 3.436q.425.5 1.041.662.616.16 1.423.16h.278v1.759zm-11.891-6.548q0 .983.285 1.83t.8 1.476 1.253.992a3.7 3.7 0 0 0 1.635.363q1.599 0 2.698-.573a5.4 5.4 0 0 0 1.833-1.54l-6.422-7.533a5.4 5.4 0 0 0-1.034 1.057q-.405.556-.638 1.177a5.8 5.8 0 0 0-.323 1.307q-.088.684-.087 1.444m6.583-12.646a6 6 0 0 0-.095-1.081 2.5 2.5 0 0 0-.33-.871 1.6 1.6 0 0 0-.645-.58q-.411-.21-1.041-.21-.499 0-.873.21t-.609.58-.351.879a5 5 0 0 0-.118 1.105q0 .565.118 1.081t.344 1.024.58 1.024q.351.516.82 1.097.63-.387 1.056-.823.425-.435.674-.943t.36-1.122.11-1.37" fill="#d3d4de" fill-rule="nonzero"/>
        <path d="M447.536 110.481q0 1.484-.469 2.855a6.2 6.2 0 0 1-1.525 2.42q-1.056 1.048-2.743 1.668-1.686.621-4.12.622h-1.026v5.29q0 .645.132 1.04t.352.597.512.266q.294.066.602.065h1.833v1.758h-10.967v-1.758h1.26q.337 0 .616-.073a1 1 0 0 0 .484-.298q.205-.225.322-.645t.118-1.13v-15.92q0-.66-.118-1.056-.117-.395-.33-.604a1.1 1.1 0 0 0-.491-.283 2.4 2.4 0 0 0-.6-.072h-1.261v-1.743h9.222q2.084 0 3.621.484 1.54.484 2.56 1.396a5.65 5.65 0 0 1 1.518 2.201q.498 1.29.498 2.92m-9.883 5.645h.733q1.113 0 1.892-.306.776-.308 1.268-.968.49-.66.719-1.71.226-1.048.227-2.532 0-1.322-.198-2.298-.199-.977-.63-1.613a2.66 2.66 0 0 0-1.13-.952q-.696-.314-1.708-.314h-1.173z" fill="#d3d4de" fill-rule="nonzero"/>
        <path d="M449.282 125.304h1.26q.31 0 .587-.065.28-.065.491-.266.213-.202.337-.597t.125-1.04v-16.098q0-.66-.125-1.056-.124-.395-.337-.604a1.1 1.1 0 0 0-.491-.283 2.3 2.3 0 0 0-.586-.072h-1.261v-1.743h9.677q4.253 0 6.24 1.565 1.986 1.564 1.986 4.549 0 1.306-.351 2.322a6.3 6.3 0 0 1-.932 1.774 6.2 6.2 0 0 1-1.312 1.283q-.734.524-1.496.863l3.578 6.774q.38.71.74 1.218t.719.839q.36.33.74.484.382.152.807.153h.117v1.758h-.983q-1.348 0-2.353-.113t-1.76-.443a4 4 0 0 1-1.304-.912q-.55-.58-1.02-1.5l-3.563-7.275h-1.994v6.517q0 .645.125 1.04.124.395.337.597t.491.266q.28.066.587.065h1.29v1.758h-10.366zm7.536-10.404h1.686q1.042 0 1.738-.306a2.6 2.6 0 0 0 1.115-.912q.418-.604.6-1.516.184-.91.184-2.12 0-1.258-.205-2.13-.205-.87-.646-1.427a2.5 2.5 0 0 0-1.143-.807q-.703-.25-1.701-.25h-1.628z" fill="#d3d4de" fill-rule="nonzero"/>
        <path d="M491.057 115.239q0 2.725-.666 4.968-.668 2.242-1.966 3.839a8.8 8.8 0 0 1-3.182 2.467q-1.883.872-4.332.872-2.566 0-4.48-.872a8.4 8.4 0 0 1-3.175-2.467q-1.26-1.597-1.89-3.847t-.631-4.993q0-2.741.63-4.975t1.9-3.815a8.5 8.5 0 0 1 3.181-2.444q1.913-.862 4.494-.862 2.434 0 4.319.862a8.7 8.7 0 0 1 3.174 2.452q1.29 1.589 1.958 3.823.666 2.234.666 4.992m-15.278 0q0 2.371.278 4.226.279 1.854.894 3.137.617 1.282 1.591 1.96.975.677 2.37.677 1.406 0 2.382-.678.974-.676 1.576-1.96.6-1.281.873-3.136.27-1.856.27-4.226 0-2.372-.27-4.226-.272-1.855-.873-3.137t-1.569-1.952-2.36-.67q-1.409 0-2.392.67-.98.67-1.598 1.952-.615 1.282-.894 3.137-.278 1.854-.278 4.226" fill="#d3d4de" fill-rule="nonzero"/>
        <path d="M503.434 105.223h-1.26q-.324 0-.61.072a.97.97 0 0 0-.49.299q-.206.225-.33.645t-.125 1.129v19.759q0 1.5-.308 2.661a7.6 7.6 0 0 1-.85 2.04 5.7 5.7 0 0 1-1.299 1.484 6.8 6.8 0 0 1-1.641.975 8.6 8.6 0 0 1-1.878.541q-.99.17-2.015.17h-1.086v-1.92h.543q.72 0 1.4-.299.681-.298 1.21-.991t.85-1.83q.322-1.14.322-2.799v-19.92q0-.662-.116-1.057-.118-.395-.33-.604a1.1 1.1 0 0 0-.491-.283 2.3 2.3 0 0 0-.587-.072h-1.261v-1.743h10.352z" fill="#d3d4de" fill-rule="nonzero"/>
        <path d="M512.174 125.046h6.012q.454 0 .777-.186.322-.186.558-.524a2.9 2.9 0 0 0 .374-.798q.138-.46.212-1.009l.234-1.548h2.082l-.22 6.08h-17.595v-1.757h1.26q.324 0 .602-.065.28-.065.491-.266.214-.202.33-.597.118-.395.118-1.04v-15.968q0-.71-.117-1.13-.118-.418-.323-.644a1 1 0 0 0-.484-.299 2.4 2.4 0 0 0-.616-.072h-1.261v-1.743h16.672l.117 6.082H519.3l-.146-1.565q-.118-1.21-.558-1.855-.438-.645-1.363-.645h-5.06v8.258h7.127v1.984h-7.126z" fill="#d3d4de" fill-rule="nonzero"/>
        <path d="M536.134 124.755q1.1 0 1.958-.282a6.3 6.3 0 0 0 1.533-.734q.674-.451 1.18-1.016.506-.564.887-1.112.235.192.373.596.14.403.14.822 0 .695-.337 1.46-.338.767-1.13 1.411-.79.645-2.097 1.065-1.304.42-3.225.42-2.61 0-4.56-.872-1.95-.87-3.24-2.467t-1.936-3.84q-.645-2.241-.645-4.967 0-2.678.66-4.904t1.957-3.822a8.84 8.84 0 0 1 3.24-2.484q1.943-.887 4.495-.887 1.73 0 3.013.299 1.283.297 2.133.814t1.276 1.217q.425.702.425 1.51 0 .611-.242 1.135-.24.526-.719.912-.475.387-1.18.605-.702.218-1.613.218 0-.824-.16-1.637a4.7 4.7 0 0 0-.55-1.476 3.2 3.2 0 0 0-1.02-1.072q-.63-.412-1.569-.412-1.422 0-2.404.66-.982.662-1.577 1.937-.593 1.274-.858 3.137-.264 1.863-.263 4.25 0 2.388.322 4.177.322 1.791 1.041 2.976.719 1.187 1.87 1.775 1.15.588 2.822.588" fill="#d3d4de" fill-rule="nonzero"/>
        <path d="M555.622 123.159q0 .709.118 1.13.117.418.33.644.213.225.491.298t.602.073h1.26v1.758h-10.367v-1.758h1.261q.337 0 .616-.073a1 1 0 0 0 .484-.298q.206-.225.323-.645t.118-1.13v-17.661h-2.406q-.675 0-1.129.162-.455.16-.74.458-.285.3-.425.735t-.198.984l-.205 2.049h-2.024l.161-6.405h18.71l.147 6.405h-2.009l-.22-2.05a5 5 0 0 0-.198-.983 1.9 1.9 0 0 0-.425-.735 1.9 1.9 0 0 0-.74-.458q-.455-.163-1.13-.162h-2.405z" fill="#d3d4de" fill-rule="nonzero"/>
        <path d="M571.69 127.062v-1.758h1.26q.337 0 .616-.073a1 1 0 0 0 .484-.298q.206-.225.323-.645t.118-1.13v-15.79q0-.71-.118-1.13-.117-.418-.323-.644a1 1 0 0 0-.484-.299 2.4 2.4 0 0 0-.616-.072h-1.26v-1.743h10.367v1.743h-1.261q-.308 0-.595.072-.286.073-.49.283-.206.209-.33.604-.126.395-.126 1.056v17.808h5.587q1.056 0 1.643-.735.585-.733.85-2.136l.484-2.485h1.686l-.22 7.372z" fill="#d3d4de" fill-rule="nonzero"/>
        <path d="M598.89 125.046h6.013q.455 0 .777-.186.321-.186.557-.524.234-.338.374-.798.138-.46.212-1.009l.235-1.548h2.082l-.22 6.08h-17.595v-1.757h1.26q.323 0 .602-.065t.491-.266.33-.597.117-1.04v-15.968q0-.71-.117-1.13-.118-.418-.323-.644a1 1 0 0 0-.484-.299 2.4 2.4 0 0 0-.616-.072h-1.26v-1.743h16.672l.117 6.082h-2.097l-.147-1.565q-.117-1.21-.557-1.855t-1.363-.645h-5.06v8.258h7.127v1.984h-7.127z" fill="#d3d4de" fill-rule="nonzero"/>
        <path d="m616.634 119.304-.865 2.838q-.117.404-.242.944t-.125.944q0 .322.118.564.116.241.308.395.19.153.432.234.242.08.505.08h1.262v1.759h-7.816v-1.758h.367q.396 0 .726-.097a1.5 1.5 0 0 0 .616-.363q.285-.266.543-.734a8.5 8.5 0 0 0 .52-1.21l6.51-19.42h4.12l6.276 19.453q.22.694.462 1.153t.528.726q.285.266.609.378.323.114.674.114h.542v1.758h-9.912v-1.758h1.174q.218 0 .454-.073.234-.073.418-.226t.3-.395a1.3 1.3 0 0 0 .118-.58q0-.405-.088-.775a9 9 0 0 0-.176-.645l-1.056-3.306zm5.117-7.436a146 146 0 0 1-.666-2.452 68 68 0 0 1-.323-1.282q-.155-.637-.272-1.218-.131.501-.308 1.097-.176.597-.373 1.225l-.396 1.26q-.199.629-.374 1.208l-1.774 5.581h6.07z" fill="#d3d4de" fill-rule="nonzero"/>
        <path d="M654.084 114.836q0 2.71-.674 4.96-.675 2.25-2.017 3.862a9.15 9.15 0 0 1-3.328 2.509q-1.988.894-4.611.895h-9.912v-1.758h1.26q.337 0 .616-.073a1 1 0 0 0 .484-.298q.205-.225.322-.645.119-.42.118-1.13v-15.92q0-.66-.118-1.056-.116-.395-.329-.604a1.1 1.1 0 0 0-.492-.283 2.4 2.4 0 0 0-.6-.072h-1.261v-1.743h9.912q2.493 0 4.465.718 1.97.72 3.343 2.145 1.37 1.428 2.096 3.557t.726 4.936m-5.073 0q0-4.725-1.576-7.033-1.577-2.306-4.641-2.306h-1.716v19.516h1.686q1.54 0 2.713-.702 1.173-.7 1.958-2.023t1.18-3.202.396-4.25" fill="#d3d4de" fill-rule="nonzero"/>
        <path d="M664.144 125.046h6.011q.456 0 .778-.186.323-.186.557-.524a2.9 2.9 0 0 0 .374-.798 6.4 6.4 0 0 0 .213-1.009l.234-1.548h2.083l-.22 6.08h-17.596v-1.757h1.261q.323 0 .6-.065.28-.065.492-.266.213-.202.33-.597t.117-1.04v-15.968q0-.71-.117-1.13-.117-.418-.322-.644a1 1 0 0 0-.484-.299 2.4 2.4 0 0 0-.616-.072h-1.26v-1.743h16.67l.118 6.082h-2.097l-.146-1.565q-.118-1.21-.557-1.855-.441-.645-1.364-.645h-5.059v8.258h7.126v1.984h-7.126z" fill="#d3d4de" fill-rule="nonzero"/>
        <path d="M676.183 125.304h1.26q.309 0 .588-.065t.491-.266.338-.597.124-1.04v-16.098q0-.66-.124-1.056-.125-.395-.338-.604a1.1 1.1 0 0 0-.49-.283 2.3 2.3 0 0 0-.588-.072h-1.261v-1.743h9.678q4.253 0 6.24 1.565 1.985 1.564 1.985 4.549 0 1.306-.351 2.322a6.3 6.3 0 0 1-.93 1.774 6.2 6.2 0 0 1-1.313 1.283 8.5 8.5 0 0 1-1.496.863l3.578 6.774q.38.71.74 1.218t.718.839q.36.33.741.484.382.152.807.153h.117v1.758h-.982q-1.35 0-2.354-.113t-1.76-.443a4 4 0 0 1-1.304-.912q-.55-.58-1.02-1.5l-3.563-7.275h-1.994v6.517q0 .645.125 1.04.124.395.337.597.212.201.491.266.279.066.587.065h1.29v1.758h-10.367zm7.537-10.404h1.687q1.04 0 1.737-.306a2.6 2.6 0 0 0 1.114-.912q.419-.604.602-1.516.182-.91.183-2.12 0-1.258-.205-2.13-.206-.87-.646-1.427a2.5 2.5 0 0 0-1.144-.807q-.704-.25-1.7-.25h-1.628z" fill="#d3d4de" fill-rule="nonzero"/>
        <path d="M704.513 127.385q-2.024 0-3.372-.42-1.35-.42-2.163-1.08-.814-.662-1.159-1.485a4.2 4.2 0 0 1-.344-1.629q0-.855.285-1.435.288-.581.763-.952.477-.37 1.086-.532a5 5 0 0 1 1.267-.162q.001 1.42.308 2.493.31 1.072.851 1.79.543.718 1.298 1.08a3.76 3.76 0 0 0 1.65.363q.879 0 1.569-.273.69-.275 1.172-.759.484-.484.733-1.137.25-.653.25-1.41 0-.84-.308-1.493a3.8 3.8 0 0 0-.931-1.21q-.623-.557-1.569-1.064-.945-.509-2.207-1.09-1.568-.709-2.646-1.459-1.08-.75-1.738-1.621a5.6 5.6 0 0 1-.946-1.887 8.2 8.2 0 0 1-.286-2.226q0-1.516.557-2.742a6.2 6.2 0 0 1 1.54-2.096 6.8 6.8 0 0 1 2.332-1.34q1.349-.467 2.932-.467 1.656 0 2.86.299 1.2.297 1.986.814.785.516 1.166 1.217t.38 1.51q.001.58-.226 1.08a2.4 2.4 0 0 1-.69.87q-.462.372-1.157.58-.697.21-1.62.21 0-.692-.17-1.491a5.3 5.3 0 0 0-.55-1.484 3.5 3.5 0 0 0-.989-1.137q-.609-.453-1.473-.452a3.4 3.4 0 0 0-1.145.194 2.6 2.6 0 0 0-.946.58 2.8 2.8 0 0 0-.638.96q-.234.573-.234 1.315 0 .694.205 1.306.207.614.755 1.202.55.588 1.511 1.177t2.486 1.267q1.538.693 2.624 1.418 1.084.726 1.782 1.557a5.4 5.4 0 0 1 1.011 1.823q.315.992.315 2.201 0 1.597-.572 2.928a6.4 6.4 0 0 1-1.641 2.283q-1.071.952-2.574 1.483-1.502.533-3.38.533" fill="#d3d4de" fill-rule="nonzero"/>
        <path d="M24.815 44.42v18.634q0 5.394.661 6.792.662 1.398 2.33 2.232 1.667.833 6.227.834v1.813H0v-1.813q4.61 0 6.253-.86 1.644-.856 2.305-2.23t.662-6.768V19.899q0-5.395-.662-6.792-.661-1.399-2.329-2.232T0 10.041V8.227h30.896q12.064 0 17.654 1.668 5.591 1.665 9.122 6.154 3.531 4.486 3.531 10.519 0 7.357-5.296 12.162-3.385 3.041-9.465 4.561l15.987 22.51q3.139 4.365 4.463 5.443 2.01 1.521 4.659 1.668v1.813H50.61L29.177 44.42zm0-32.613v29.13h2.795q6.815 0 10.2-1.25t5.32-4.512q1.938-3.26 1.938-8.509 0-7.601-3.556-11.23t-11.45-3.63z" fill="#27306a" fill-rule="nonzero"/>
        <path d="M85.08 6.658q3.187 0 5.394 2.231 2.206 2.231 2.206 5.37t-2.23 5.346q-2.232 2.206-5.37 2.206t-5.346-2.206-2.206-5.346 2.206-5.37q2.208-2.23 5.346-2.231m6.865 22.215v36.34q0 4.853 1.128 6.203 1.129 1.348 4.414 1.545v1.764H72.721v-1.764q3.041-.099 4.513-1.766.98-1.128.98-5.983V38.436q0-4.855-1.128-6.204t-4.365-1.544v-1.815z" fill="#27306a" fill-rule="nonzero"/>
        <path d="m139.363 62.907 1.52 1.177q-3.238 6.08-8.068 9.049-4.83 2.966-10.273 2.966-9.172 0-14.664-6.915-5.493-6.915-5.492-16.625 0-9.366 5.002-16.477 6.033-8.583 16.624-8.582 7.11 0 11.304 3.58 4.193 3.58 4.193 7.993 0 2.796-1.691 4.463-1.693 1.668-4.438 1.668-2.894 0-4.782-1.913-1.888-1.912-2.33-6.816-.294-3.091-1.422-4.316-1.127-1.227-2.648-1.226-2.355 0-4.021 2.5-2.55 3.777-2.55 11.575 0 6.472 2.06 12.382t5.64 8.802q2.696 2.11 6.374 2.11a9.7 9.7 0 0 0 4.56-1.128q2.16-1.13 5.102-4.267" fill="#27306a" fill-rule="nonzero"/>
        <path d="M165.25 8.227v26.531q3.777-3.972 6.915-5.615t6.523-1.643q4.315 0 7.38 2.451 3.065 2.453 4.07 5.763t1.006 11.157v17.9q0 5.246.98 6.547.981 1.3 3.973 1.643v1.764h-23.245v-1.764q2.452-.344 3.678-1.962.882-1.275.882-6.229V44.32q0-5.688-.44-7.134-.442-1.447-1.497-2.257a3.8 3.8 0 0 0-2.378-.808q-1.961-.001-3.825 1.348-1.863 1.349-4.021 4.732v24.57q0 4.904.735 6.13.932 1.668 3.826 2.06v1.764h-23.246v-1.764q2.894-.295 4.12-1.864.833-1.08.833-6.327V18.183q-.001-5.2-.956-6.475-.957-1.274-3.997-1.667V8.227z" fill="#27306a" fill-rule="nonzero"/>
        <path d="M221.397 28.873v6.032q3.775-4.12 6.988-5.762 3.212-1.643 7.037-1.643 4.413 0 7.406 2.06 2.99 2.06 4.609 6.277 3.924-4.414 7.527-6.376 3.606-1.96 7.529-1.961 4.756 0 7.577 2.182 2.819 2.183 3.923 5.541 1.103 3.36 1.103 10.716v18.783q0 5.294.957 6.572.956 1.274 3.996 1.667v1.764h-23.687v-1.764q2.796-.245 4.12-2.159.883-1.324.883-6.08V45.008q0-6.13-.491-7.798-.49-1.668-1.545-2.477-1.054-.81-2.476-.81-2.109 0-4.267 1.546-2.157 1.545-4.364 4.634v24.62q0 4.95.834 6.227 1.127 1.815 4.315 2.01v1.765h-23.735v-1.764q1.912-.1 3.016-.956 1.102-.86 1.471-2.06.368-1.202.368-5.223V45.008q0-6.228-.491-7.798-.49-1.57-1.643-2.452-1.152-.883-2.476-.883-1.962 0-3.58 1.03-2.306 1.52-4.904 5.198v24.62q0 4.852.956 6.399.957 1.544 3.996 1.839v1.764h-23.637v-1.764q2.894-.295 4.12-1.864.833-1.08.834-6.375V38.828q0-5.198-.957-6.473-.956-1.275-3.997-1.667v-1.815z" fill="#27306a" fill-rule="nonzero"/>
        <path d="M307.654 27.5q5.982 0 11.132 3.09t7.822 8.777q2.672 5.69 2.672 12.457 0 9.76-4.952 16.33Q318.344 76.1 307.8 76.1q-10.348 0-15.939-7.258t-5.59-16.82q0-9.858 5.714-17.19 5.712-7.331 15.668-7.331m.195 3.482q-2.5 0-4.29 1.888t-2.354 7.454-.564 15.472q.001 5.248.686 9.808.54 3.483 2.305 5.297 1.766 1.815 4.022 1.815 2.206 0 3.677-1.227 1.914-1.666 2.55-4.659.981-4.657.982-18.831 0-8.337-.932-11.451-.931-3.114-2.746-4.537-1.275-1.03-3.336-1.03" fill="#27306a" fill-rule="nonzero"/>
        <path d="M354.973 28.873v5.934q3.531-3.825 6.767-5.567 3.238-1.74 6.964-1.74 4.463 0 7.405 2.477t3.923 6.154q.784 2.795.784 10.74v17.851q0 5.295.958 6.596.956 1.3 3.996 1.643v1.764h-23.197v-1.764q2.6-.344 3.728-2.159.785-1.226.785-6.08V44.321q0-5.64-.442-7.111-.44-1.47-1.495-2.281-1.055-.809-2.33-.808-4.218 0-7.846 6.032v24.57q0 5.147.956 6.521t3.555 1.717v1.764H336.29v-1.764q2.892-.295 4.118-1.864.834-1.08.834-6.375V38.828q0-5.198-.956-6.473-.957-1.275-3.996-1.667v-1.815z" fill="#27306a" fill-rule="nonzero"/>
        <path d="M436.668 8.227v52.768q0 5.344.295 6.325.392 1.619 1.496 2.404 1.103.784 3.85.981v1.618l-19.371 3.776v-7.258q-3.483 4.218-6.204 5.738-2.722 1.52-6.155 1.52-8.778 0-13.878-7.847-4.12-6.376-4.12-15.643 0-7.406 2.55-13.266t6.989-8.851 9.538-2.992q3.286 0 5.836 1.275t5.444 4.463v-13.83q0-5.247-.442-6.326-.587-1.421-1.766-2.109-1.176-.687-4.413-.687V8.227zm-13.73 31.092q-3.63-6.964-8.877-6.964-1.815 0-2.992.981-1.814 1.52-2.966 5.345t-1.152 11.721q0 8.68 1.274 12.849t3.482 6.032q1.129.93 3.09.93 4.315 0 8.14-6.766z" fill="#27306a" fill-rule="nonzero"/>
        <path d="M477.355 66.083v-30.59h-30.528v-5.026h30.528V0h4.904v30.466h30.65v5.026h-30.65v30.59z" fill="#df2128" fill-rule="nonzero"/>
        <path d="M542.033 44.42v18.634q0 5.394.662 6.792t2.33 2.232q1.666.833 6.228.834v1.813h-34.035v-1.813q4.61 0 6.253-.86 1.642-.856 2.305-2.23.662-1.374.662-6.768V19.899q0-5.395-.662-6.792-.662-1.399-2.33-2.232-1.666-.834-6.228-.834V8.227h30.896q12.064 0 17.655 1.668 5.59 1.665 9.121 6.154 3.531 4.486 3.531 10.519 0 7.357-5.297 12.162-3.382 3.041-9.465 4.561l15.988 22.51q3.139 4.365 4.463 5.443 2.01 1.521 4.658 1.668v1.813h-20.94l-21.43-30.306zm0-32.613v29.13h2.795q6.817 0 10.201-1.25t5.32-4.512q1.938-3.26 1.937-8.509 0-7.601-3.555-11.23t-11.45-3.63z" fill="#27306a" fill-rule="nonzero"/>
        <path d="M612.892 27.5q5.982 0 11.132 3.09t7.822 8.777q2.672 5.69 2.672 12.457 0 9.76-4.953 16.33-5.982 7.945-16.527 7.945-10.346 0-15.938-7.258-5.59-7.258-5.59-16.82 0-9.858 5.713-17.19 5.713-7.331 15.669-7.331m.195 3.482q-2.5 0-4.291 1.888-1.79 1.888-2.353 7.454-.565 5.566-.565 15.472 0 5.248.687 9.808.54 3.483 2.305 5.297 1.765 1.815 4.022 1.815 2.205 0 3.678-1.227 1.912-1.666 2.55-4.659.98-4.657.98-18.831 0-8.337-.931-11.451-.933-3.114-2.747-4.537-1.275-1.03-3.335-1.03" fill="#27306a" fill-rule="nonzero"/>
        <path d="m670.46 27.598.735 15.644h-1.667q-2.993-6.964-6.204-9.514t-6.4-2.55q-2.01 0-3.433 1.349-1.422 1.349-1.422 3.113 0 1.325.982 2.551 1.568 2.01 8.778 6.89 7.207 4.879 9.489 8.288 2.28 3.408 2.28 7.626 0 3.825-1.913 7.502-1.912 3.679-5.394 5.64-3.481 1.963-7.7 1.962-3.285 0-8.777-2.06-1.473-.54-2.011-.539-1.618 0-2.698 2.452h-1.618l-.784-16.478h1.667q2.207 6.474 6.056 9.71t7.283 3.237q2.354 0 3.85-1.447 1.496-1.446 1.496-3.506 0-2.355-1.472-4.07-1.47-1.716-6.571-5.2-7.504-5.197-9.71-7.944-3.237-4.02-3.237-8.876 0-5.295 3.654-9.588 3.653-4.29 10.568-4.29 3.727 0 7.209 1.815 1.325.735 2.157.735.884 0 1.422-.368.54-.368 1.717-2.084z" fill="#27306a" fill-rule="nonzero"/>
        <path d="m709.54 27.598.735 15.644h-1.667q-2.991-6.964-6.204-9.514-3.211-2.55-6.4-2.55-2.01 0-3.432 1.349t-1.422 3.113q0 1.325.98 2.551 1.57 2.01 8.779 6.89 7.208 4.879 9.489 8.288 2.28 3.408 2.28 7.626 0 3.825-1.912 7.502-1.913 3.679-5.395 5.64-3.48 1.963-7.7 1.962-3.284 0-8.777-2.06-1.472-.54-2.01-.539-1.62 0-2.699 2.452h-1.618l-.784-16.478h1.667q2.207 6.474 6.056 9.71t7.283 3.237q2.354 0 3.85-1.447 1.495-1.446 1.495-3.506 0-2.355-1.47-4.07-1.472-1.716-6.572-5.2-7.504-5.197-9.71-7.944-3.237-4.02-3.237-8.876 0-5.295 3.654-9.588 3.654-4.29 10.568-4.29 3.728 0 7.209 1.815 1.325.735 2.157.735.883 0 1.423-.368t1.716-2.084z" fill="#27306a" fill-rule="nonzero"/>
    </g>
</svg>
