<?xml version="1.0" encoding="UTF-8" standalone="no"?><!DOCTYPE svg PUBLIC "-//W3C//DTD SVG 1.1//EN" "http://www.w3.org/Graphics/SVG/1.1/DTD/svg11.dtd"><svg width="100%" height="100%" viewBox="0 0 2400 2438" version="1.1" xmlns="http://www.w3.org/2000/svg" xmlns:xlink="http://www.w3.org/1999/xlink" xml:space="preserve" xmlns:serif="http://www.serif.com/" style="fill-rule:evenodd;clip-rule:evenodd;stroke-linejoin:round;stroke-miterlimit:2;"><g><path d="M1198.71,445.833c448.125,0 844.084,128.292 1083.33,324.5l-0,-770.333l-2140.38,-0l-0,749.667c241.041,-184.625 624.75,-303.834 1057.04,-303.834"/><path d="M1198.71,1966.67c-432.291,-0 -816,-119.417 -1057.17,-304.167l-0,773l2140.33,0l0,-793.125c-239.083,196.167 -635.042,324.292 -1083.17,324.292"/><path d="M1198.71,516.667c-662,-0 -1198.71,308.625 -1198.71,689.583c0,380.958 536.708,689.917 1198.71,689.917c662,-0 1199.04,-308.667 1199.04,-689.917c0,-381.25 -536.667,-689.583 -1199.04,-689.583m-385.125,580.625l-201.541,-0.834c-1.167,-45.125 -30.042,-86.208 -70.834,-108.083c-34.25,-11.042 -68.5,1.333 -95.833,20.542c-57.875,64.333 -46.708,161.583 -42.5,246.458c-0,58.958 24.542,116.292 75,146.542c52.125,13.541 106.958,-2.834 130.333,-50.792c2.667,-15.042 10.709,-27.25 8.334,-45.125l-108.209,0l0,-142.375l304.167,0l0,387.5l-95.833,0c-15.042,-21.875 -16.667,-51.958 -32.917,-73.875c-72.542,83.75 -201.208,100 -305.292,65.667c-135.5,-43.75 -193,-185.959 -200,-316.125c-4.166,-131.5 28.584,-250.459 132.834,-334c135.333,-91.667 351.541,-71.209 455.833,62.833c25.708,36.75 49.542,88.375 46.458,141.667m687.125,453.625l-204.166,-0l-0,-275.917l-175.625,0.792l0.541,275l-209.416,-0l-0,-700.792l209.416,0l0,254.667l174.584,0.666l0.5,-255.333l204.166,0l0,700.917Zm667.959,-124.625c-79.709,107.958 -193.459,123.5 -319.792,124c-56.5,1.833 -238.625,2.833 -236.125,0.666l-0,-702.291c81.042,-0 175.958,-1.834 265.875,-0.834c118.958,1.167 230.083,20.834 294.25,132.334c84.875,123.166 82.042,324.333 -4.208,446.125"/><path d="M1959.17,1043.17c43.916,47.791 56.291,110.791 54.958,179.166c-3.564,49.51 -21.188,96.99 -50.792,136.834c-38.291,31.416 -83.541,43.958 -136.875,38.458l0,-396.917c53.334,-8.333 95.917,10.875 132.709,42.459"/></g></svg>