<?xml version="1.0" encoding="UTF-8"?>
<svg data-bbox="0 -0.135 2500 452.597" xmlns="http://www.w3.org/2000/svg" viewBox="0 0 2500 453" fill-rule="evenodd" clip-rule="evenodd" stroke-linejoin="round" stroke-miterlimit="2" data-type="ugc">
    <g>
        <path d="M2500 123.933c-3.031 1.917-2.289 5.566-2.722 8.101a154.6 154.6 0 0 1-27.953 65.12 157.1 157.1 0 0 1-52.628 45.888 183.1 183.1 0 0 1-54.298 19.666 180.5 180.5 0 0 1-34.2 3.587h-106.37c-.865-7.174 2.35-13.729 3.155-20.593a201 201 0 0 1 4.39-21.522c1.485-6.864 3.155-13.729 4.948-21.336h97.836a118.8 118.8 0 0 0 37.476-6.184 74.25 74.25 0 0 0 41.497-33.21 83.8 83.8 0 0 0 13.11-46.505c-.036-21.132-14.91-39.543-35.559-44.033a92.4 92.4 0 0 0-25.665-3.092h-28.2c-6.865 32.715-13.667 65.06-20.408 97.403h-72.666c11.318-54.422 22.511-108.225 34.076-162.338h8.41c32.963 0 65.987-.433 98.949 0a151.1 151.1 0 0 1 65.553 14.348 88.13 88.13 0 0 1 48.485 59.864c.619 2.597 0 6.184 2.783 8.04z" fill="#fada20" fill-rule="nonzero"/>
        <path d="M0 264.625a81 81 0 0 0 2.845-9.029c3.401-16.326 6.555-32.653 9.895-49.474h72.418c-.619 3.958-.99 7.854-1.794 11.688-3.03 14.843-6.184 29.685-9.214 44.527a4.1 4.1 0 0 1-4.639 3.896H0z" fill="#fada20" fill-rule="nonzero"/>
        <path d="M2208.595 167.037h-77.056c2.041-4.205 3.71-7.854 5.442-11.44a77.4 77.4 0 0 0 8.968-40.384c-1.732-21.212-10.823-38.219-32.035-45.764a60.2 60.2 0 0 0-29.004-3.092 82.08 82.08 0 0 0-50.711 26.902 90.76 90.76 0 0 0-22.944 47.062 61.86 61.86 0 0 0 3.772 36.488 46.42 46.42 0 0 0 34.941 27.705 101.5 101.5 0 0 0 19.79 1.36h115.275a62 62 0 0 1-4.081 6.185 194 194 0 0 1-35.931 30.921 174.3 174.3 0 0 1-42.857 20.903 157 157 0 0 1-35.003 6.927 144.4 144.4 0 0 1-23.686 1.113c-31.293-2.103-59.74-11.38-81.818-35.065a100.7 100.7 0 0 1-24.737-45.702 117.6 117.6 0 0 1-2.783-38.775 141.3 141.3 0 0 1 12.368-47.434 182 182 0 0 1 24.737-40.26 182.4 182.4 0 0 1 59.803-47.433 179.3 179.3 0 0 1 45.701-15.275 188 188 0 0 1 39.085-1.794 113.3 113.3 0 0 1 62.709 20.408 98.98 98.98 0 0 1 40.136 58.504 122.5 122.5 0 0 1 2.721 42.61 108.35 108.35 0 0 1-12.802 45.33" fill="#fada20" fill-rule="nonzero"/>
        <path d="M1636.982 205.998h123.129a75.45 75.45 0 0 0 44.032-15.027 86.6 86.6 0 0 0 28.448-34.509 77.77 77.77 0 0 0 8.472-42.053c-2.226-20.903-11.75-37.106-32.282-45.207a62.83 62.83 0 0 0-38.157-1.917 81.23 81.23 0 0 0-39.023 22.51 88.7 88.7 0 0 0-24.737 47.929 95.4 95.4 0 0 0 0 28.757 756 756 0 0 1-76.438.618 49.4 49.4 0 0 1 0-17.378 176 176 0 0 1 7.236-31.725 174.7 174.7 0 0 1 26.84-49.474 181.16 181.16 0 0 1 75.139-56.587 159 159 0 0 1 39.517-10.451c11.435-1.521 23-1.874 34.509-1.051a112.28 112.28 0 0 1 74.52 32.158 97.1 97.1 0 0 1 25.789 47.68 104.2 104.2 0 0 1 3.03 31.85 160.8 160.8 0 0 1-20.532 69.264 182.8 182.8 0 0 1-36.487 45.145 178.3 178.3 0 0 1-47.99 30.922 159.7 159.7 0 0 1-35.312 11.193c-6.185 1.052-12.369 1.732-18.12 2.474-4.515.557-9.091 1.175-13.606 1.299-3.03 0-6.184-1.052-9.029-1.113a112.64 112.64 0 0 1-66.172-22.202 92.8 92.8 0 0 1-32.776-43.105" fill="#fada20" fill-rule="nonzero"/>
        <path d="M1264.13 68.46h-83.673c-7.174 0-7.359 0-8.905 6.926-3.092 13.791-6.184 27.644-8.905 41.497-3.154 15.337-6.185 30.921-9.462 46.073a16.4 16.4 0 0 1-1.918 4.081h-71.8c6.804-32.776 13.544-65.12 20.347-97.835a107 107 0 0 0-19.728-.68h-58.441c4.514-21.522 8.781-42.177 13.172-63.204h292.765c.742 8.287 1.298 16.389 2.164 24.737.866 8.35 1.917 16.636 2.845 24.738.618 6.184 1.113 12.368 1.546 18.552.68 8.658.99 17.316 1.855 25.974 1.299 13.668 2.969 27.273 4.33 40.879.803 8.905 1.298 17.748 1.916 27.149h-65.058c-1.052-6.618-2.227-13.544-3.154-20.532a2579 2579 0 0 1-4.577-35.498c-1.237-10.328-2.164-20.717-3.34-30.922-.432-4.081-1.174-7.483-1.978-11.935" fill="#fada20" fill-rule="nonzero"/>
        <path d="M1442.795 166.852c-2.288-15.956-4.577-31.478-6.988-47.928-4.639 8.101-8.968 15.522-13.173 23.005s-7.545 13.235-10.884 20.1a8.56 8.56 0 0 1-8.906 5.503h-59.554c3.896-7.545 7.42-14.471 11.008-21.336l27.829-52.566a27895 27895 0 0 0 44.403-84.354c1.423-2.721 2.66-4.453 6.184-4.453h56.401s.433.31 1.052.804c.618 6.185 1.175 12.678 1.855 19.234.927 8.286 1.979 16.635 2.845 24.737.68 6.184 1.175 12.368 1.607 18.553.619 8.163 1.052 16.326 1.794 24.428.742 8.1 1.979 15.646 2.783 23.438.68 6.184 1.175 12.369 1.608 18.553.68 8.905 1.175 17.81 1.917 26.778.346 1.818.86 3.6 1.546 5.318 2.907-5.256 5.38-9.462 7.545-13.79 17.625-35.004 35.065-70.069 52.752-105.134 7.112-14.038 14.595-27.89 22.201-42.362h73.903c-4.7 8.905-8.968 17.192-13.482 25.417-4.515 8.226-9.71 17.255-14.41 25.974-12.368 23.315-24.737 46.63-37.476 69.945-6.617 12.368-13.482 24.737-19.914 37.106a6.2 6.2 0 0 1-6.184 3.957h-125.974a7.5 7.5 0 0 1-2.288-.927" fill="#fada20" fill-rule="nonzero"/>
        <path d="M537.044 5.195h209.462c-4.268 20.531-8.535 40.692-12.802 61.286h-137.91c-3.834 13.11-5.813 26.407-8.596 40.321h86.89c-4.33 20.594-8.473 40.507-12.369 60.42H503.587l-.68-.556a1.6 1.6 0 0 1 0-.68A203086 203086 0 0 1 535.62 8.658c.34-1.206.817-2.369 1.423-3.463" fill="#fada20" fill-rule="nonzero"/>
        <path d="M841.063 106.679h84.91a37.4 37.4 0 0 1 0 7.977c-3.339 15.523-6.926 30.922-10.389 46.568a50 50 0 0 0-.495 5.195c-6.184 1.299-141.805 1.793-158.441.618-2.165-4.885.618-9.523 1.484-13.976 4.082-22.14 8.905-44.094 13.667-66.11 4.948-23.191 10.08-46.382 15.09-69.573.866-3.897 1.36-7.916 2.103-12.369h210.266c-1.175 10.76-4.33 20.841-6.185 30.921s-3.958 20.223-6.617 30.489H856.71a19.6 19.6 0 0 0-5.38 0c-1.423.433-3.588 1.67-3.835 2.845-2.35 10.637-4.39 21.336-6.184 31.973a32.7 32.7 0 0 0-.248 5.442" fill="#fada20" fill-rule="nonzero"/>
        <path d="M107.236 106.864h84.972c-2.598 20.718-8.41 40.074-11.627 60.173H22.263c-.37-5.875 8.658-48.052 15.832-80.952 6.185-26.592 11.07-53.432 16.512-80.396 6.185-1.36 183.303-1.917 209.4-.618.65 4.935.031 9.963-1.793 14.595-2.474 14.285-5.751 28.51-8.658 42.424-.866 4.205-1.113 4.638-5.442 4.7H122.14a26 26 0 0 0-5.38 0c-1.3.31-3.34 1.422-3.402 2.412-1.36 12.06-6.184 23.5-6.617 35.807-.062.371.124.557.495 1.855" fill="#fada20" fill-rule="nonzero"/>
        <path d="M481.942 266.11c.742-4.33 1.298-8.04 2.04-11.689 3.03-14.842 6.185-29.622 9.153-44.526.68-3.216 2.165-4.391 5.257-4.144h208.101c-4.329 20.594-8.472 40.445-12.368 60.359z" fill="#fada20" fill-rule="nonzero"/>
        <path d="m734.508 266.295 12.369-60.173h211.688a23.7 23.7 0 0 1 0 5.133c-3.525 16.821-7.236 33.58-10.575 50.402-.68 3.587-2.227 4.886-5.628 4.638H734.446z" fill="#fada20" fill-rule="nonzero"/>
        <path d="M245.454 265.924c1.423-7.483 2.722-14.347 4.144-21.212 2.35-11.379 4.762-22.758 7.05-34.2.866-4.204 1.113-4.514 5.38-4.7h193.507a29.5 29.5 0 0 1-1.855 15.585c-2.722 14.657-6.185 29.19-9.091 43.909-5.937 1.422-171.243 2.102-199.135.618" fill="#fada20" fill-rule="nonzero"/>
        <path d="M299.69 5.195h72.728L338.59 167.099h-72.666c11.256-54.236 22.511-108.04 33.767-161.904" fill="#fada20" fill-rule="nonzero"/>
        <path d="M1281.509 204.823h105.133a21 21 0 0 1-1.114 4.33c-10.451 18.923-20.964 37.785-31.354 56.71a5.39 5.39 0 0 1-5.38 3.277h-58.937a18.7 18.7 0 0 1-1.917-5.01c-1.175-19.789-5.318-39.208-6.431-59.307" fill="#fada20" fill-rule="nonzero"/>
        <path d="M1448.237 205.998h105.813c-11.317 20.965-22.387 41.435-33.333 61.843h-63.822c-2.907-20.717-5.69-40.94-8.658-61.843" fill="#fada20" fill-rule="nonzero"/>
        <path d="m1058.75 266.11 12.369-60.05h72.975c-4.206 20.223-8.35 40.136-12.369 60.05z" fill="#fada20" fill-rule="nonzero"/>
        <path d="M1642.176 342.362h30.922c-1.608 6.184-3.092 11.998-4.7 17.749-5.133 18.553-9.895 37.539-15.646 56.03a48.52 48.52 0 0 1-28.757 32.158 34 34 0 0 1-8.782 2.535 79.4 79.4 0 0 1-32.839-.68c-16.264-3.346-27.7-18.312-26.654-34.88a75.3 75.3 0 0 1 2.226-18.552c4.206-16.821 8.968-33.519 13.544-50.278a30.4 30.4 0 0 1 1.732-4.206h30.426c-4.081 14.966-8.04 29.438-11.874 43.97-1.546 5.628-2.906 11.38-4.143 17.131-2.04 9.091 0 15.523 6.184 18.553 7.397 3.927 16.5 2.894 22.82-2.597a24.7 24.7 0 0 0 7.545-11.441c3.896-14.224 8.04-28.448 11.998-42.734a2262 2262 0 0 1 5.998-22.758" fill="#080a0b" fill-rule="nonzero"/>
        <path d="m1669.758 432.22 20.965-18.553 5.01 3.772a46.77 46.77 0 0 0 23.5 9.153c3.753.464 7.557.062 11.131-1.175a6.2 6.2 0 0 0 4.206-5.857 6.19 6.19 0 0 0-3.278-5.46 150 150 0 0 0-15.337-7.236c-3.958-1.793-7.916-3.525-11.75-5.504-20.47-10.513-17.873-32.838-8.349-44.403a44.66 44.66 0 0 1 31.293-16.141 66.12 66.12 0 0 1 45.454 10.39l3.154 2.164 3.525 2.165a144 144 0 0 1-17.13 20.098c-1.794 1.856-3.711.31-5.566-.742a90.4 90.4 0 0 0-13.42-7.112 22.7 22.7 0 0 0-15.646-1.298 15.7 15.7 0 0 0-4.144 1.855 5.14 5.14 0 0 0-2.85 4.601 5.14 5.14 0 0 0 3.16 4.737c4.205 2.412 8.781 4.144 13.172 6.185 4.39 2.04 10.76 4.638 15.832 7.544 14.842 8.535 17.068 23.81 10.76 38.034a35.34 35.34 0 0 1-24.737 20.222 70.6 70.6 0 0 1-60.791-10.39c-2.722-1.978-4.948-4.39-8.164-7.05" fill="#080a0b" fill-rule="nonzero"/>
        <path d="M1887.26 369.202h-30.922a48 48 0 0 0-5.69 17.068c-5.565 20.1-10.884 40.26-16.326 60.421 0 .928-.68 1.855-1.113 3.154h-30.427l21.584-80.087c-5.566-.556-10.885 0-16.141 0h-15.956l7.36-27.334h94a205 205 0 0 1-6.37 26.778" fill="#080a0b" fill-rule="nonzero"/>
        <path d="M2220.16 450.154h-82.19c9.525-36.054 19.172-71.552 28.82-107.483h30.55c-7.297 27.273-14.41 53.99-21.769 81.385h51.206c-2.35 8.844-4.576 17.13-6.617 26.098" fill="#080a0b" fill-rule="nonzero"/>
        <path d="M2274.706 450.154h-30.365c9.4-36.116 19.11-71.614 28.695-107.36h30.488c-9.585 35.622-19.11 70.997-28.818 107.36" fill="#080a0b" fill-rule="nonzero"/>
        <path d="M2002.473 373.098c-.093-11.806-7.495-22.393-18.553-26.53a66.5 66.5 0 0 0-24.057-4.392h-43.166c-9.71 36.24-19.295 71.8-28.942 107.854h30.488c2.969-10.884 6.184-21.583 8.844-31.91h12.74l13.914 32.034h16.326c5.653.26 11.318.1 16.945-.495l-16.14-35.56c1.978-.68 3.4-1.174 4.761-1.73 19.11-7.236 26.964-19.172 26.84-39.271m-34.323 14.595a23.55 23.55 0 0 1-15.955 6.184 52 52 0 0 1-5.38 0h-13.977c2.474-8.905 4.638-16.945 7.05-25.727a91.4 91.4 0 0 1 23.624 1.052c4.997.822 8.701 5.188 8.701 10.253 0 3.222-1.502 6.271-4.063 8.238" fill="#080a0b" fill-rule="nonzero"/>
        <path d="M2103.153 341.682c-7.977 0-15.399.37-22.82 0a11.28 11.28 0 0 0-11.193 6.184c-18.553 26.902-37.106 53.618-55.659 80.396-4.885 7.112-9.647 14.347-14.966 22.263h29.994a5.38 5.38 0 0 0 4.947-3.03c2.79-3.667 5.368-7.49 7.73-11.441a8.066 8.066 0 0 1 8.906-4.453h35.25c.928 6.556 1.794 12.369 2.66 18.553h31.849c-5.566-36.61-11.008-72.356-16.698-108.472m-42.98 65.862a328 328 0 0 1 19.109-29.87c1.36 10.761 2.474 20.1 3.71 29.87z" fill="#080a0b" fill-rule="nonzero"/>
        <path d="M1523.005 341.682h-22.202c-7.668 0-7.606 0-11.75 6.184l-63.018 90.91c-2.411 3.462-4.638 7.05-7.42 11.378h32.467l9.833-13.667.309-.68a7.626 7.626 0 0 1 8.225-4.206h30.922c1.67 0 3.401 0 5.009.433a1567 1567 0 0 1 2.597 17.873h31.911c-5.69-36.426-11.255-72.109-16.883-108.225m-43.29 65.924c6.555-10.142 12.863-19.79 19.666-30.365 1.36 10.885 2.536 20.409 3.773 30.365z" fill="#080a0b" fill-rule="nonzero"/>
        <path d="M2399.133 341.867h-29.87l-74.582 108.287h33.21l12.368-18.12h41.25c1.05 6.184 2.04 12.369 3.03 18.553h15.831a67 67 0 0 0 15.77-.68 59537 59537 0 0 1-17.007-108.04m-42.176 65.863a123.7 123.7 0 0 1 18.552-28.633c1.237 9.523 2.412 18.553 3.65 28.633z" fill="#080a0b" fill-rule="nonzero"/>
    </g>
</svg>
