<?xml version="1.0" encoding="UTF-8"?>
<svg data-bbox="0 0.002 2000.005 142.135" xmlns="http://www.w3.org/2000/svg" viewBox="0 0 2000 143" fill-rule="evenodd" clip-rule="evenodd" stroke-linejoin="round" stroke-miterlimit="2" data-type="ugc">
    <g>
        <path d="M14.752 5.173H.002V95.86h51.275v-9.38H14.752z" fill-rule="nonzero"/>
        <path d="M65.852 95.86h68.66v-9.38h-53.91V50.878h52.33v-9.382h-52.33V14.555h53.91V5.173h-68.66z" fill-rule="nonzero"/>
        <path d="M219.854 14.555V5.173h-60.232V95.86h14.75V50.878h44.077v-9.382h-44.076V14.555z" fill-rule="nonzero"/>
        <path d="M303.79 14.555V5.173h-60.23V95.86h14.75V50.878h44.076v-9.382H258.31V14.555z" fill-rule="nonzero"/>
        <path d="M342.247 5.173h-14.75V95.86h51.275v-9.38h-36.525z" fill-rule="nonzero"/>
        <path d="M393.347 95.86h68.66v-9.38h-53.91V50.878h52.33v-9.382h-52.33V14.555h53.91V5.173h-68.66z" fill-rule="nonzero"/>
        <path d="M501.868 14.555h4.39q7.903 0 13.608.541 5.71.541 10.274 2.165 4.565 1.623 7.2 4.931t2.634 8.72q0 5.052-2.723 8.3-2.72 3.245-7.462 4.99-4.74 1.743-10.45 2.346-5.706.6-12.905.601h-4.566zm0 41.495h3.688l40.037 39.81h18.087l-42.144-40.652q15.276-.965 24.233-7.758 8.955-6.797 8.955-17.26 0-7.337-3.863-12.328-3.864-4.992-10.536-7.697-6.672-2.708-15.277-3.849-8.604-1.143-18.79-1.143h-19.14V95.86h14.75z" fill-rule="nonzero"/>
        <path d="M686.191 17.682q-4.69-6.737-12.664-10.404-7.975-3.668-17.825-3.668-6.567 0-12.509 1.624-5.942 1.623-10.632 4.69-4.691 3.066-7.272 7.337-2.579 4.268-2.578 9.442 0 4.689 1.953 8.238 1.955 3.547 5.472 6.255 3.52 2.705 7.818 4.63 4.3 1.923 10.4 4.09l7.191 2.405.626.24q5.16 1.803 8.52 3.188a33.5 33.5 0 0 1 6.254 3.368q2.894 1.983 4.614 4.75 1.721 2.764 1.72 6.495 0 3.728-1.956 6.976-1.952 3.247-5.393 5.653-3.44 2.404-7.818 3.729a31.2 31.2 0 0 1-9.068 1.323q-9.226 0-15.715-4.872t-7.895-11.967l-12.821 2.766q2.814 10.583 12.742 17.02 9.93 6.433 24.002 6.434 7.66 0 14.384-2.105 6.724-2.108 11.883-5.953 5.16-3.852 7.975-8.96 2.814-5.114 2.814-11.006 0-5.174-2.189-9.14-2.19-3.971-6.02-6.917-3.83-2.948-8.6-5.051-4.768-2.106-11.492-4.39l-7.817-2.646q-3.91-1.325-6.88-2.526a39 39 0 0 1-5.629-2.826q-2.66-1.625-4.3-3.85a8.2 8.2 0 0 1-1.641-4.99q0-6.135 5.785-10.104 5.784-3.969 13.76-3.969 7.19 0 11.882 2.406 4.69 2.405 8.444 7.457z" fill-rule="nonzero"/>
        <path fill-rule="nonzero" d="M723.873 5.173V95.86H710.74V5.173z"/>
        <path d="M739.978 95.86h13.447l15.166-61.34h.313l37.839 65.069 37.994-65.069h.313l15.167 61.34h13.446L849.741.002l-42.998 76.133L763.9.002z" fill-rule="nonzero"/>
        <path d="M889.455 95.86h61.136v-9.38h-48.002V50.878h46.595v-9.382h-46.595V14.555h48.002V5.173h-61.136z" fill-rule="nonzero"/>
        <path d="M1037.682 17.682q-4.691-6.737-12.665-10.404-7.974-3.668-17.825-3.668-6.567 0-12.508 1.624-5.943 1.623-10.633 4.69-4.691 3.066-7.272 7.337-2.579 4.268-2.578 9.442 0 4.689 1.953 8.238 1.955 3.547 5.473 6.255 3.518 2.705 7.817 4.63 4.302 1.923 10.4 4.09l7.192 2.405.625.24q5.16 1.803 8.52 3.188a33.5 33.5 0 0 1 6.255 3.368q2.893 1.983 4.613 4.75 1.721 2.764 1.72 6.495 0 3.728-1.955 6.976-1.954 3.247-5.393 5.653-3.44 2.404-7.818 3.729a31.2 31.2 0 0 1-9.069 1.323q-9.225 0-15.715-4.872-6.488-4.872-7.895-11.967l-12.821 2.766q2.814 10.583 12.742 17.02 9.93 6.433 24.002 6.434 7.661 0 14.385-2.105 6.722-2.108 11.883-5.953 5.16-3.852 7.974-8.96 2.814-5.114 2.814-11.006 0-5.174-2.189-9.14-2.19-3.971-6.02-6.917-3.83-2.948-8.6-5.051-4.768-2.106-11.491-4.39l-7.818-2.646q-3.909-1.325-6.88-2.526a39 39 0 0 1-5.629-2.826q-2.66-1.625-4.3-3.85a8.2 8.2 0 0 1-1.641-4.99q0-6.135 5.785-10.104 5.784-3.969 13.76-3.969 7.19 0 11.882 2.406 4.692 2.405 8.444 7.457z" fill-rule="nonzero"/>
        <path d="m1177.566 70.122 14.344 25.738h14.988L1152.262.844l-56.086 95.016h14.827l14.667-25.738zm-5.319-9.382h-41.098l20.791-36.323z" fill="#b1aa14" fill-rule="nonzero"/>
        <path d="M1233.652 14.555h4.03q7.252 0 12.489.541t9.43 2.165q4.188 1.623 6.607 4.931 2.418 3.307 2.418 8.72 0 5.052-2.5 8.3-2.496 3.245-6.848 4.99-4.352 1.743-9.59 2.346-5.238.6-11.846.601h-4.19zm0 41.495h3.385l36.746 39.81h16.6l-38.68-40.652q14.021-.965 22.241-7.758 8.22-6.797 8.22-17.26 0-7.337-3.546-12.328-3.547-4.992-9.67-7.697-6.123-2.708-14.022-3.849-7.897-1.143-17.245-1.143h-17.567V95.86h13.538z" fill="#b1aa14" fill-rule="nonzero"/>
        <path d="M1400.138 12.51q-15.955-8.9-36.262-8.9-12.893 0-24.418 3.668-11.521 3.667-20.308 10.224-8.782 6.553-13.699 15.154-4.914 8.598-4.914 18.222-.001 9.5 4.996 17.98 4.997 8.479 13.779 14.915 8.785 6.434 20.307 10.043 11.524 3.608 24.257 3.608 9.507 0 18.936-2.345 9.427-2.347 17.326-6.555V76.015q-7.414 5.532-17.083 8.78-9.671 3.248-19.663 3.248-9.991-.001-19.018-3.007-9.024-3.008-15.876-8.24-6.848-5.23-10.637-12.087-3.785-6.856-3.786-14.192 0-7.338 3.786-14.192 3.79-6.856 10.637-12.088 6.851-5.232 15.715-8.239t18.857-3.007q10.315-.001 19.985 3.188 9.669 3.186 17.083 8.84z" fill="#b1aa14" fill-rule="nonzero"/>
        <path d="M1437.207 41.977V5.173h-13.538V95.86h13.538v-44.5h62.21v44.5h13.539V5.173h-13.538v36.804z" fill="#b1aa14" fill-rule="nonzero"/>
        <path fill="#b1aa14" fill-rule="nonzero" d="M1551.959 5.173V95.86h-13.539V5.173z"/>
        <path d="M1608.85 14.555h29.656V5.173h-72.526v9.382h29.333V95.86h13.538z" fill="#b1aa14" fill-rule="nonzero"/>
        <path d="M1652.366 95.86h63.017v-9.38h-49.479V50.878h48.028v-9.382h-48.028V14.555h49.479V5.173h-63.017z" fill="#b1aa14" fill-rule="nonzero"/>
        <path d="M1831.101 12.51q-15.955-8.9-36.263-8.9-12.892 0-24.418 3.668-11.52 3.667-20.307 10.224-8.781 6.553-13.7 15.154-4.913 8.598-4.913 18.222-.001 9.5 4.996 17.98 4.996 8.479 13.778 14.915 8.787 6.434 20.308 10.043 11.524 3.608 24.256 3.608 9.509 0 18.936-2.345 9.43-2.347 17.327-6.555V76.015q-7.414 5.532-17.084 8.78t-19.662 3.248-19.018-3.007q-9.024-3.008-15.876-8.24-6.849-5.23-10.637-12.087-3.785-6.856-3.786-14.192 0-7.338 3.786-14.192 3.788-6.856 10.637-12.088 6.851-5.232 15.715-8.239t18.857-3.007q10.315-.001 19.984 3.188 9.67 3.186 17.084 8.84z" fill="#b1aa14" fill-rule="nonzero"/>
        <path d="M1886.22 14.555h29.656V5.173h-72.526v9.382h29.333V95.86h13.538z" fill="#b1aa14" fill-rule="nonzero"/>
        <path d="M1995.654 17.682q-4.835-6.737-13.055-10.404-8.22-3.668-18.373-3.668-6.77 0-12.894 1.624-6.124 1.623-10.959 4.69-4.836 3.066-7.495 7.337-2.66 4.268-2.659 9.442 0 4.689 2.014 8.238 2.016 3.547 5.64 6.255 3.627 2.705 8.06 4.63 4.433 1.923 10.718 4.09l7.414 2.405.644.24q5.32 1.803 8.783 3.188a35 35 0 0 1 6.447 3.368q2.984 1.983 4.755 4.75 1.772 2.764 1.773 6.495 0 3.728-2.016 6.976-2.012 3.247-5.559 5.653-3.545 2.404-8.058 3.729a33.1 33.1 0 0 1-9.348 1.323q-9.508 0-16.199-4.872-6.686-4.872-8.137-11.967l-13.216 2.766q2.901 10.583 13.134 17.02 10.236 6.433 24.74 6.434 7.898 0 14.828-2.105 6.93-2.108 12.249-5.953 5.317-3.852 8.22-8.96 2.9-5.114 2.9-11.006 0-5.174-2.256-9.14-2.255-3.971-6.206-6.917-3.947-2.948-8.865-5.051-4.913-2.106-11.844-4.39l-8.059-2.646a135 135 0 0 1-7.091-2.526 40 40 0 0 1-5.802-2.826q-2.74-1.625-4.433-3.85t-1.691-4.99q-.001-6.135 5.963-10.104t14.183-3.969q7.414 0 12.248 2.406 4.836 2.405 8.703 7.457z" fill="#b1aa14" fill-rule="nonzero"/>
        <path fill="#b1aa14" d="M1997.049 138.75v3.387H0v-3.386z"/>
    </g>
</svg>
