<?xml version="1.0" encoding="UTF-8" standalone="no"?><!DOCTYPE svg PUBLIC "-//W3C//DTD SVG 1.1//EN" "http://www.w3.org/Graphics/SVG/1.1/DTD/svg11.dtd"><svg width="100%" height="100%" viewBox="0 0 10192 5955" version="1.1" xmlns="http://www.w3.org/2000/svg" xmlns:xlink="http://www.w3.org/1999/xlink" xml:space="preserve" xmlns:serif="http://www.serif.com/" style="fill-rule:evenodd;clip-rule:evenodd;stroke-linejoin:round;stroke-miterlimit:2;"><g><path d="M3024.5,3781.57l1274.25,-0l0,-1729.42l-808.908,-686.641l-0,2238.24l-283.359,0l0,-2472.67l280.384,232.021l-0,-248.146l-462.367,-391.308l0,3057.92Z" style="fill-rule:nonzero;"/><path d="M6330.62,340.029l-1231.83,1110.19l-1231.35,-1110.19l-377.6,-340.029l-0,1114.96l808.971,687.254l1.175,1.18l651.416,558.346l147.383,125.87l147.325,-125.87l506.45,-434.276l22.071,-18.479l122.334,-104.416l-0,1.179l811.262,-691.967l0,-1113.78l-377.604,340.029Z" style="fill-rule:nonzero;"/><rect x="6707.67" y="1362.54" width="1.8" height="0.621" style="fill-rule:nonzero;"/><path d="M6709.47,1113.78l-0,248.763l283.358,-232.642l0,2473.85l-284.6,0l0,-2240.03l-811.262,693.208l-0,1724.64l1272.39,-0l0,-3056.74l-459.883,388.946Z" style="fill-rule:nonzero;"/><path d="M1364.34,4295.15l-630.584,702.196l-631.141,-702.196l-102.617,0l-0,1623.83l324.529,0l0,-892.425l409.229,429.5l409.225,-429.5l-2.354,892.425l324.529,0l0,-1623.83l-100.816,0Z" style="fill-rule:nonzero;"/><path d="M2017.55,5918.98l0,-1599.33l800.596,-0l0,319.75l-480.842,-0l0,320.316l420.575,0.001l0,319.758l-420.575,-0l0,319.75l507.692,-0l0,319.758l-827.446,0Z" style="fill-rule:nonzero;"/><path d="M3662.83,5000.32l281.563,0c217.137,0 217.137,-357.95 -0,-357.95l-281.563,0l0,357.95Zm477.25,921.629l-322.175,-610.862l-155.075,-0l0,610.862l-319.75,0l0,-1602.31l630.584,-0c570.25,-0 626.366,803.571 156.871,939.546l371.029,660.408l-361.484,2.354Z" style="fill-rule:nonzero;"/><rect x="4913.21" y="4319.65" width="319.758" height="1599.33" style="fill-rule:nonzero;"/><path d="M5987,5918.98l0,-1279.58l-397.883,-0l-0,-317.396l1116.14,-0l0,317.4l-398.5,-0l0,1279.58l-319.754,-0.004Z" style="fill-rule:nonzero;"/><path d="M7777.87,4622.1c-639.513,0 -639.513,988.471 -0,988.471c639.508,-0 640.129,-988.471 -0,-988.471m-0,-329.304c1100.63,-0 1100.63,1648.88 -0,1648.88c-1100.64,-0 -1100.64,-1648.88 -0,-1648.88" style="fill-rule:nonzero;"/><path d="M8974.54,4286.23l-0,1632.75l320.375,0l-0,-869.729l809.529,903.154l85.321,0l-0,-1630.4l-322.175,0l-0,903.775l-807.73,-939.55l-85.32,0Z" style="fill-rule:nonzero;"/></g></svg>