<?xml version="1.0" encoding="UTF-8"?>
<svg data-bbox="0 0 67.235 58.287" viewBox="0 0 67.234 58.287" xmlns="http://www.w3.org/2000/svg" data-type="color">
    <g>
        <defs>
            <clipPath id="dc27d182-6293-4a55-afc9-44eabf53a042">
                <path d="M67.234 0v58.287H0V0z"/>
            </clipPath>
        </defs>
        <path d="M0 39.495h67.234v-8.9H0ZM0 8.9h67.234V0H0Z" fill="#cb95c3" data-color="1"/>
        <g clip-path="url(#dc27d182-6293-4a55-afc9-44eabf53a042)">
            <path d="M44.917 17.387a5.01 5.01 0 0 0 0 4.72 4.3 4.3 0 0 0 1.61 1.669 4.43 4.43 0 0 0 2.293.602 4.7 4.7 0 0 0 1.884-.386 5.2 5.2 0 0 0 1.566-1.044l2.27 2.519a7.5 7.5 0 0 1-2.553 1.805 7.9 7.9 0 0 1-3.167.647 8.5 8.5 0 0 1-4.324-1.09 7.75 7.75 0 0 1-2.95-2.962 8.56 8.56 0 0 1 0-8.24 7.76 7.76 0 0 1 2.95-2.961 8.5 8.5 0 0 1 4.324-1.09 7.8 7.8 0 0 1 3.155.647 7.5 7.5 0 0 1 2.543 1.805l-2.248 2.519a5.3 5.3 0 0 0-1.566-1.044 4.7 4.7 0 0 0-1.884-.386 4.43 4.43 0 0 0-2.292.602 4.3 4.3 0 0 0-1.611 1.668M17.522 51.523l1.767-4.756 1.766 4.756Zm1.823-9.351q-1.93 0-2.86 2.406L11.22 58.287h3.79l1.315-3.541h5.927l1.315 3.54h3.904l-5.29-13.708q-.93-2.406-2.836-2.406M3.605 54.946h6.368v3.34H0V42.399h3.606Zm27.189-34.018 1.766-4.757 1.767 4.757Zm1.823-9.352q-1.93 0-2.86 2.406l-5.266 13.71h3.79l1.316-3.541h5.927l1.315 3.54h3.904l-5.29-13.71q-.93-2.404-2.836-2.405m23.882.226h10.736v3.34h-7.13v2.75h6.519v3.525h-6.52v2.934h7.13v3.34H56.5Zm-43.227 0v15.89h9.973V24.35h-6.367V11.8ZM3.606 18.83h2.017c.713 0 2.546 0 2.546-1.874 0-1.813-1.752-1.813-2.444-1.813h-2.12Zm0 8.862H0v-15.89h6.336c.692 0 5.622 0 5.622 5.175 0 5.214-4.97 5.377-5.643 5.377h-2.71Zm31.12 27.254h-2.402v-3.137h2.525c.795 0 2.364.143 2.364 1.569 0 1.467-1.671 1.568-2.486 1.568m-2.403-9.207h2.26c.795 0 2.119.142 2.119 1.467 0 1.385-1.385 1.487-2.22 1.487h-2.16Zm5.744 4.4v-.041a3.64 3.64 0 0 0 2.424-3.605c0-2.384-1.711-4.095-4.767-4.095h-7.007v15.889h6.702c2.2 0 5.663-.753 5.663-4.38a3.603 3.603 0 0 0-3.015-3.768" fill="#405d18" data-color="2"/>
        </g>
    </g>
</svg>
