<?xml version="1.0" encoding="UTF-8" standalone="no"?><!DOCTYPE svg PUBLIC "-//W3C//DTD SVG 1.1//EN" "http://www.w3.org/Graphics/SVG/1.1/DTD/svg11.dtd"><svg width="100%" height="100%" viewBox="0 0 38213 38213" version="1.1" xmlns="http://www.w3.org/2000/svg" xmlns:xlink="http://www.w3.org/1999/xlink" xml:space="preserve" xmlns:serif="http://www.serif.com/" style="fill-rule:evenodd;clip-rule:evenodd;stroke-linejoin:round;stroke-miterlimit:2;"><g><path d="M26045.6,25951.4c42.023,-96.458 83.274,-186.793 121.045,-278.557c162.185,-393.947 334.588,-784.182 482.185,-1183.56c214.814,-581.233 377.988,-1178.67 521.446,-1781.74c93.109,-391.468 164.465,-786.706 222.111,-1184.19c60.289,-415.693 112.146,-832.876 134.75,-1252.77c19.004,-353.183 46.334,-706.451 49.056,-1059.83c4.917,-638.365 -34.469,-1275.02 -104.316,-1909.95c-53.202,-483.919 -114.288,-966.439 -223.244,-1441.3c-88.469,-385.621 -166.358,-775.059 -281.445,-1152.88c-200.608,-658.627 -415.943,-1313.39 -703.122,-1941.39c-142.001,-310.448 -269.882,-628.035 -425.614,-931.397c-310.857,-605.485 -662.833,-1187.44 -1051.53,-1746.75c-270.837,-389.741 -536.817,-783.048 -851.412,-1140.13c-253.784,-288.063 -500.153,-582.967 -762.099,-863.337c-222.803,-238.459 -462,-461.645 -696.208,-689.313c-127.874,-124.308 -255.182,-250.047 -391.936,-364.171c-239.006,-199.508 -482.929,-393.307 -728.698,-584.529c-410.532,-319.341 -829.607,-627.073 -1271.83,-901.866c-694.23,-431.381 -1414.14,-813.159 -2167.12,-1132.59c-590.211,-250.35 -1188.39,-480.925 -1803.27,-660.361c-568.05,-165.758 -1143.98,-305.616 -1726.84,-412.648c-184.215,-33.809 -368.535,-70.618 -554.451,-91.019c-399.576,-43.869 -800.773,-73.17 -1200.32,-117.368c-415.258,-45.918 -833.509,-16.914 -1248.63,-58.832l-11215.2,0c-39.334,0 -78.694,-1.094 -117.968,0.468c-19.34,0.798 -38.509,6.54 -62.431,10.877l3658.84,13644.5l19.393,0.633c10.217,-26.809 20.982,-53.42 30.566,-80.446c65.536,-185.013 121.158,-374.25 198.335,-554.293c132.08,-308.055 260.376,-619.821 421.217,-913.045c297.126,-541.795 648.192,-1049.23 1065.26,-1507.66c293.033,-322.122 592.11,-638.035 937.712,-906.651c398.778,-309.954 796.318,-621.193 1248.19,-852.896c338.74,-173.694 677.697,-346.511 1036.79,-476.917c454.75,-165.185 911.016,-322.202 1391.23,-399.438c310.31,-49.88 618.998,-111.046 933.975,-123.214c277.818,-10.712 556.131,-29.03 833.673,-22.248c429.397,10.554 857.147,57.191 1278.73,139.417c278.504,54.304 559.23,104.81 831.142,183.971c473.378,137.796 929.835,321.951 1369.34,548.492c599.137,308.8 1160.82,670.796 1669.05,1115.74c378.641,331.489 735.917,684.098 1052.35,1074.46c395.317,487.689 721.447,1021.05 996.247,1585.97c238.762,490.787 427.697,998.633 554.642,1530.07c159.225,666.709 264.635,1339.48 262.354,2027.04c-0.547,169.165 3.382,339.372 21.206,507.378c27.112,255.189 62.873,509.738 104.948,762.923c33.645,202.396 71.66,405.259 126.477,602.683c88.99,320.527 216.601,627.95 351.1,932.057c52.543,118.784 100.631,240.133 161.552,354.527c209.211,392.734 439.76,772.422 720.077,1119.43c134.743,166.799 262.216,340.025 420.61,486.72c119.78,110.933 238.624,222.994 355.082,337.395c290.672,285.531 615.893,527.068 963.697,735.943c373.287,224.181 763.688,415.535 1169.14,577.476c502.435,200.721 1021.18,333.651 1555.83,408.086c104.236,14.528 209.646,20.679 318.385,31.034m587.851,9178.64l18.154,0c44.824,-3.513 89.649,-10.105 134.473,-10.105c3753.49,-0.468 7506.96,-0.441 11260.4,-0.441c30.237,-0 60.533,1.1 90.717,-0.435c22.497,-1.128 44.857,-5.663 75.311,-9.75l-3666.37,-13618.6l-19.525,-0.052c-11.318,30.131 -22.88,60.203 -33.974,90.42c-80.012,218.268 -154.638,438.685 -241.017,654.402c-176.766,441.401 -388.528,866.105 -650.553,1263.32c-274.852,416.682 -566.269,821.696 -917.007,1179.71c-186.133,190.009 -365.377,388.673 -566.513,561.596c-258.67,222.474 -532.837,427.479 -806.839,631.305c-159.792,118.844 -325.273,233.706 -500.45,327.534c-417.921,223.897 -838.426,444.479 -1289.28,598.286c-254.418,86.795 -504.656,191.084 -764.894,254.115c-351.812,85.225 -710.657,142.712 -1067.96,203.331c-154.492,26.202 -312.452,35.595 -469.311,43.618c-241.451,12.3 -483.674,29.056 -724.934,22.023c-444.368,-12.933 -887.12,-55.424 -1324.11,-140.346c-281.549,-54.686 -565.327,-105.305 -840.232,-184.934c-485.296,-140.484 -953.15,-329.122 -1402.08,-563.817c-370.216,-193.549 -734.058,-398.832 -1070.48,-645.695c-495.79,-363.789 -952.135,-773.497 -1365.09,-1230.91c-215.223,-238.406 -418.824,-486.344 -597.271,-752.265c-283.092,-421.849 -544.814,-857.239 -746.965,-1325.12c-94.619,-219.013 -196.403,-436.24 -271.662,-662.042c-133.701,-401.402 -238.241,-811.941 -312.808,-1228.41c-76.438,-425.832 -132.469,-853.225 -138.704,-1287.3c-6.81,-474.532 -31.147,-947.824 -120.084,-1416.67c-77.862,-410.67 -166.964,-816.778 -332.306,-1202.45c-104.698,-244.26 -199.62,-493.727 -320.553,-729.8c-198.605,-387.678 -427.288,-758.526 -702.253,-1098.25c-123.511,-152.627 -246.995,-305.834 -379.82,-450.194c-106.214,-115.41 -228.769,-215.638 -340.111,-326.572c-201.901,-201.103 -418.034,-385.727 -650.421,-549.672c-448.659,-316.545 -931.18,-571.404 -1437.76,-783.714c-527.042,-220.878 -1072.54,-370.433 -1637.35,-451.321c-115.851,-16.585 -233.159,-23.012 -348.542,-34.001c-11.51,21.588 -19.637,34.251 -25.326,47.929c-190.504,457.446 -396.412,909.229 -567.529,1373.81c-285.366,774.868 -502.158,1570.94 -652.972,2383.24c-63.94,344.316 -110.36,692.114 -155.923,1039.5c-34.969,266.586 -62.951,534.458 -81.659,802.666c-24.858,355.767 -51.858,712.384 -52.431,1068.67c-1.015,610.758 29.195,1220.72 94.566,1828.76c53.967,502.019 112.634,1003.19 223.792,1496.09c91.653,406.524 176.028,816.093 296.249,1214.46c202.448,670.77 424.922,1335.83 718.422,1974.28c136.26,296.44 257.134,600.679 407.019,889.974c299.103,577.278 629.129,1137.31 1002.28,1670.64c213.159,304.628 416.161,617.713 647.949,907.64c466.423,583.514 959.821,1144.39 1502.14,1660.01c199.376,189.542 393.835,385.075 602.709,563.627c252.605,215.994 516.278,419.213 778.415,623.836c623.005,486.338 1278.2,923.678 1971.86,1304.22c602.413,330.467 1222.37,622.076 1861.17,874.015c452.64,178.533 908.187,351.898 1376.46,483.075c561.181,157.215 1126.84,300.145 1700.99,404.52c196.139,35.648 392.654,71.244 590.356,95.851c269.876,33.566 540.799,60.098 811.835,83.222c289.051,24.64 578.596,44.58 868.254,61.027c153.859,8.708 308.411,4.977 462.607,8.543c32.412,0.745 64.652,8.82 96.952,13.539m-15100,0l18.154,0c38.503,-4.97 76.959,-13.645 115.521,-14.337c477.769,-8.595 955.372,-20.434 1430.45,-76.517c339.063,-40.019 679.668,-72.458 1015.77,-130.433c419.457,-72.378 838.34,-153.919 1251.46,-255.795c730.617,-180.201 1451.35,-395.641 2149.62,-680.111c29.472,-11.997 58.476,-25.101 98.356,-42.293c-2688.64,-1655.89 -4777.69,-3860.33 -6273.73,-6622.53c-436.707,-19.663 -862.789,-64.6 -1285.68,-143.26c-512.323,-95.304 -1012.86,-226.785 -1497.47,-421.823c-449.668,-180.972 -885.195,-386.168 -1295.29,-646.657c-383.479,-243.568 -756.74,-500.919 -1100.97,-796.891c-473.866,-407.434 -898.926,-861.775 -1259.09,-1374.01c-144.275,-205.144 -296.961,-406.629 -418.824,-624.851c-316.934,-567.556 -607.851,-1148.35 -791.321,-1776.16c-6.157,-21.034 -19.063,-40.098 -28.786,-60.065l-17.277,1.457l-3660.65,13653.8l146.173,0c3759.48,0 7518.95,-0.026 11278.4,0.442c41.746,0 83.492,6.592 125.211,10.138m23008.8,-18419.2c1221,-4539.12 2441.9,-9078.25 3662.68,-13617.4c0.58,-2.202 -1.754,-5.412 -3.21,-7.831c-1.536,-2.525 -3.679,-4.667 -11.675,-14.476l-101.566,-0c-3109.47,-0 -6218.94,-2.195 -9328.41,1.569c-788.737,0.962 -1577.84,-25.517 -2366.3,22.221c-392.239,23.73 -785.632,31.337 -1177.19,62.398c-331.186,26.262 -662.313,64.435 -990.117,117.941c-408.31,66.63 -816.396,140.682 -1218.77,235.987c-800.167,189.488 -1587.37,424.539 -2351.03,732.871c-21.258,8.569 -41.034,20.85 -80.776,41.311c900.086,522.948 1709.4,1141.54 2478.91,1815.03c773.906,677.335 1472.22,1425.89 2115.83,2226.11c641.984,798.216 1183.48,1663.69 1681.71,2559.03c1770.81,62.589 3365.37,612.432 4776.48,1679.15c1412.93,1068.04 2353.3,2467.81 2913.39,4146.11"/></g></svg>