<?xml version="1.0" encoding="UTF-8" standalone="no"?><!DOCTYPE svg PUBLIC "-//W3C//DTD SVG 1.1//EN" "http://www.w3.org/Graphics/SVG/1.1/DTD/svg11.dtd"><svg width="100%" height="100%" viewBox="0 0 4513 6584" version="1.1" xmlns="http://www.w3.org/2000/svg" xmlns:xlink="http://www.w3.org/1999/xlink" xml:space="preserve" xmlns:serif="http://www.serif.com/" style="fill-rule:evenodd;clip-rule:evenodd;stroke-linejoin:round;stroke-miterlimit:2;"><g><path d="M983.667,5165c13.696,0 24.221,-6.708 31.583,-20.083c7.363,-13.375 11.029,-39.584 11,-78.584c0,-63.041 -14.029,-94.583 -42.083,-94.541c-26.417,-0 -39.638,31.041 -39.667,93.083c0,39.958 3.346,66.667 10.042,80.042c6.696,13.375 16.404,20.083 29.125,20.083" style="fill-rule:nonzero;"/><path d="M3516.67,5687.88c-7.5,-6.458 -20,-9.917 -37.5,-10.375l-0,76.667c32.362,-0.625 48.554,-12 48.583,-34.042c0.125,-15.083 -3.667,-25.792 -11.083,-32.25" style="fill-rule:nonzero;"/><path d="M2137.04,2696.75l-892.375,0l-186.584,228.417l1078.96,-0l-0,-228.417Z" style="fill-rule:nonzero;"/><path d="M2137.04,2678.83l-0,-131.166l-699.875,-0l308.75,-378l391.125,-0l-0,-260.084l-249.292,0l-628.458,769.25l877.75,0Z" style="fill-rule:nonzero;"/><path d="M1437.5,4273c-7.446,-6.417 -19.846,-9.875 -37.208,-10.333l-0,76.333c32.304,-0.625 48.446,-11.917 48.416,-33.958c0.042,-14.917 -3.708,-25.625 -11.208,-32.042" style="fill-rule:nonzero;"/><path d="M639.25,3566.29l-0.958,-0c-5.778,44.444 -13.903,90.014 -24.375,136.708l50,0c-10.973,-47.917 -19.195,-93.486 -24.667,-136.708" style="fill-rule:nonzero;"/><path d="M1545.54,3577.25c-4.864,-5.95 -11.305,-10.412 -18.584,-12.875c-7.541,-1.818 -15.247,-2.865 -23,-3.125l0,184.583c22.223,-1.916 37.889,-9.75 47,-23.5c9.111,-13.75 13.695,-36.361 13.75,-67.833c0.282,-15.928 -1.341,-31.832 -4.833,-47.375c-2.28,-10.974 -7.2,-21.229 -14.333,-29.875" style="fill-rule:nonzero;"/><path d="M2735.46,3556.92c-26.333,-0 -39.514,30.93 -39.541,92.791c-0,39.834 3.333,66.431 10,79.792c6.666,13.333 16.375,20 29.166,20c13.667,0 24.153,-6.667 31.459,-20c7.305,-13.333 10.972,-39.444 11,-78.333c-0.084,-62.834 -14.111,-94.25 -42.084,-94.25" style="fill-rule:nonzero;"/><path d="M1847.67,4284.92c-4.843,-5.953 -11.272,-10.418 -18.542,-12.875c-7.546,-1.791 -15.25,-2.837 -23,-3.125l0,184.458c22.221,-1.917 37.875,-9.75 46.958,-23.458c9.084,-13.709 13.654,-36.334 13.709,-67.792c0.295,-15.917 -1.313,-31.792 -4.792,-47.333c-2.254,-10.983 -7.177,-21.244 -14.333,-29.875" style="fill-rule:nonzero;"/><path d="M1964.12,3565.33c-7.444,-6.416 -19.847,-9.875 -37.208,-10.375l-0,76.417c32.305,-0.611 48.444,-11.931 48.416,-33.958c0,-14.959 -3.708,-25.667 -11.208,-32.084" style="fill-rule:nonzero;"/><path d="M1009.5,4273.96l-0.958,0c-5.804,44.459 -13.917,89.959 -24.334,136.542l50,-0c-11,-47.833 -19.237,-93.333 -24.708,-136.542" style="fill-rule:nonzero;"/><path d="M3071.12,4457c13.667,0 24.139,-6.667 31.417,-20c7.277,-13.333 10.93,-39.417 10.958,-78.25c0,-62.792 -13.887,-94.167 -41.667,-94.167c-26.333,0 -39.5,30.917 -39.5,92.709c0,39.833 3.334,66.416 10,79.708c6.667,13.292 16.264,19.958 28.792,20" style="fill-rule:nonzero;"/><path d="M2137.04,1604.46l-234.667,287.25l234.667,0l-0,-287.25Z" style="fill-rule:nonzero;"/><path d="M0,0l0,6582.21l4508.83,0l0,-6582.21l-4508.83,0Zm2564.54,2547.62l-0,-2023.83l1430.88,-0l-0,341.291l-1038.21,0l0,195.417l1038.21,0l-0,17.875l-1038.21,0l0,253.208l1038.21,0l-0,17.917l-1038.21,0l0,264.208l1038.21,0l-0,17.875l-1038.21,0l0,260.084l1038.21,-0l-0,17.875l-1038.21,-0l0,260.083l1038.21,0l-0,378l-1430.88,0Zm-2051.12,149.125l-0,-17.917l215.75,0l184.375,-225.666l-400.125,-0l-0,-17.875l414.833,-0l202.375,-247.792l-617.208,0l-0,-17.917l631.833,0l212.5,-260.083l-844.333,0l-0,-17.833l858.916,-0l212.5,-260.125l-1071.42,-0l-0,-17.875l1086,-0l215.875,-264.209l-1301.88,0l-0,-17.916l1316.67,-0l206.875,-253.209l-1523.54,0l-0,-17.875l1537.96,0l207.958,-254.583l-1745.83,0l0,-17.875l1760.46,0l201.25,-246.333l-1961.79,-0l-0,-17.917l1982.79,0l0,2078.04l1499.21,-0l-0,341.291l-3482,0l201.25,-246.333l-201.25,0Zm2885.21,869.542l0,-73.5l174.292,-0l-0,73.5l-50.375,-0l-0,248.291l-74,0l-0,-248.291l-49.917,-0Zm-356.417,-0l0,-73.5l174.459,-0l-0,73.5l-50.417,-0l-0,248.291l-74.125,0l0,-248.291l-49.917,-0Zm-186.708,85.833c0,54 -10.167,95.903 -30.5,125.708c-20.333,29.806 -49.306,44.709 -86.917,44.709c-38.889,-0 -68.527,-14.903 -88.916,-44.709c-20.389,-29.805 -30.598,-72.861 -30.625,-129.166c-0,-51.917 10.236,-92.375 30.708,-121.375c20.472,-29 49.042,-43.5 85.708,-43.5c39.084,-0 68.931,14.541 89.542,43.625c20.611,29.083 30.944,70.652 31,124.708m-451.333,-31.583l-0,66.666l-64.667,0l0,58.334l75,-0l0,69.041l-147.833,0l-0,-321.791l147.75,-0l-0,68.458l-74.917,0l0,59.292l64.667,-0Zm-339.875,194.041l-77.125,0l-59.084,-146.541l-1.166,-0l-0,146.541l-73.042,0l0,-321.791l85.083,-0c34.389,-0 61.542,8.833 81.459,26.5c19.916,17.666 29.889,41.694 29.916,72.083c-0.051,15.765 -3.941,31.283 -11.333,45.208c-7.242,14.188 -18.818,25.706 -33.042,32.875l58.334,145.125Zm-420.542,-163.416c-0,39.222 -6.069,70.875 -18.208,94.958c-10.648,22.6 -28.544,41.009 -50.834,52.292c-22.479,10.942 -47.209,16.478 -72.208,16.166l-71.583,0l-0,-321.791l68.208,-0c47.222,-0 83.139,13.458 107.75,40.375c24.611,26.916 36.903,66.25 36.875,118m-606.875,20.833l0,142.583l-73.042,0l0,-321.791l73.667,-0l92.833,185.583l-2.666,-34.708l-0,-150.875l73.041,-0l0,321.791l-75,0l-90.875,-182.708l2.042,40.125Zm-438.125,-179.167l81.958,0l85.334,321.792l-75.959,0l-12.5,-53.75l-76.916,0l-12.792,53.75l-74.458,0l85.333,-321.792Zm3396.67,2565.5l-3482,0l-0,-17.916l3482,-0l-0,17.916Zm-3316.25,-315.125l-0,66.959l-65,-0l-0,58.708l75.375,-0l-0,68.875l-148.667,-0l0,-322.625l148.167,-0l-0,68.667l-75,-0l-0,59.416l65.125,0Zm405.208,23.209l0,-151.292l73.208,0l0,322.625l-75,0l-91.083,-183.333l1.917,40.125l-0,143.041l-73.417,0l0,-322.625l73.958,0l93.042,186.084l-2.625,-34.625Zm389.375,82.75c7,15.25 18.111,22.875 33.333,22.875c24.5,-0 37.154,-17.5 37.959,-52.459l-34.084,0l0,-62.5l110.417,0l0,54.167c0,41.875 -10.112,74.75 -30.333,98.708c-20.223,23.959 -47.792,35.917 -82.709,35.875c-39.305,0 -69.666,-14.791 -91.083,-44.375c-21.417,-29.583 -32.208,-71.75 -32.375,-126.458c0,-55.25 10.679,-97.167 32.042,-125.792c21.361,-28.625 52.569,-42.916 93.625,-42.875c46.083,0 79.416,24.584 100,73.709l-69.834,28.75c-4.302,-8.249 -9.745,-15.852 -16.166,-22.584c-5.62,-4.899 -12.93,-7.425 -20.375,-7.041c-14.834,-0 -25.346,7.75 -31.542,23.291c-6.208,15.584 -9.333,40.709 -9.333,75.542c-0.084,32.25 3.387,55.958 10.416,71.167l0.042,-0Zm377.042,88.583l-0,-322.625l73.208,-0l0,322.625l-73.208,-0Zm481.791,-171.333l0,-151.292l73.209,-0l-0,322.625l-75,-0l-91.125,-183.333l1.958,40.125l0,143.041l-73.417,0l0,-322.625l73.959,0l93.041,186.084l-2.625,-34.625Zm453.542,-23.209l0,66.959l-65,-0l0,58.708l75.417,-0l-0,68.875l-148.709,-0l0,-322.625l148,-0l0,68.667l-75,-0l0,59.416l65.292,0Zm379.167,0l-0,66.959l-65,-0l-0,58.708l75.375,-0l-0,68.875l-148.709,-0l0,-322.625l148.042,-0l0,68.667l-75,-0l0,59.416l65.292,0Zm451.833,194.542l-77.417,-0l-59.208,-146.917l-1.333,0l-0,146.917l-73.084,-0l0,-322.625l85.292,-0c34.471,-0 61.696,8.875 81.667,26.583c19.971,17.709 29.958,41.834 29.958,72.292c-0.037,15.793 -3.928,31.342 -11.333,45.292c-7.296,14.278 -18.982,25.848 -33.334,33l58.792,145.458Zm349.125,-18.958c-19.446,18.291 -44.179,27.458 -74.208,27.416c-21.127,-0.163 -41.943,-5.122 -60.875,-14.5l-0,-75c23.196,13.542 42.637,20.334 58.333,20.334c7.973,0.455 15.807,-2.291 21.75,-7.625c5.411,-5.276 8.322,-12.617 8,-20.167c-0.061,-6.586 -2.32,-12.967 -6.417,-18.125c-6.474,-7.743 -13.893,-14.644 -22.083,-20.542c-25.279,-19.458 -43.612,-37.5 -55,-54.166c-11.274,-16.357 -17.227,-35.802 -17.042,-55.667c0,-27.792 8.78,-50.5 26.334,-68.167c17.554,-17.666 40.279,-26.458 68.166,-26.333c21.16,0.113 42.065,4.64 61.375,13.292l0,72.125c-21.75,-11.917 -39.389,-17.875 -52.916,-17.875c-7.688,-0.429 -15.278,1.924 -21.375,6.625c-5.291,4.543 -8.2,11.283 -7.875,18.25c-0,13.541 12.166,28.833 36.5,45.833c16.591,11.958 31.442,26.164 44.125,42.208c14.709,17.632 22.633,39.958 22.333,62.917c0.683,26.173 -9.973,51.405 -29.208,69.167l0.083,-0Zm29.167,-496.25l-3482,-0l-0,-17.917l3482,0l-0,17.917Zm-3371.92,-286.459c11.636,16.294 30.651,25.771 50.667,25.25c12.414,-0.396 24.677,-2.846 36.291,-7.25l0,76.667c-13.418,4.636 -27.474,7.166 -41.666,7.5c-42.389,-0 -76.764,-15.917 -103.125,-47.75c-26.361,-31.833 -39.542,-73.708 -39.542,-125.625c0,-48.208 13.304,-87.958 39.917,-119.333c24.547,-30.363 61.795,-47.74 100.833,-47.042c14.75,-0.167 29.438,1.958 43.542,6.292l-0,76.916c-12.755,-4.476 -26.151,-6.854 -39.667,-7.041c-19.056,-0 -34.861,8.708 -47.417,26.125c-12.554,17.416 -18.833,39.625 -18.833,66.666c0.028,28.875 6.361,51.75 19,68.625m243.375,-72.166c-0,-52.084 10.278,-92.667 30.833,-121.75c20.554,-29.084 49.209,-43.625 85.959,-43.667c39.196,-0 69.137,14.583 89.833,43.792c20.694,29.208 31.056,70.875 31.083,125c0,54.166 -10.196,96.208 -30.583,126.083c-20.389,29.875 -49.444,44.833 -87.167,44.875c-38.889,-0 -68.639,-14.958 -89.25,-44.875c-20.612,-29.917 -30.846,-73.083 -30.708,-129.458m580.375,-5.084l-0,-151.375l73.25,0l-0,322.792l-75.208,-0l-91.167,-183.333l1.958,40.166l0,143.125l-73.291,0l-0,-322.791l74,-0l93.208,186.25l-2.75,-34.834Zm364.375,-22c16.6,11.997 31.451,26.245 44.125,42.334c14.733,17.636 22.674,39.979 22.375,62.958c0.724,26.208 -9.918,51.49 -29.167,69.292c-19.446,18.291 -44.196,27.416 -74.25,27.458c-21.145,-0.156 -41.98,-5.129 -60.916,-14.542l-0,-75c23.195,13.542 42.637,20.334 58.333,20.334c7.985,0.453 15.831,-2.293 21.792,-7.625c5.386,-5.29 8.281,-12.625 7.958,-20.167c-0.052,-6.601 -2.311,-12.998 -6.417,-18.167c-6.477,-7.754 -13.912,-14.656 -22.125,-20.541c-25.304,-19.459 -43.637,-37.5 -55,-54.167c-11.28,-16.385 -17.233,-35.859 -17.041,-55.75c-0,-27.792 8.779,-50.5 26.333,-68.167c17.556,-17.666 40.292,-26.458 68.208,-26.375c21.171,0.131 42.086,4.658 61.417,13.292l-0,72.333c-21.75,-11.958 -39.404,-17.958 -52.958,-17.916c-7.693,-0.417 -15.284,1.951 -21.375,6.666c-5.296,4.54 -8.206,11.283 -7.875,18.25c-0.028,13.375 12.166,28.542 36.583,45.5m324.5,123.167c6.067,5.969 14.243,9.323 22.754,9.333c8.796,0 17.221,-3.583 23.329,-9.916c6.094,-7.759 9.148,-17.484 8.584,-27.334l-0,-224.625l74.708,0l-0,211.834c-0,28.833 -3.792,51.958 -11.375,69.375c-6.451,16.179 -18.207,29.698 -33.333,38.333c-14.75,8.125 -35.346,12.208 -61.792,12.208c-38.888,0 -66.375,-10 -82.458,-29.958c-16.084,-19.958 -24.071,-53.75 -23.959,-101.333l0,-200.459l75.209,0l-0,227.292c-0.534,9.167 2.448,18.201 8.333,25.25m450.75,-4.458l-0,74.708l-131.292,0l0,-322.792l73.25,0l0,248.084l58.042,-0Zm140.25,-174.334l-0,-73.75l175,0l-0,73.75l-50.75,0l-0,249.042l-74.208,0l-0,-249.042l-50.042,0Zm346.75,249.042l-0,-322.792l73.25,0l-0,322.792l-73.25,0Zm433.083,-171.417l0,-151.375l73.25,0l0,322.792l-75,0l-91.166,-183.333l1.958,40.166l-0,143.125l-73.458,0l-0,-322.791l74.125,-0l93.083,186.208l-2.792,-34.792Zm488.459,44.709c-0,41.916 -10.125,74.833 -30.375,98.791c-20.25,23.959 -47.946,35.917 -83.084,35.917c-39.333,0 -69.708,-14.792 -91.125,-44.375c-21.416,-29.583 -32.137,-71.792 -32.166,-126.583c-0,-55.292 10.68,-97.25 32.041,-125.875c21.363,-28.625 52.584,-42.959 93.667,-42.917c46.139,0 79.472,24.583 100,73.75l-69.875,28.792c-4.312,-8.266 -9.769,-15.883 -16.208,-22.625c-5.637,-4.991 -13.026,-7.553 -20.542,-7.125c-14.833,-0 -25.346,7.791 -31.542,23.333c-6.196,15.542 -9.304,40.75 -9.333,75.583c-0,32.375 3.5,56.167 10.5,71.417c7,15.25 18.111,22.875 33.333,22.875c24.5,0 37.167,-17.5 38,-52.458l-34.125,-0l0,-62.5l110.834,-0l-0,54Zm-0,-414.709l-3482,0l-0,-18l3482,0l-0,18Zm-3372.29,-260.625c11.601,16.195 30.545,25.582 50.458,25c12.342,-0.416 24.534,-2.833 36.084,-7.208l-0,76.333c-13.336,4.616 -27.309,7.132 -41.417,7.459c-42.196,-0 -76.429,-15.875 -102.708,-47.584c-26.278,-31.708 -39.403,-73.375 -39.375,-125c-0,-48 13.25,-87.625 39.75,-118.833c24.446,-30.234 61.542,-47.535 100.416,-46.833c14.679,-0.167 29.296,1.958 43.334,6.25l-0,76.583c-12.691,-4.44 -26.015,-6.804 -39.459,-7c-18.946,0 -34.679,8.667 -47.208,26.042c-12.529,17.375 -18.804,39.458 -18.833,66.291c-0,28.917 6.319,51.75 18.958,68.5m260.667,93.792l85.25,-321.458l81.875,-0l85.25,321.458l-75.834,-0l-12.291,-53.667l-77.209,0l-12.5,53.667l-74.541,-0Zm653.833,-0l-77.083,-0l-59,-146.417l-1.209,0l0,146.417l-72.958,-0l-0,-321.458l85.125,-0c34.388,-0 61.529,8.833 81.417,26.458c19.887,17.625 29.833,41.667 29.833,72.042c-0.022,15.732 -3.884,31.223 -11.25,45.125c-7.207,14.198 -18.775,25.722 -33,32.875l58.125,144.958Zm195.542,-0l-0,-321.458l68.125,-0c47.22,-0 83.112,13.458 107.666,40.333c24.556,26.875 36.848,66.167 36.875,117.875c0,39.167 -6.055,70.792 -18.166,94.875c-10.674,22.572 -28.564,40.96 -50.834,52.25c-22.461,10.906 -47.158,16.428 -72.125,16.125l-71.541,-0Zm553.875,-193.833l-0,66.666l-64.792,0l-0,58.334l75,-0l-0,68.625l-147.958,-0l-0,-321.459l147.625,0l-0,68.375l-74.667,0l-0,59.25l64.792,0.209Zm386.041,23.125l0,-150.75l72.959,-0l-0,321.458l-75,-0l-90.834,-182.5l1.959,39.958l-0,142.542l-72.834,-0l0,-321.458l73.667,-0l92.708,185.416l-2.625,-34.666Zm281.75,5.041c0,-51.833 10.236,-92.25 30.709,-121.25c20.47,-29 49,-43.458 85.583,-43.416c38.887,-0 68.721,14.541 89.5,43.583c20.778,29.042 31.083,70.542 30.917,124.5c-0,53.958 -10.155,95.833 -30.459,125.583c-20.304,29.75 -49.237,44.625 -86.791,44.667c-38.888,0 -68.513,-14.875 -88.875,-44.667c-20.361,-29.791 -30.556,-72.791 -30.584,-129m542.792,-26.958c16.538,11.913 31.358,26.045 44.042,42c14.672,17.584 22.582,39.85 22.291,62.75c0.678,26.115 -9.963,51.289 -29.166,69c-19.446,18.208 -44.084,27.292 -73.917,27.333c-21.054,-0.173 -41.797,-5.117 -60.667,-14.458l0,-75c23.084,13.5 42.528,20.25 58.334,20.25c7.937,0.417 15.729,-2.292 21.666,-7.583c5.403,-5.262 8.301,-12.592 7.959,-20.125c-0.048,-6.564 -2.309,-12.923 -6.417,-18.042c-6.444,-7.717 -13.836,-14.591 -22,-20.458c-25.196,-19.292 -43.458,-37.209 -54.792,-53.834c-11.219,-16.316 -17.142,-35.699 -16.958,-55.5c-0,-27.791 8.75,-50.416 26.25,-67.916c17.5,-17.5 40.139,-26.25 67.917,-26.25c21.087,0.116 41.921,4.629 61.166,13.25l0,72c-21.666,-11.875 -39.291,-17.834 -52.75,-17.834c-7.674,-0.426 -15.25,1.927 -21.333,6.625c-5.242,4.538 -8.117,11.242 -7.792,18.167c-0.111,13.625 11.945,28.833 36.167,45.625m421.917,192.625l-12.5,-53.667l-76.834,0l-12.791,53.667l-74.375,-0l85.25,-321.458l81.875,-0l85.25,321.458l-75.875,-0Zm75.875,-525l-3482,-0l-0,-17.917l3482,0l-0,17.917Zm-75.959,-182.417l-12.291,-53.75l-77.125,0l-12.792,53.75l-74.458,0l85.333,-321.791l81.958,-0l85.334,321.791l-75.959,0Z" style="fill-rule:nonzero;"/><path d="M3867.75,4273.96c-5.75,44.459 -13.862,89.959 -24.333,136.542l50,-0c-10.917,-47.833 -19.096,-93.333 -24.542,-136.542l-1.125,0Z" style="fill-rule:nonzero;"/><path d="M3867.67,3566.29c-5.806,44.444 -13.931,90.014 -24.375,136.708l50,0c-10.973,-47.917 -19.167,-93.486 -24.584,-136.708l-1.041,-0Z" style="fill-rule:nonzero;"/></g></svg>