<?xml version="1.0" encoding="UTF-8" standalone="no"?><!DOCTYPE svg PUBLIC "-//W3C//DTD SVG 1.1//EN" "http://www.w3.org/Graphics/SVG/1.1/DTD/svg11.dtd"><svg width="100%" height="100%" viewBox="0 0 10417 1888" version="1.1" xmlns="http://www.w3.org/2000/svg" xmlns:xlink="http://www.w3.org/1999/xlink" xml:space="preserve" xmlns:serif="http://www.serif.com/" style="fill-rule:evenodd;clip-rule:evenodd;stroke-linejoin:round;stroke-miterlimit:2;"><g><path d="M10416.7,516.388c-12.629,7.987 -9.538,23.191 -11.342,33.754c-17.29,98.238 -57.165,191.13 -116.471,271.333c-57.824,79.373 -132.775,144.725 -219.283,191.2c-70.604,39.109 -146.969,66.768 -226.242,81.942c-46.916,9.505 -94.632,14.51 -142.5,14.946l-443.208,-0c-3.604,-29.892 9.791,-57.205 13.146,-85.805c4.458,-30.202 10.564,-60.139 18.291,-89.675c6.188,-28.6 13.146,-57.204 20.617,-88.9l407.65,0c53.094,-0.158 105.819,-8.859 156.15,-25.766c72.714,-23.204 134.329,-72.515 172.904,-138.375c36.834,-57.82 55.836,-125.227 54.625,-193.771c-0.15,-88.05 -62.125,-164.763 -148.162,-183.471c-34.866,-9.284 -70.865,-13.621 -106.938,-12.883l-117.5,-0c-28.604,136.312 -56.946,271.083 -85.033,405.846l-302.775,-0c47.158,-226.759 93.796,-450.938 141.983,-676.409l35.042,0c137.346,0 274.946,-1.804 412.287,0c94.373,-0.797 187.727,19.637 273.138,59.784c101.968,47.719 176.526,139.776 202.021,249.433c2.579,10.821 -0,25.767 11.595,33.5l0.005,153.316Z" style="fill-rule:nonzero;"/><path d="M0,1102.6c4.681,-12.298 8.64,-24.86 11.854,-37.621c14.171,-68.025 27.313,-136.054 41.229,-206.141l301.742,-0c-2.579,16.491 -4.125,32.725 -7.475,48.7c-12.625,61.846 -25.767,123.687 -38.392,185.529c-0.373,9.1 -7.961,16.383 -17.069,16.383c-0.756,0 -1.511,-0.05 -2.26,-0.15l-289.629,0l0,-6.7Z" style="fill-rule:nonzero;"/><path d="M9202.48,695.988l-321.066,-0c8.504,-17.521 15.458,-32.726 22.675,-47.667c27.488,-51.656 40.407,-109.832 37.366,-168.267c-7.216,-88.383 -45.096,-159.246 -133.479,-190.683c-38.616,-14.136 -80.122,-18.56 -120.85,-12.883c-81.606,10.711 -156.666,50.529 -211.296,112.091c-50.431,54.547 -83.689,122.765 -95.6,196.092c-10.251,51.094 -4.77,104.116 15.717,152.033c25.633,60.732 80.611,104.325 145.587,115.438c27.235,4.576 54.854,6.474 82.459,5.666l480.312,0c-5.149,8.922 -10.827,17.528 -17.004,25.771c-44.45,48.904 -94.73,92.173 -149.712,128.838c-55.253,37.075 -115.339,66.381 -178.571,87.096c-47.361,15.131 -96.292,24.815 -145.846,28.862c-32.715,4.249 -65.723,5.8 -98.692,4.638c-130.387,-8.763 -248.916,-47.417 -340.908,-146.105c-50.422,-53.36 -85.968,-119.03 -103.071,-190.425c-12.801,-52.837 -16.72,-107.438 -11.596,-161.562c5.532,-68.379 22.972,-135.268 51.533,-197.642c26.922,-60.158 61.571,-116.55 103.071,-167.75c68.19,-82.713 153.114,-150.071 249.179,-197.637c60.321,-29.687 124.373,-51.096 190.421,-63.646c53.877,-8.149 108.458,-10.654 162.854,-7.475c93.59,1.809 184.56,31.414 261.288,85.033c83.927,57.782 143.533,144.667 167.233,243.767c14.143,58.06 17.981,118.154 11.338,177.542c-3.715,66.105 -21.927,130.592 -53.342,188.875" style="fill-rule:nonzero;"/><path d="M6820.76,858.325l513.038,0c66.214,-1.023 130.442,-22.943 183.466,-62.612c51.416,-36.722 92.296,-86.311 118.534,-143.788c27.958,-53.937 40.193,-114.665 35.3,-175.221c-9.275,-87.096 -48.959,-154.608 -134.508,-188.362c-50.875,-19.099 -106.455,-21.891 -158.988,-7.988c-61.951,15.307 -118.328,47.828 -162.596,93.792c-54.246,54.247 -90.278,124.062 -103.071,199.704c-6.054,39.711 -6.054,80.11 0,119.821c-106.052,6.228 -212.352,7.088 -318.491,2.575c-4.279,-23.946 -4.279,-48.462 -0,-72.409c5.946,-44.898 16.039,-89.15 30.15,-132.187c25.89,-74.306 63.659,-143.925 111.833,-206.142c81.773,-104.78 189.789,-186.126 313.079,-235.779c52.782,-21.539 108.125,-36.175 164.654,-43.546c47.646,-6.337 95.834,-7.808 143.788,-4.379c116.552,4.384 227.353,52.198 310.5,133.992c53.946,54.673 91.223,123.594 107.454,198.666c11.015,43.323 15.273,88.087 12.625,132.709c-6.258,101.439 -35.515,200.138 -85.55,288.6c-40.334,70.398 -91.658,133.901 -152.029,188.104c-59.299,53.408 -126.819,96.914 -199.958,128.842c-47.07,21.2 -96.446,36.851 -147.134,46.637c-25.771,4.383 -51.537,7.217 -75.5,10.308c-18.812,2.321 -37.879,4.896 -56.691,5.413c-12.625,-0 -25.767,-4.383 -37.621,-4.638c-99.367,-0.865 -195.937,-33.266 -275.717,-92.508c-62.358,-44.954 -109.916,-107.499 -136.567,-179.604" style="fill-rule:nonzero;"/><path d="M5267.21,285.25l-348.637,0c-29.892,0 -30.663,0 -37.104,28.858c-12.884,57.463 -25.767,115.184 -37.104,172.904c-13.142,63.905 -25.771,128.838 -39.425,191.971c-1.869,6.009 -4.558,11.731 -7.992,17.004l-299.167,0c28.35,-136.566 56.434,-271.333 84.779,-407.645c-27.254,-3.476 -54.771,-4.424 -82.2,-2.834l-243.504,0c18.809,-89.675 36.588,-175.737 54.884,-263.35l1219.85,0c3.091,34.529 5.408,68.288 9.016,103.071c3.609,34.792 7.988,69.317 11.855,103.075c2.575,25.767 4.637,51.533 6.441,77.3c2.834,36.075 4.125,72.15 7.729,108.225c5.413,56.95 12.371,113.638 18.042,170.329c3.346,37.104 5.408,73.95 7.983,113.121l-271.075,0c-4.383,-27.575 -9.279,-56.433 -13.141,-85.55c-6.699,-49.258 -13.056,-98.562 -19.071,-147.908c-5.154,-43.034 -9.017,-86.321 -13.917,-128.842c-1.8,-17.004 -4.891,-31.179 -8.241,-49.729" style="fill-rule:nonzero;"/><path d="M6011.65,695.217c-9.533,-66.484 -19.071,-131.159 -29.117,-199.7c-19.329,33.754 -37.366,64.675 -54.887,95.854c-17.521,31.179 -31.438,55.146 -45.35,83.75c-5.691,15.149 -21.014,24.617 -37.109,22.929l-248.141,0c16.233,-31.437 30.916,-60.296 45.866,-88.9l115.955,-219.025c61.87,-117.053 123.541,-234.211 185.012,-351.475c5.929,-11.338 11.083,-18.554 25.767,-18.554l235.004,-0c-0,-0 1.804,1.291 4.383,3.35c2.575,25.771 4.896,52.825 7.729,80.141c3.863,34.525 8.246,69.313 11.855,103.071c2.833,25.767 4.895,51.534 6.695,77.304c2.58,34.013 4.384,68.025 7.475,101.784c3.092,33.75 8.246,65.191 11.596,97.658c2.834,25.767 4.896,51.538 6.7,77.304c2.834,37.104 4.896,74.209 7.988,111.575c1.441,7.575 3.583,15 6.441,22.159c12.113,-21.9 22.417,-39.425 31.438,-57.459c73.437,-145.85 146.104,-291.954 219.8,-438.058c29.633,-58.492 60.812,-116.208 92.504,-176.508l307.929,-0c-19.583,37.104 -37.366,71.633 -56.175,105.904c-18.812,34.275 -40.458,71.896 -60.041,108.225c-51.534,97.146 -103.071,194.292 -156.15,291.437c-27.571,51.534 -56.175,103.071 -82.975,154.609c-4.051,10.508 -14.529,17.212 -25.767,16.487l-524.892,0c-3.369,-0.752 -6.591,-2.057 -9.533,-3.862" style="fill-rule:nonzero;"/><path d="M2237.68,21.646l872.759,-0c-17.784,85.546 -35.563,169.55 -53.342,255.358l-574.625,0c-15.975,54.625 -24.221,110.029 -35.817,168.004l362.042,0c-18.042,85.809 -35.304,168.779 -51.537,251.75l-658.884,0l-2.833,-2.316c-0.203,-0.934 -0.203,-1.9 -0,-2.834c45.348,-218.529 90.783,-437.04 136.304,-655.533c1.417,-5.025 3.404,-9.871 5.929,-14.429" style="fill-rule:nonzero;"/><path d="M3504.43,444.496l353.792,-0c1.185,11.047 1.185,22.19 -0,33.237c-13.913,64.68 -28.859,128.842 -43.288,194.034c-1.063,7.174 -1.752,14.399 -2.062,21.646c-25.767,5.412 -590.854,7.47 -660.171,2.574c-9.021,-20.354 2.575,-39.679 6.183,-58.233c17.009,-92.25 37.104,-183.725 56.946,-275.458c20.617,-96.629 42,-193.258 62.875,-289.888c3.609,-16.237 5.667,-32.983 8.763,-51.537l876.108,-0c-4.896,44.833 -18.042,86.837 -25.771,128.837c-7.729,42 -16.492,84.263 -27.571,127.038l-540.608,-0c-7.437,-1.031 -14.98,-1.031 -22.417,-0c-5.929,1.804 -14.95,6.958 -15.979,11.854c-9.792,44.321 -18.291,88.9 -25.766,133.221c-0.975,7.516 -1.321,15.101 -1.034,22.675" style="fill-rule:nonzero;"/><path d="M446.817,445.267l354.05,-0c-10.825,86.325 -35.042,166.975 -48.446,250.721l-659.658,-0c-1.542,-24.48 36.075,-200.217 65.966,-337.301c25.771,-110.8 46.125,-222.633 68.8,-334.983c25.771,-5.667 763.763,-7.987 872.5,-2.575c2.708,20.563 0.129,41.513 -7.471,60.813c-10.308,59.52 -23.962,118.791 -36.075,176.766c-3.608,17.521 -4.637,19.325 -22.675,19.584l-524.891,-0c-7.452,-0.775 -14.965,-0.775 -22.417,-0c-5.417,1.291 -13.917,5.925 -14.175,10.05c-5.667,50.25 -25.767,97.916 -27.571,149.195c-0.258,1.546 0.517,2.321 2.063,7.73" style="fill-rule:nonzero;"/><path d="M2008.09,1108.79c3.091,-18.042 5.408,-33.5 8.5,-48.704c12.625,-61.842 25.771,-123.425 38.137,-185.525c2.834,-13.4 9.021,-18.296 21.904,-17.267l867.088,-0c-18.038,85.808 -35.3,168.521 -51.534,251.496l-884.095,-0Z" style="fill-rule:nonzero;"/><path d="M3060.45,1109.56l51.538,-250.721l882.033,-0c0.774,7.108 0.774,14.279 -0,21.387c-14.688,70.088 -30.15,139.917 -44.063,210.009c-2.833,14.945 -9.279,20.358 -23.45,19.325l-866.316,-0l0.258,-0Z" style="fill-rule:nonzero;"/><path d="M1022.73,1108.02c5.929,-31.18 11.342,-59.78 17.267,-88.384c9.791,-47.412 19.841,-94.825 29.375,-142.5c3.608,-17.516 4.637,-18.808 22.416,-19.583l806.28,0c3.334,21.945 0.663,44.388 -7.73,64.938c-11.341,61.07 -25.77,121.625 -37.879,182.954c-24.737,5.925 -713.512,8.758 -829.729,2.575" style="fill-rule:nonzero;"/><path d="M1248.71,21.646l303.034,-0l-140.95,674.6l-302.775,-0c46.9,-225.983 93.795,-450.167 140.696,-674.6" style="fill-rule:nonzero;"/><path d="M5339.62,853.429l438.054,0c-0.901,6.162 -2.457,12.21 -4.642,18.042c-43.546,78.846 -87.35,157.437 -130.641,236.292c-3.749,8.875 -12.811,14.395 -22.417,13.654l-245.571,-0c-3.652,-6.539 -6.342,-13.569 -7.987,-20.875c-4.896,-82.454 -22.159,-163.367 -26.796,-247.113" style="fill-rule:nonzero;"/><path d="M6034.32,858.325l440.887,0c-47.154,87.354 -93.279,172.646 -138.887,257.679l-265.925,0c-12.113,-86.321 -23.708,-170.583 -36.075,-257.679" style="fill-rule:nonzero;"/><path d="M4411.46,1108.79l51.538,-250.209l304.062,0c-17.525,84.263 -34.791,167.234 -51.537,250.209l-304.063,-0Z" style="fill-rule:nonzero;"/><path d="M6842.4,1426.51l128.842,0c-6.7,25.767 -12.884,49.992 -19.584,73.955c-21.387,77.304 -41.229,156.412 -65.191,233.458c-16.784,60.895 -61.173,110.534 -119.821,133.992c-11.666,5.151 -23.975,8.704 -36.592,10.562c-45.307,8.603 -91.917,7.637 -136.829,-2.833c-67.767,-13.942 -115.417,-76.3 -111.058,-145.334c-0.13,-26.051 2.986,-52.018 9.275,-77.3c17.525,-70.087 37.366,-139.662 56.433,-209.491c1.965,-6.014 4.377,-11.872 7.217,-17.525l126.775,-0c-17.004,62.358 -33.5,122.658 -49.475,183.208c-6.442,23.45 -12.109,47.417 -17.263,71.379c-8.5,37.879 0,64.679 25.767,77.304c30.821,16.363 68.75,12.059 95.083,-10.82c14.765,-12.606 25.665,-29.136 31.438,-47.671c16.233,-59.267 33.5,-118.534 49.991,-178.059c8.166,-31.651 16.497,-63.26 24.992,-94.825" style="fill-rule:nonzero;"/><path d="M6957.32,1800.92l87.354,-77.304l20.875,15.716c28.529,21.437 62.405,34.631 97.917,38.138c15.637,1.933 31.487,0.258 46.379,-4.896c10.432,-3.543 17.501,-13.387 17.525,-24.404c-0.003,-9.51 -5.266,-18.277 -13.658,-22.75c-20.716,-11.247 -42.052,-21.313 -63.904,-30.15c-16.492,-7.471 -32.984,-14.688 -48.959,-22.934c-85.291,-43.804 -74.471,-136.825 -34.787,-185.012c32.404,-39.311 79.571,-63.64 130.387,-67.254c66.275,-9.044 133.628,6.352 189.392,43.291l13.142,9.017l14.687,9.021c-21.177,30.041 -45.069,58.073 -71.375,83.741c-7.475,7.734 -15.462,1.292 -23.192,-3.091c-17.774,-11.429 -36.479,-21.342 -55.916,-29.634c-20.391,-9.496 -43.515,-11.415 -65.192,-5.408c-6.1,1.726 -11.916,4.33 -17.267,7.729c-7.263,3.615 -11.874,11.058 -11.875,19.171c0.011,8.614 5.218,16.419 13.167,19.738c17.521,10.05 36.588,17.266 54.883,25.77c18.292,8.5 44.834,19.325 65.967,31.434c61.842,35.562 71.117,99.208 44.833,158.475c-18.959,42.866 -57.29,74.201 -103.07,84.258c-86.546,25.143 -180.014,9.168 -253.296,-43.292c-11.342,-8.241 -20.617,-18.291 -34.017,-29.375" style="fill-rule:nonzero;"/><path d="M7863.58,1538.34l-128.841,-0c-12.315,21.999 -20.359,46.129 -23.709,71.116c-23.187,83.75 -45.35,167.75 -68.025,251.755c0,3.866 -2.833,7.729 -4.637,13.141l-126.779,0l89.933,-333.696c-23.192,-2.316 -45.354,0 -67.254,0l-66.484,0l30.667,-113.891l391.667,-0c-6.338,37.744 -15.205,75.02 -26.542,111.575" style="fill-rule:nonzero;"/><path d="M9250.67,1875.64l-342.459,-0c39.688,-150.225 79.884,-298.134 120.084,-447.846l127.291,-0c-30.404,113.637 -60.041,224.958 -90.704,339.104l213.359,0c-9.792,36.85 -19.067,71.375 -27.571,108.742" style="fill-rule:nonzero;"/><path d="M9477.94,1875.64l-126.521,-0c39.167,-150.484 79.625,-298.392 119.562,-447.334l127.034,0c-39.938,148.425 -79.625,295.821 -120.075,447.334" style="fill-rule:nonzero;"/><path d="M8343.64,1554.58c-0.388,-49.192 -31.23,-93.304 -77.305,-110.542c-31.993,-12.243 -65.981,-18.448 -100.237,-18.3l-179.859,0c-40.458,151 -80.395,299.167 -120.591,449.392l127.033,-0c12.371,-45.35 25.767,-89.929 36.85,-132.958l53.083,-0l57.976,133.475l68.025,-0c23.554,1.083 47.158,0.416 70.604,-2.063l-67.25,-148.167c8.241,-2.833 14.166,-4.891 19.837,-7.208c79.625,-30.15 112.35,-79.883 111.834,-163.629m-143.013,60.812c-18.14,16.616 -41.88,25.818 -66.479,25.767c-7.467,0.387 -14.95,0.387 -22.417,0l-58.237,0c10.308,-37.104 19.325,-70.604 29.375,-107.196c32.862,-2.807 65.95,-1.334 98.433,4.384c20.821,3.425 36.254,21.616 36.254,42.72c0,13.425 -6.258,26.13 -16.929,34.325" style="fill-rule:nonzero;"/><path d="M8763.14,1423.67c-33.237,0 -64.162,1.542 -95.083,0c-19.34,-1.899 -37.951,8.383 -46.637,25.767c-77.305,112.091 -154.609,223.408 -231.913,334.983c-20.354,29.633 -40.196,59.779 -62.358,92.763l124.975,-0c8.73,0.173 16.8,-4.77 20.612,-12.625c11.625,-15.28 22.367,-31.209 32.209,-47.671c6.598,-13.946 21.992,-21.643 37.108,-18.554l146.875,-0c3.867,27.316 7.475,51.537 11.083,77.304l132.704,-0c-23.191,-152.542 -45.866,-301.484 -69.575,-451.967m-179.083,274.425c24.277,-42.891 50.856,-84.438 79.621,-124.458c5.667,44.837 10.308,83.75 15.458,124.458l-95.079,0Z" style="fill-rule:nonzero;"/><path d="M6345.85,1423.67l-92.508,0c-31.95,0 -31.692,0 -48.958,25.767l-262.575,378.791c-10.046,14.425 -19.325,29.375 -30.917,47.409l135.279,-0l40.971,-56.946l1.287,-2.833c6.165,-12.845 20.249,-20.047 34.271,-17.525l128.842,-0c6.958,-0 14.171,-0 20.871,1.804c3.75,24.802 7.357,49.626 10.82,74.47l132.963,0.001c-23.708,-151.775 -46.896,-300.455 -70.346,-450.938m-180.375,274.683c27.313,-42.258 53.596,-82.458 81.942,-126.521c5.667,45.355 10.567,85.038 15.721,126.521l-97.663,0Z" style="fill-rule:nonzero;"/><path d="M9996.39,1424.45l-124.459,-0l-310.758,451.196l138.375,-0l51.533,-75.5l171.875,-0c4.375,25.766 8.5,51.537 12.625,77.304l65.963,-0c21.938,1.648 43.993,0.697 65.708,-2.834c-23.759,-150.033 -47.379,-300.089 -70.862,-450.166m-175.734,274.429c20.132,-43.147 46.147,-83.298 77.3,-119.304c5.154,39.679 10.05,77.304 15.209,119.304l-92.509,-0Z" style="fill-rule:nonzero;"/></g></svg>