<?xml version="1.0" encoding="UTF-8"?>
<svg data-bbox="0 0 1082.11 1579.73" xmlns="http://www.w3.org/2000/svg" viewBox="0 0 1083 1580" fill-rule="evenodd" clip-rule="evenodd" stroke-linejoin="round" stroke-miterlimit="2" data-type="ugc">
    <g>
        <path fill="#221f1f" d="M1082.11 0v1579.73H0V0z"/>
        <path d="M183.85 915.5h-18.23l-3-12.9h-18.46l-3.07 12.9h-17.87l20.48-77.23h19.67zm-24.53-26.78q-3.93-17.25-5.9-32.81h-.23q-2.08 16-5.85 32.81z" fill="#ffffff" fill-rule="nonzero"/>
        <path d="M231.32 838.27H249l22.28 44.54-.64-8.33v-36.21h17.53v77.23h-18l-21.81-43.85.46 9.6v34.25h-17.5z" fill="#bebab9" fill-rule="nonzero"/>
        <path d="M343.42 838.27h16.37q17 0 25.86 9.69t8.85 28.32q0 14.12-4.37 22.79a26.93 26.93 0 0 1-12.2 12.55 38.5 38.5 0 0 1-17.33 3.88h-17.18zM361 854.7V899q8-.69 11.28-5.64t3.3-16.28a48 48 0 0 0-1.16-11.37 16.55 16.55 0 0 0-3.44-7.18 9.83 9.83 0 0 0-4.46-3.09 27.5 27.5 0 0 0-5.52-.74" fill="#bebab9" fill-rule="nonzero"/>
        <path d="M444.93 838.27h20.42q12.38 0 19.55 6.36t7.18 17.3a23.3 23.3 0 0 1-2.72 10.85 18 18 0 0 1-7.93 7.89l14 34.83h-18.51l-14.18-35.17h-.28v35.17h-17.53zm17.53 14.92v18.34q11.63-.22 11.62-8.15c0-3.59-.89-6.16-2.69-7.7s-4.77-2.37-8.93-2.49" fill="#bebab9" fill-rule="nonzero"/>
        <path d="M544 838.27h35.46v16.43h-17.98v14.23H577v16h-15.52v14h18v16.57H544z" fill="#bebab9" fill-rule="nonzero"/>
        <path d="M657.14 917.41q-14 0-21.34-10.73t-7.35-31q0-18.69 7.37-29.13t20.57-10.44q14.07 0 21.49 10.47t7.44 29.91q0 19.44-7.32 30.17t-20.86 10.75m-.63-63.75q-9.48 0-9.49 22.27 0 14.34 2.4 19.15c1.6 3.2 3.93 4.8 7 4.8q4.92 0 7.55-4.8t2.64-18.8q-.03-22.62-10.1-22.62" fill="#bebab9" fill-rule="nonzero"/>
        <path d="M730.13 838.27H772v17.64h-12.1v59.59h-17.79v-59.59h-12z" fill="#bebab9" fill-rule="nonzero"/>
        <path d="M815.67 838.27h41.83v17.64h-12.09v59.59h-17.76v-59.59h-12z" fill="#bebab9" fill-rule="nonzero"/>
        <path d="M958.9 915.5h-18.23l-2.95-12.9h-18.51l-3.07 12.9h-17.87l20.48-77.23h19.67zm-24.53-26.78q-3.95-17.25-5.9-32.81h-.24q-2.07 16-5.84 32.81z" fill="#bebab9" fill-rule="nonzero"/>
        <path fill="#bebab9" d="M958.9 954.93v4.29H123.22v-4.29z"/>
        <path d="M166.841 1067.348v18.4a32.8 32.8 0 0 1-9.984 1.799c-10.171 0-18.424-3.827-24.758-11.47q-9.503-11.466-9.492-30.133c0-11.571 3.194-21.123 9.582-28.646a30.42 30.42 0 0 1 24.206-11.29 34.4 34.4 0 0 1 10.446 1.507v18.461a30.1 30.1 0 0 0-9.512-1.687c-4.567 0-8.36 2.089-11.38 6.277q-4.53 6.283-4.54 15.94 0 10.456 4.56 16.513a14.45 14.45 0 0 0 12.164 6.026 26.9 26.9 0 0 0 8.708-1.697" fill="#ffffff" fill-rule="nonzero"/>
        <path d="M269.653 1085.628h-18.28l-2.964-12.937h-18.611l-3.014 12.937h-17.969l20.55-77.49h19.737zm-24.609-26.878q-3.947-17.293-5.926-32.914h-.23c-1.4 10.717-3.355 21.685-5.866 32.914z" fill="#bebab9" fill-rule="nonzero"/>
        <path d="M315.745 1008.138h20.52c8.29 0 14.832 2.13 19.626 6.378s7.192 10.044 7.192 17.366a23.3 23.3 0 0 1-2.712 10.878 17.98 17.98 0 0 1-7.955 7.925l14.062 34.943h-18.582l-14.222-35.295h-.292v35.295h-17.637zm17.587 14.935v18.401c7.787-.15 11.678-2.872 11.671-8.186 0-3.596-.904-6.177-2.702-7.724-1.797-1.546-4.79-2.34-8.969-2.49" fill="#bebab9" fill-rule="nonzero"/>
        <path d="M413.605 1008.138h16.422c11.383 0 20.035 3.244 25.954 9.723q8.879 9.717 8.848 28.414 0 14.163-4.379 22.87a27.1 27.1 0 0 1-12.254 12.596 38.7 38.7 0 0 1-17.386 3.887h-17.205zm17.587 16.482v44.465c5.356-.462 9.13-2.35 11.32-5.654 2.19-3.305 3.29-8.759 3.304-16.342a48 48 0 0 0-1.155-11.41 16.5 16.5 0 0 0-3.455-7.202 9.8 9.8 0 0 0-4.47-3.103 29 29 0 0 0-5.584-.754z" fill="#bebab9" fill-rule="nonzero"/>
        <path d="M513.875 1008.138h35.586v16.482h-17.999v14.283h15.619v16.07h-15.619v14.062h18.08v16.543h-35.667z" fill="#bebab9" fill-rule="nonzero"/>
        <path d="M600.666 1008.138h17.758l22.348 44.696-.633-8.357v-36.34h17.587v77.491h-18.079l-21.896-43.993.472 9.632v34.361h-17.557z" fill="#bebab9" fill-rule="nonzero"/>
        <path d="M736.854 1087.547c-9.374 0-16.516-3.586-21.424-10.768q-7.363-10.77-7.373-31.136 0-18.742 7.403-29.229c4.935-6.99 11.812-10.466 20.63-10.416 9.375 0 16.566 3.506 21.575 10.507q7.514 10.5 7.453 30.011c0 13.007-2.448 23.102-7.342 30.273q-7.343 10.758-20.922 10.758m-.643-63.971c-6.348 0-9.522 7.452-9.522 22.348 0 9.602.804 16.01 2.41 19.214q2.411 4.806 7.032 4.821 4.94 0 7.573-4.82 2.631-4.822 2.642-18.864-.041-22.702-10.135-22.7" fill="#bebab9" fill-rule="nonzero"/>
        <path d="M815.369 1084.182v-18.08q8.347 4.882 14.061 4.882a7.27 7.27 0 0 0 5.223-1.828 6.36 6.36 0 0 0 1.919-4.852 7.02 7.02 0 0 0-1.547-4.349 29 29 0 0 0-5.303-4.931c-6.074-4.65-10.476-8.97-13.208-12.977a23.23 23.23 0 0 1-4.088-13.379c0-6.7 2.109-12.153 6.327-16.372q6.328-6.328 16.372-6.328a36.6 36.6 0 0 1 14.745 3.194v17.357c-5.223-2.863-9.472-4.3-12.716-4.3a7.7 7.7 0 0 0-5.142 1.598 5.45 5.45 0 0 0-1.879 4.379c0 3.254 2.92 6.91 8.759 10.978a53.3 53.3 0 0 1 10.626 10.145 23.16 23.16 0 0 1 5.374 15.126 21.85 21.85 0 0 1-7.03 16.633c-4.688 4.39-10.627 6.579-17.819 6.589a33.5 33.5 0 0 1-14.674-3.485" fill="#bebab9" fill-rule="nonzero"/>
        <path d="M958.899 1085.628h-18.29l-3.014-12.937h-18.521l-3.084 12.937h-17.928l20.55-77.49h19.737zm-24.618-26.878q-3.948-17.293-5.916-32.914h-.241c-1.386 10.717-3.342 21.685-5.866 32.914z" fill="#bebab9" fill-rule="nonzero"/>
        <path fill="#bebab9" d="M958.9 1121.02v4.29H123.22v-4.29z"/>
        <path d="M167.04 1237.27v18.48a33.2 33.2 0 0 1-10.044 1.809q-15.327 0-24.859-11.51-9.531-11.512-9.531-30.283c0-11.621 3.207-21.203 9.622-28.766a30.55 30.55 0 0 1 24.306-11.34c3.556-.04 7.096.472 10.496 1.517v18.54a30.4 30.4 0 0 0-9.562-1.697q-6.89 0-11.43 6.298-4.54 6.295-4.54 16.07 0 10.483 4.57 16.583a14.54 14.54 0 0 0 12.214 6.087 27.2 27.2 0 0 0 8.758-1.788" fill="#ffffff" fill-rule="nonzero"/>
        <path d="M233.662 1257.539q-14.06 0-21.514-10.818c-4.969-7.211-7.436-17.617-7.403-31.207q0-18.832 7.433-29.348c4.955-7.01 11.862-10.516 20.72-10.526 9.45 0 16.667 3.515 21.656 10.556q7.482 10.56 7.492 30.132c0 13.057-2.457 23.192-7.372 30.393q-7.372 10.803-21.012 10.818m-.643-64.282c-6.368 0-9.555 7.483-9.562 22.438 0 9.632.807 16.07 2.421 19.295 1.614 3.224 3.957 4.841 7.03 4.841 3.302 0 5.84-1.617 7.614-4.841s2.659-9.542 2.652-18.943c-.007-15.167-3.392-22.75-10.155-22.74z" fill="#bebab9" fill-rule="nonzero"/>
        <path d="M305.005 1177.8h17.838l22.468 44.886-.633-8.397v-36.49h17.658v77.811h-18.16l-21.976-44.193.472 9.682v34.501h-17.667z" fill="#bebab9" fill-rule="nonzero"/>
        <path d="M408.88 1254.154v-18.08c5.591 3.265 10.278 4.902 14.061 4.902a7.26 7.26 0 0 0 5.253-1.838 6.43 6.43 0 0 0 1.919-4.861 7.12 7.12 0 0 0-1.547-4.38 28.8 28.8 0 0 0-5.333-4.951q-9.15-7.033-13.259-13.057a23.3 23.3 0 0 1-4.108-13.44c0-6.699 2.117-12.173 6.348-16.431q6.348-6.388 16.442-6.358a36.9 36.9 0 0 1 14.805 3.204v17.436c-5.243-2.882-9.498-4.329-12.766-4.319a7.74 7.74 0 0 0-5.152 1.607 5.45 5.45 0 0 0-1.899 4.4c0 3.264 2.933 6.95 8.799 11.048a53.2 53.2 0 0 1 10.677 10.155 23.2 23.2 0 0 1 5.393 15.176 21.93 21.93 0 0 1-7.03 16.703c-4.688 4.41-10.654 6.61-17.899 6.62a33.7 33.7 0 0 1-14.704-3.536" fill="#bebab9" fill-rule="nonzero"/>
        <path d="M490.537 1177.8h18.13v54.79a8.7 8.7 0 0 0 2.009 6.086 7.84 7.84 0 0 0 5.485 2.25c2.12 0 4.15-.864 5.623-2.39a9.76 9.76 0 0 0 2.07-6.59V1177.8h18.008v51.064q0 10.426-2.742 16.723a18.55 18.55 0 0 1-8.035 9.24q-5.333 2.942-14.895 2.944c-9.374 0-16-2.411-19.877-7.222s-5.803-12.957-5.776-24.427z" fill="#bebab9" fill-rule="nonzero"/>
        <path d="M587.713 1177.8h17.657v59.801h13.992v18.01h-31.649z" fill="#bebab9" fill-rule="nonzero"/>
        <path d="M653.17 1177.8h42.185v17.777H683.12v60.033h-17.888v-60.033H653.18z" fill="#bebab9" fill-rule="nonzero"/>
        <path fill="#bebab9" fill-rule="nonzero" d="M754.413 1177.8v77.81h-17.657v-77.81z"/>
        <path d="M801.52 1177.8h17.868l22.438 44.886-.632-8.397v-36.49h17.657v77.811h-18.08l-21.976-44.193.472 9.682v34.501H801.52z" fill="#bebab9" fill-rule="nonzero"/>
        <path d="M958.9 1212.01v13.056c0 10.105-2.442 18.04-7.323 23.815s-11.558 8.658-20.028 8.658q-14.221 0-21.966-10.697c-5.162-7.132-7.747-17.306-7.754-30.514q0-19.993 7.724-30.343c5.15-6.9 12.676-10.355 22.579-10.345q16.683 0 24.106 17.778l-16.844 6.94a24 24 0 0 0-3.907-5.454 6.88 6.88 0 0 0-4.952-1.717c-3.576 0-6.11 1.878-7.603 5.624q-2.24 5.623-2.25 18.22 0 11.704 2.53 17.216 2.532 5.514 8.036 5.514c5.906 0 8.96-4.219 9.16-12.646h-8.226v-15.066z" fill="#bebab9" fill-rule="nonzero"/>
        <path fill="#bebab9" d="M958.9 1297.11v4.29H123.22v-4.29z"/>
        <path d="M123.198 1346.99h35.843v16.611h-18.143v14.374h15.754v16.198h-15.724v14.202h18.234v16.662h-35.964z" fill="#ffffff" fill-rule="nonzero"/>
        <path d="M214.913 1346.99h17.891l22.508 45.016-.645-8.417v-36.6h17.71v78.048h-18.143l-22.035-44.351.464 9.707v34.603h-17.75z" fill="#bebab9" fill-rule="nonzero"/>
        <path d="M384.605 1381.311v13.104c0 10.13-2.447 18.083-7.338 23.878-4.892 5.796-11.569 8.69-20.029 8.7q-14.262-.001-22.034-10.736c-5.181-7.156-7.792-17.357-7.832-30.592 0-13.365 2.583-23.505 7.751-30.43q7.752-10.387 22.65-10.372c11.148 0 19.211 5.947 24.19 17.83l-16.893 6.956a24 24 0 0 0-3.91-5.463 6.95 6.95 0 0 0-4.93-1.704c-3.588 0-6.131 1.875-7.63 5.635s-2.251 9.848-2.258 18.274q0 11.748 2.55 17.267 2.55 5.518 8.064 5.533c5.927 0 8.988-4.233 9.183-12.69h-8.246v-15.12z" fill="#bebab9" fill-rule="nonzero"/>
        <path fill="#bebab9" fill-rule="nonzero" d="M457.783 1346.99v78.047h-17.71v-78.047z"/>
        <path d="M516.87 1346.99h17.892l22.508 45.016-.645-8.417v-36.6h17.71v78.048H556.19l-22.044-44.351.474 9.707v34.603h-17.75z" fill="#bebab9" fill-rule="nonzero"/>
        <path d="M632.898 1346.99H668.7v16.611h-18.144v14.374h15.725v16.198h-15.725v14.202h18.245v16.662h-35.904z" fill="#bebab9" fill-rule="nonzero"/>
        <path d="M724.613 1346.99h35.813v16.611h-18.143v14.374h15.724v16.198h-15.724v14.202h18.234v16.662h-35.904z" fill="#bebab9" fill-rule="nonzero"/>
        <path d="M816.328 1346.99h20.633c8.34 0 14.925 2.147 19.757 6.43 4.83 4.284 7.247 10.12 7.247 17.489a23.45 23.45 0 0 1-2.742 10.956 18.15 18.15 0 0 1-8.064 7.983l14.112 35.189h-18.617l-14.323-35.541h-.323v35.54h-17.68zm17.71 15.12v18.516c7.83-.152 11.746-2.903 11.753-8.236 0-3.628-.917-6.219-2.721-7.781s-4.829-2.42-9.062-2.53z" fill="#bebab9" fill-rule="nonzero"/>
        <path d="M919.141 1423.575v-18.143c5.611 3.276 10.315 4.919 14.112 4.919a7.26 7.26 0 0 0 5.261-1.845 6.43 6.43 0 0 0 1.936-4.879 7.16 7.16 0 0 0-1.553-4.384 29.3 29.3 0 0 0-5.342-4.97c-6.115-4.707-10.55-9.071-13.305-13.103a23.35 23.35 0 0 1-4.123-13.467c0-6.723 2.124-12.216 6.37-16.49s9.745-6.4 16.491-6.37a36.8 36.8 0 0 1 14.847 3.215v17.448q-7.892-4.324-12.8-4.324a7.77 7.77 0 0 0-5.172 1.603 5.49 5.49 0 0 0-1.905 4.414c0 3.276 2.944 6.976 8.83 11.088a53.5 53.5 0 0 1 10.674 10.21 23.28 23.28 0 0 1 5.403 15.221 22 22 0 0 1-7.056 16.753c-4.704 4.425-10.687 6.642-17.952 6.632a33.6 33.6 0 0 1-14.716-3.528" fill="#bebab9" fill-rule="nonzero"/>
        <path fill="#bebab9" d="M958.9 1449.72v4.29H123.22v-4.29z"/>
        <path d="M958.9 207.62v-81.91H615.49v485.73H958.9v-90.72H709.73V458.3H958.9v-4.29H709.73v-62.43H958.9v-4.29H709.73v-63.41H958.9v-4.3H709.73v-60.77H958.9v-4.29H709.73v-46.9z" fill="#bebab9" fill-rule="nonzero"/>
        <path d="M599.09 624.43V125.71H123.22V130h470.83l-48.3 59.12H123.22v4.29h419l-49.91 61.1H123.22v4.29h365.6l-49.65 60.77h-316v4.3h312.5l-51.81 63.41H123.22v4.29h257.13l-51 62.43H123.22v4.29h202.63l-51 62.42H123.22V525h148.13l-48.57 59.45h-99.56v4.29h96.05L175 642.92h-51.8v4.3h48.3l-48.3 59.12h835.7v-81.91zM512.89 702h-259l44.79-54.82h214.21zm0-181.32H419l-74.11 90.72h168v31.48H302.23L453.06 458.3h59.83zm0-66.71h-56.32l56.32-68.94z" fill="#bebab9" fill-rule="nonzero"/>
    </g>
</svg>
