<?xml version="1.0" encoding="UTF-8" standalone="no"?><!DOCTYPE svg PUBLIC "-//W3C//DTD SVG 1.1//EN" "http://www.w3.org/Graphics/SVG/1.1/DTD/svg11.dtd"><svg width="100%" height="100%" viewBox="0 0 9284 1759" version="1.1" xmlns="http://www.w3.org/2000/svg" xmlns:xlink="http://www.w3.org/1999/xlink" xml:space="preserve" xmlns:serif="http://www.serif.com/" style="fill-rule:evenodd;clip-rule:evenodd;stroke-linejoin:round;stroke-miterlimit:2;"><g><path d="M144.529,1624.41c9.547,-0 18.04,-1.224 25.479,-3.671c7.054,-2.271 13.768,-5.486 19.959,-9.559c5.861,-3.916 10.983,-8.326 15.366,-13.229c4.395,-4.897 8.245,-9.723 11.55,-14.479c2.031,1.667 3.655,4.253 4.871,7.758c1.217,3.506 1.82,7.075 1.809,10.709c-0,6.03 -1.463,12.366 -4.388,19.008c-2.917,6.656 -7.821,12.779 -14.712,18.371c-6.859,5.6 -15.956,10.222 -27.292,13.866c-11.328,3.648 -25.325,5.471 -41.992,5.471c-22.667,0 -42.462,-3.784 -59.387,-11.354c-16.928,-7.555 -30.991,-18.264 -42.188,-32.125c-11.197,-13.861 -19.6,-30.528 -25.208,-50c-5.6,-19.453 -8.4,-41.011 -8.4,-64.675c-0,-23.244 2.865,-44.529 8.596,-63.854c5.73,-19.325 14.227,-35.912 25.491,-49.763c11.343,-13.928 25.793,-25.007 42.188,-32.345c16.861,-7.7 36.367,-11.55 58.517,-11.55c15.016,-0 28.094,1.298 39.233,3.896c11.144,2.577 20.405,6.109 27.783,10.595c7.378,4.486 12.913,9.768 16.604,15.846c3.689,6.095 5.534,12.65 5.534,19.667c-0,5.303 -1.05,10.228 -3.15,14.775c-2.084,4.567 -5.2,8.525 -9.35,11.875c-4.572,3.583 -9.788,6.257 -15.367,7.875c-6.82,1.982 -13.898,2.94 -21,2.842c0,-7.153 -0.703,-14.259 -2.108,-21.317c-1.292,-6.763 -3.715,-13.26 -7.167,-19.217c-3.267,-5.623 -7.805,-10.403 -13.25,-13.958c-5.472,-3.578 -12.287,-5.367 -20.446,-5.367c-12.333,0 -22.767,2.865 -31.3,8.596c-8.525,5.747 -15.365,14.154 -20.521,25.221c-5.155,11.067 -8.879,24.682 -11.171,40.846c-2.291,16.164 -3.437,34.609 -3.437,55.337c-0,20.728 1.401,38.857 4.204,54.388c2.795,15.547 7.313,28.464 13.554,38.75c6.242,10.305 14.359,18.009 24.35,23.112c9.984,5.106 22.232,7.659 36.746,7.659"/><path d="M525.817,1500.49c-0,23.672 -2.899,45.239 -8.696,64.7c-5.792,19.464 -14.317,36.126 -25.575,49.987c-11.142,13.766 -25.326,24.763 -41.433,32.125c-16.353,7.57 -35.159,11.354 -56.417,11.354c-22.267,0 -41.711,-3.784 -58.334,-11.354c-16.174,-7.204 -30.359,-18.229 -41.333,-32.125c-10.944,-13.861 -19.155,-30.558 -24.633,-50.091c-5.467,-19.528 -8.2,-41.199 -8.2,-65.013c-0,-23.792 2.733,-45.385 8.2,-64.779c5.466,-19.395 13.71,-35.953 24.729,-49.675c11.072,-13.761 25.279,-24.672 41.429,-31.821c16.608,-7.483 36.114,-11.225 58.517,-11.225c21.128,-0 39.878,3.742 56.25,11.225c16.069,7.282 30.218,18.216 41.316,31.929c11.198,13.792 19.692,30.383 25.484,49.775c5.797,19.395 8.696,41.061 8.696,65m-198.946,0c-0,20.583 1.211,38.931 3.633,55.042c2.414,16.094 6.295,29.71 11.642,40.846c5.339,11.127 12.244,19.634 20.716,25.52c8.462,5.878 18.739,8.817 30.834,8.817c12.214,0 22.557,-2.944 31.029,-8.833c8.461,-5.867 15.301,-14.372 20.521,-25.517c5.222,-11.119 9.007,-24.73 11.354,-40.833c2.361,-16.111 3.542,-34.453 3.542,-55.025c-0,-20.592 -1.181,-38.935 -3.542,-55.029c-2.344,-16.103 -6.131,-29.718 -11.358,-40.846c-5.206,-11.128 -12.011,-19.6 -20.417,-25.417c-8.406,-5.817 -18.656,-8.725 -30.75,-8.725c-12.217,0 -22.592,2.908 -31.125,8.725c-8.533,5.817 -15.468,14.289 -20.804,25.417c-5.347,11.128 -9.228,24.743 -11.642,40.846c-2.422,16.094 -3.633,34.437 -3.633,55.029"/><path d="M776.508,1654.45l-152.541,-236.9l-0,186.067c-0,6.164 0.541,11.068 1.625,14.712c1.077,3.647 2.511,6.447 4.3,8.4c1.777,1.953 3.908,3.246 6.391,3.879c2.484,0.634 5.067,0.95 7.75,0.95l16.405,0l-0,22.892l-102.146,0l-0,-22.892l16.433,0c2.794,0 5.399,-0.316 7.813,-0.95c2.43,-0.633 4.565,-1.925 6.404,-3.875c1.839,-1.95 3.271,-4.751 4.296,-8.404c1.016,-3.644 1.525,-8.547 1.525,-14.708l-0,-207.292c-0,-5.73 -0.539,-10.314 -1.617,-13.75c-1.083,-3.43 -2.55,-6.053 -4.4,-7.866c-1.769,-1.764 -3.968,-3.036 -6.379,-3.688c-2.497,-0.639 -5.065,-0.955 -7.642,-0.938l-16.433,0.001l-0,-22.696l86.887,-0l138.021,214.65l0,-165.717c0,-5.728 -0.539,-10.311 -1.617,-13.75c-1.083,-3.428 -2.545,-6.049 -4.387,-7.862c-1.772,-1.766 -3.976,-3.038 -6.392,-3.688c-2.498,-0.64 -5.067,-0.955 -7.646,-0.937l-16.404,-0l0,-22.696l102.133,-0l0,22.696l-16.416,-0c-2.684,-0 -5.227,0.312 -7.629,0.937c-2.431,0.636 -4.567,1.935 -6.409,3.896c-1.841,1.961 -3.273,4.76 -4.296,8.396c-1.016,3.647 -1.525,8.548 -1.525,14.704l0,256.429l-36.104,0Z"/><path d="M958.863,1658.66c-17.57,0 -32.209,-1.823 -43.917,-5.471c-11.708,-3.647 -21.097,-8.334 -28.167,-14.062c-7.066,-5.747 -12.093,-12.192 -15.079,-19.333c-2.901,-6.699 -4.428,-13.913 -4.492,-21.213c0,-7.422 1.242,-13.65 3.725,-18.683c2.484,-5.034 5.791,-9.165 9.921,-12.396c4.142,-3.214 8.856,-5.524 14.142,-6.929c5.391,-1.408 10.941,-2.116 16.512,-2.109c0,12.325 1.336,23.145 4.009,32.459c2.672,9.314 6.361,17.083 11.066,23.308c4.706,6.225 10.341,10.913 16.904,14.063c6.717,3.163 14.06,4.778 21.484,4.725c7.639,-0 14.453,-1.185 20.441,-3.554c5.964,-2.387 11.052,-5.681 15.263,-9.884c4.211,-4.203 7.392,-9.137 9.542,-14.804c2.172,-5.667 3.258,-11.786 3.258,-18.358c-0,-7.292 -1.342,-13.773 -4.025,-19.442c-2.932,-6.013 -7.051,-11.371 -12.108,-15.75c-5.425,-4.836 -12.241,-9.456 -20.446,-13.858c-8.203,-4.417 -17.781,-9.148 -28.734,-14.192c-13.622,-6.156 -25.108,-12.489 -34.458,-19c-9.355,-6.508 -16.897,-13.543 -22.625,-21.104c-5.627,-7.335 -9.809,-15.674 -12.321,-24.571c-2.559,-9.445 -3.807,-19.198 -3.708,-28.983c-0,-13.161 2.417,-25.063 7.25,-35.705c4.682,-10.41 11.518,-19.712 20.054,-27.291c8.861,-7.762 19.172,-13.692 30.338,-17.446c11.719,-4.056 24.45,-6.083 38.191,-6.083c14.384,-0 26.796,1.298 37.238,3.895c10.425,2.578 19.05,6.11 25.875,10.596c6.794,4.481 11.85,9.763 15.166,15.846c3.317,6.083 4.97,12.639 4.959,19.667c-0,5.033 -0.985,9.719 -2.954,14.058c-2.068,4.427 -5.145,8.307 -8.984,11.329c-3.991,3.228 -9.018,5.745 -15.079,7.55c-6.03,1.825 -13.061,2.738 -21.092,2.738c0,-6.009 -0.729,-12.481 -2.187,-19.417c-1.409,-6.762 -3.824,-13.274 -7.163,-19.321c-3.166,-5.815 -7.566,-10.868 -12.891,-14.804c-5.286,-3.925 -11.684,-5.887 -19.192,-5.887c-5.208,-0 -10.169,0.841 -14.883,2.525c-4.603,1.599 -8.805,4.176 -12.317,7.554c-3.606,3.545 -6.436,7.802 -8.308,12.5c-2.031,4.972 -3.046,10.68 -3.046,17.125c-0,6.022 0.889,11.689 2.667,17c1.772,5.333 5.05,10.551 9.833,15.654c4.775,5.111 11.329,10.219 19.662,15.325c8.342,5.122 19.132,10.622 32.371,16.5c13.359,6.006 24.748,12.158 34.167,18.458c9.419,6.3 17.153,13.059 23.2,20.275c5.891,6.983 10.368,15.046 13.179,23.738c2.733,8.611 4.1,18.164 4.1,28.658c0,13.861 -2.482,26.57 -7.446,38.125c-4.835,11.372 -12.139,21.528 -21.383,29.729c-9.294,8.253 -20.465,14.689 -33.513,19.309c-13.047,4.619 -27.718,6.933 -44.012,6.941"/><path d="M1370.5,1370.09l-16.796,-0c-2.675,-0 -5.223,0.312 -7.645,0.937c-2.42,0.633 -4.55,1.932 -6.392,3.896c-1.85,1.953 -3.282,4.751 -4.296,8.396c-1.014,3.644 -1.526,8.544 -1.537,14.7l-0,167.816c-0,14.411 -1.875,27.359 -5.626,38.842c-3.758,11.486 -9.613,21.218 -17.566,29.196c-7.95,7.986 -18.097,14.114 -30.442,18.383c-12.361,4.272 -27.065,6.409 -44.112,6.409c-17.059,-0 -32.302,-1.789 -45.729,-5.367c-13.423,-3.558 -24.777,-9.267 -34.063,-17.125c-9.306,-7.828 -16.407,-17.939 -21.304,-30.333c-4.903,-12.398 -7.35,-27.416 -7.342,-45.055l0,-164.454c0,-5.728 -0.543,-10.311 -1.629,-13.75c-1.094,-3.428 -2.557,-6.048 -4.387,-7.862c-1.748,-1.753 -3.92,-3.024 -6.305,-3.688c-2.464,-0.645 -5.003,-0.961 -7.55,-0.937l-16.795,-0l-0,-22.696l134.804,-0l-0,22.696l-16.409,-0c-2.672,-0 -5.219,0.312 -7.641,0.937c-2.431,0.634 -4.557,1.932 -6.379,3.896c-1.862,1.953 -3.299,4.751 -4.313,8.396c-1.014,3.644 -1.521,8.544 -1.521,14.7l0,166.125c0,12.039 1.361,22.155 4.084,30.35c2.752,8.183 6.673,14.762 11.762,19.737c5.089,4.975 11.196,8.543 18.321,10.705c7.117,2.177 15.137,3.262 24.062,3.254c8.645,-0 16.47,-1.224 23.475,-3.671c6.791,-2.309 12.918,-6.238 17.85,-11.446c4.917,-5.183 8.702,-11.764 11.355,-19.742c2.675,-7.986 4.012,-17.434 4.012,-28.345l0,-168.659c0,-5.728 -0.504,-10.311 -1.512,-13.75c-1.042,-3.428 -2.473,-6.048 -4.292,-7.862c-1.777,-1.769 -3.987,-3.04 -6.408,-3.688c-2.494,-0.639 -5.06,-0.954 -7.634,-0.937l-16.429,-0l0,-22.696l102.342,-0l-0.013,22.692Z"/><path d="M1387.69,1654.45l-0,-22.892l16.433,0c2.925,0 5.599,-0.316 8.021,-0.95c2.43,-0.656 4.618,-2.002 6.3,-3.875c1.778,-1.955 3.175,-4.757 4.192,-8.404c1.016,-3.647 1.524,-8.55 1.524,-14.708l0.001,-205.604c-0,-6.161 -0.507,-11.064 -1.521,-14.709c-1.017,-3.63 -2.416,-6.426 -4.196,-8.387c-1.679,-1.88 -3.868,-3.234 -6.3,-3.896c-2.622,-0.658 -5.318,-0.973 -8.021,-0.937l-16.433,-0l-0,-22.696l134.987,-0l0,22.696l-16.408,-0c-2.681,-0 -5.259,0.312 -7.734,0.937c-2.434,0.603 -4.65,1.882 -6.391,3.688c-1.789,1.813 -3.221,4.434 -4.296,7.862c-1.075,3.428 -1.618,8.011 -1.629,13.75l-0,231.875l72.733,0c9.167,0 16.299,-3.19 21.396,-9.571c5.083,-6.361 8.772,-15.632 11.067,-27.812l6.3,-32.355l21.966,0l-2.862,95.988l-229.129,-0Z"/><path d="M1763.84,1603.62c-0,6.164 0.508,11.068 1.525,14.712c1.016,3.645 2.447,6.445 4.291,8.4c1.845,1.956 3.977,3.249 6.396,3.879c2.422,0.625 5.035,0.942 7.838,0.95l16.408,0l-0,22.892l-134.988,0l0,-22.892l16.417,0c2.928,0 5.607,-0.316 8.038,-0.95c2.426,-0.658 4.612,-2.004 6.291,-3.875c1.786,-1.955 3.188,-4.757 4.204,-8.404c1.017,-3.647 1.528,-8.55 1.534,-14.708l-0,-229.954l-31.325,-0c-5.861,-0 -10.761,0.702 -14.7,2.108c-3.95,1.389 -7.163,3.376 -9.638,5.963c-2.472,2.605 -4.316,5.795 -5.533,9.57c-1.217,3.775 -2.077,8.046 -2.579,12.813l-2.667,26.679l-26.354,0l2.096,-83.396l243.616,0l1.917,83.396l-26.158,0l-2.867,-26.692c-0.428,-4.342 -1.292,-8.63 -2.579,-12.8c-1.094,-3.569 -2.986,-6.842 -5.534,-9.571c-2.706,-2.705 -6.004,-4.746 -9.633,-5.962c-3.95,-1.417 -8.854,-2.119 -14.712,-2.108l-31.304,-0l-0,229.95Z"/><path d="M1871.34,1654.45l-0,-22.892l16.433,0c2.917,0 5.586,-0.316 8.008,-0.95c2.425,-0.658 4.609,-2.004 6.288,-3.875c1.797,-1.955 3.2,-4.757 4.208,-8.404c1.022,-3.644 1.533,-8.547 1.533,-14.708l0,-205.396c0,-6.161 -0.512,-11.061 -1.537,-14.7c-1.025,-3.639 -2.427,-6.438 -4.204,-8.396c-1.666,-1.892 -3.856,-3.248 -6.292,-3.896c-2.616,-0.661 -5.306,-0.98 -8.004,-0.95l-16.434,0l0,-22.887l134.988,-0l-0,22.887l-16.417,0c-2.797,0 -5.441,0.317 -7.933,0.95c-2.472,0.63 -4.699,1.988 -6.392,3.896c-1.777,1.961 -3.18,4.76 -4.208,8.396c-1.014,3.647 -1.517,8.553 -1.508,14.717l-0,205.387c-0,6.156 0.502,11.061 1.508,14.717c1.028,3.628 2.431,6.422 4.208,8.383c1.778,1.953 3.909,3.246 6.392,3.879c2.483,0.634 5.126,0.95 7.929,0.95l16.408,0l0,22.892l-134.975,0Z"/><path d="M2246.34,1654.45l-152.551,-236.9l0,186.067c0,6.164 0.538,11.068 1.613,14.712c1.075,3.645 2.507,6.445 4.296,8.4c1.789,1.956 3.925,3.249 6.408,3.879c2.472,0.625 5.046,0.942 7.721,0.95l16.404,0l0,22.892l-102.121,0l0,-22.892l16.409,0c2.802,0 5.414,-0.316 7.833,-0.95c2.419,-0.633 4.551,-1.925 6.396,-3.875c1.844,-1.95 3.276,-4.751 4.296,-8.404c1.019,-3.653 1.527,-8.555 1.525,-14.708l-0,-207.292c-0,-5.73 -0.542,-10.314 -1.625,-13.75c-1.078,-3.43 -2.542,-6.053 -4.392,-7.866c-1.772,-1.766 -3.976,-3.038 -6.392,-3.688c-2.496,-0.639 -5.064,-0.955 -7.641,-0.938l-16.409,0.001l0,-22.696l86.863,-0l138.033,214.65l0,-165.717c0,-5.728 -0.541,-10.311 -1.625,-13.75c-1.078,-3.428 -2.541,-6.049 -4.391,-7.862c-1.769,-1.764 -3.968,-3.036 -6.38,-3.688c-2.496,-0.639 -5.064,-0.955 -7.641,-0.937l-16.421,-0l-0,-22.696l102.137,-0l0,22.696l-16.408,-0c-2.692,-0 -5.239,0.312 -7.642,0.937c-2.43,0.636 -4.562,1.935 -6.395,3.896c-1.848,1.953 -3.28,4.751 -4.296,8.396c-1.017,3.644 -1.529,8.546 -1.538,14.704l0,256.429l-36.067,0Z"/><path d="M2490.72,1658.66c-24.183,0 -45.281,-3.784 -63.292,-11.354c-18.014,-7.555 -33.001,-18.264 -44.962,-32.125c-11.961,-13.861 -20.872,-30.528 -26.734,-50c-5.861,-19.453 -8.791,-41.011 -8.791,-64.675c-0,-23.244 3.125,-44.529 9.375,-63.854c6.228,-19.314 15.453,-35.901 27.675,-49.763c12.222,-13.861 27.435,-24.643 45.637,-32.345c18.203,-7.703 39.266,-11.553 63.188,-11.55c16.294,-0 30.516,1.298 42.666,3.896c12.156,2.577 22.339,6.109 30.55,10.595c8.212,4.486 14.353,9.768 18.425,15.846c4.081,6.095 6.121,12.65 6.121,19.667c0,5.033 -1.084,9.755 -3.254,14.167c-2.32,4.572 -5.652,8.557 -9.742,11.65c-4.322,3.361 -9.604,5.986 -15.845,7.875c-6.242,1.888 -13.491,2.831 -21.746,2.829c-0,-8.681 -0.964,-16.663 -2.892,-23.946c-1.644,-6.77 -4.662,-13.129 -8.867,-18.683c-4.016,-5.184 -9.223,-9.325 -15.179,-12.071c-6.111,-2.875 -13.298,-4.313 -21.562,-4.313c-14.264,0 -26.388,2.865 -36.371,8.596c-10,5.747 -18.15,14.154 -24.45,25.221c-6.3,11.066 -10.879,24.682 -13.738,40.846c-2.858,16.164 -4.29,34.609 -4.295,55.337c-0.006,20.728 1.487,39.106 4.479,55.133c2.986,16.023 7.825,29.499 14.516,40.43c6.675,10.911 15.33,19.209 25.963,24.895c10.633,5.667 23.646,8.5 39.037,8.5c4.845,0 9.68,-0.212 14.505,-0.637c4.766,-0.398 9.495,-1.168 14.141,-2.304l0,-63.217c0,-11.483 -2.357,-19.465 -7.071,-23.946c-4.705,-4.477 -11.641,-6.716 -20.808,-6.716l-5.154,-0l-0,-22.684l122.958,0l0,22.684l-5.146,-0c-3.95,-0 -7.387,0.525 -10.312,1.575c-2.895,1.029 -5.424,2.891 -7.267,5.35c-1.908,2.519 -3.305,5.844 -4.191,9.975c-0.986,5.086 -1.435,10.261 -1.342,15.441l-0,70.575c-14.705,7.48 -30.202,13.289 -46.2,17.317c-16.38,3.943 -33.178,5.885 -50.025,5.783"/><path d="M2837.2,1628.2l78.292,0c3.944,0 7.313,-0.807 10.108,-2.421c2.805,-1.605 5.222,-3.88 7.25,-6.825c2.042,-2.933 3.669,-6.396 4.883,-10.387c1.2,-3.995 2.125,-8.374 2.775,-13.138l3.046,-20.158l27.108,-0l-2.862,79.166l-229.113,0l0,-22.875l16.417,0c2.806,0 5.418,-0.283 7.838,-0.85c2.419,-0.566 4.547,-1.719 6.383,-3.458c1.855,-1.755 3.292,-4.348 4.308,-7.779c1.017,-3.431 1.529,-7.944 1.538,-13.542l-0,-207.916c-0,-6.161 -0.513,-11.064 -1.538,-14.709c-1.016,-3.63 -2.419,-6.426 -4.208,-8.387c-1.668,-1.893 -3.861,-3.25 -6.3,-3.896c-2.622,-0.658 -5.318,-0.973 -8.021,-0.938l-16.404,0l-0,-22.695l217.071,-0l1.533,79.195l-27.3,0l-1.917,-20.375c-1.014,-10.505 -3.43,-18.558 -7.25,-24.158c-3.819,-5.6 -9.736,-8.398 -17.75,-8.396l-65.883,0l0,107.525l92.8,0l0,25.834l-92.8,-0l-0.004,121.183Z"/><path d="M3212.2,1654.45l-152.55,-236.9l-0,186.067c-0,6.164 0.542,11.068 1.625,14.712c1.078,3.647 2.511,6.447 4.3,8.4c1.778,1.953 3.908,3.246 6.392,3.879c2.472,0.625 5.05,0.942 7.733,0.95l16.408,0l0,22.892l-102.137,0l-0,-22.892l16.408,0c2.806,0 5.418,-0.316 7.838,-0.95c2.419,-0.633 4.555,-1.925 6.408,-3.875c1.83,-1.955 3.258,-4.757 4.283,-8.404c1.025,-3.647 1.532,-8.55 1.521,-14.708l0,-207.292c0,-5.73 -0.537,-10.314 -1.612,-13.75c-1.084,-3.43 -2.55,-6.053 -4.4,-7.866c-1.77,-1.765 -3.971,-3.036 -6.384,-3.688c-2.496,-0.639 -5.065,-0.955 -7.641,-0.938l-16.409,0.001l0,-22.696l86.854,-0l138.046,214.65l0,-165.717c0,-5.728 -0.541,-10.311 -1.625,-13.75c-1.078,-3.428 -2.54,-6.049 -4.387,-7.862c-1.774,-1.767 -3.979,-3.038 -6.396,-3.688c-2.497,-0.639 -5.065,-0.955 -7.642,-0.937l-16.408,-0l-0,-22.696l102.137,-0l0,22.696l-16.416,-0c-2.684,-0 -5.228,0.312 -7.634,0.937c-2.43,0.636 -4.565,1.935 -6.404,3.896c-1.839,1.961 -3.272,4.76 -4.3,8.396c-1.014,3.647 -1.521,8.548 -1.521,14.704l0,256.429l-36.087,0Z"/><path d="M3456.58,1658.66c-24.183,0 -45.276,-3.784 -63.279,-11.354c-18.014,-7.555 -33.005,-18.264 -44.975,-32.125c-11.961,-13.861 -20.872,-30.528 -26.733,-50c-5.85,-19.453 -8.775,-41.011 -8.775,-64.675c-0,-23.244 3.121,-44.529 9.362,-63.854c6.234,-19.314 15.461,-35.901 27.684,-49.763c12.222,-13.861 27.434,-24.643 45.637,-32.345c18.195,-7.7 39.253,-11.55 63.175,-11.55c16.311,-0 30.535,1.298 42.671,3.896c12.161,2.577 22.349,6.109 30.563,10.595c8.202,4.481 14.343,9.763 18.42,15.846c4.073,6.095 6.114,12.65 6.125,19.667c0,5.033 -1.086,9.755 -3.258,14.167c-2.32,4.572 -5.652,8.557 -9.742,11.65c-4.322,3.361 -9.604,5.986 -15.845,7.875c-6.242,1.888 -13.495,2.831 -21.759,2.829c0,-8.681 -0.954,-16.663 -2.862,-23.946c-1.685,-6.76 -4.709,-13.113 -8.892,-18.684c-4.014,-5.182 -9.218,-9.323 -15.171,-12.07c-6.119,-2.875 -13.311,-4.313 -21.575,-4.313c-14.253,0 -26.375,2.865 -36.367,8.596c-9.991,5.747 -18.138,14.154 -24.441,25.221c-6.311,11.066 -10.895,24.682 -13.75,40.846c-2.856,16.164 -4.288,34.609 -4.296,55.337c0,20.722 1.493,39.1 4.479,55.133c2.995,16.023 7.834,29.499 14.517,40.43c6.683,10.911 15.337,19.209 25.962,24.895c10.636,5.667 23.653,8.5 39.05,8.5c4.845,0 9.681,-0.212 14.509,-0.637c4.765,-0.398 9.492,-1.169 14.137,-2.304l0,-63.217c0,-11.483 -2.357,-19.465 -7.071,-23.946c-4.714,-4.48 -11.648,-6.719 -20.804,-6.716l-5.158,-0l-0,-22.684l122.958,0l0,22.684l-5.158,-0c-3.95,-0 -7.388,0.525 -10.313,1.575c-2.925,1.041 -5.341,2.825 -7.25,5.35c-1.911,2.519 -3.314,5.844 -4.208,9.975c-0.981,5.086 -1.427,10.262 -1.329,15.441l-0,70.575c-14.708,7.481 -30.207,13.289 -46.209,17.317c-16.381,3.944 -33.18,5.886 -50.029,5.783"/><path d="M3602.85,1654.45l0,-22.892l16.404,0c2.945,0 5.622,-0.316 8.034,-0.95c2.431,-0.655 4.621,-2.002 6.304,-3.875c1.777,-1.955 3.179,-4.757 4.204,-8.404c1.017,-3.644 1.525,-8.547 1.525,-14.708l-0,-205.396c-0,-6.161 -0.508,-11.061 -1.525,-14.7c-1.017,-3.639 -2.42,-6.438 -4.208,-8.396c-1.668,-1.893 -3.862,-3.249 -6.3,-3.896c-2.622,-0.662 -5.318,-0.981 -8.021,-0.95l-16.404,0l-0,-22.887l134.97,-0l0,22.887l-16.404,0c-2.676,-0.011 -5.343,0.308 -7.941,0.95c-2.47,0.632 -4.693,1.989 -6.384,3.896c-1.786,1.961 -3.191,4.76 -4.216,8.396c-1.017,3.647 -1.525,8.553 -1.525,14.717l-0,205.387c-0,6.156 0.508,11.061 1.525,14.717c1.025,3.628 2.427,6.422 4.208,8.383c1.778,1.953 3.912,3.246 6.404,3.879c2.472,0.625 5.111,0.942 7.917,0.95l16.416,0l0,22.892l-134.983,0Z"/><path d="M3977.83,1654.45l-152.55,-236.9l0,186.067c0,6.164 0.548,11.068 1.642,14.712c1.075,3.647 2.503,6.447 4.283,8.4c1.781,1.953 3.911,3.246 6.392,3.879c2.481,0.634 5.058,0.95 7.733,0.95l16.421,0l0,22.892l-102.137,0l-0,-22.892l16.408,0c2.806,0 5.414,-0.316 7.825,-0.95c2.431,-0.633 4.561,-1.925 6.392,-3.875c1.861,-1.955 3.294,-4.757 4.3,-8.404c1.022,-3.644 1.533,-8.547 1.533,-14.708l0,-207.292c0,-5.73 -0.542,-10.314 -1.625,-13.75c-1.078,-3.43 -2.54,-6.053 -4.387,-7.866c-1.77,-1.765 -3.971,-3.036 -6.384,-3.688c-2.496,-0.639 -5.065,-0.955 -7.641,-0.938l-16.417,0.001l-0,-22.696l86.875,-0l138.017,214.65l-0,-165.717c-0,-5.728 -0.538,-10.311 -1.613,-13.75c-1.083,-3.428 -2.546,-6.049 -4.387,-7.862c-1.777,-1.769 -3.987,-3.04 -6.409,-3.688c-2.491,-0.638 -5.054,-0.953 -7.625,-0.937l-16.408,-0l-0,-22.696l102.133,-0l0,22.696l-16.416,-0c-2.684,-0 -5.232,0.312 -7.646,0.937c-2.423,0.636 -4.549,1.935 -6.379,3.896c-1.859,1.953 -3.291,4.751 -4.296,8.396c-1.028,3.647 -1.542,8.548 -1.542,14.704l0,256.429l-36.092,0Z"/><path d="M4166.29,1628.2l78.291,0c3.942,0 7.31,-0.807 10.104,-2.421c2.806,-1.605 5.228,-3.88 7.267,-6.825c2.147,-3.192 3.79,-6.696 4.871,-10.387c1.194,-3.995 2.118,-8.374 2.771,-13.138l3.05,-20.158l27.108,-0l-2.867,79.166l-229.1,0l0,-22.875l16.404,0c2.814,0 5.428,-0.283 7.842,-0.85c2.422,-0.563 4.553,-1.716 6.392,-3.458c1.85,-1.755 3.282,-4.348 4.296,-7.779c1.014,-3.431 1.526,-7.944 1.537,-13.542l0,-207.916c0,-6.161 -0.512,-11.064 -1.537,-14.709c-1.014,-3.63 -2.417,-6.426 -4.209,-8.387c-1.668,-1.893 -3.861,-3.25 -6.3,-3.896c-2.621,-0.658 -5.318,-0.973 -8.021,-0.938l-16.404,0l0,-22.695l217.071,-0l1.533,79.195l-27.304,0l-1.9,-20.375c-1.041,-10.505 -3.464,-18.558 -7.266,-24.158c-3.82,-5.597 -9.735,-8.396 -17.746,-8.396l-65.888,0l0,107.525l92.8,0l0,25.834l-92.791,-0l-0.005,121.183Z"/><path d="M4421.57,1628.2l78.283,0c3.939,0 7.311,-0.807 10.117,-2.421c2.805,-1.605 5.222,-3.88 7.25,-6.825c2.05,-2.933 3.675,-6.396 4.875,-10.387c1.271,-4.298 2.194,-8.692 2.758,-13.138l3.059,-20.158l27.108,-0l-2.863,79.166l-229.104,0l0,-22.875l16.421,0c2.794,0 5.407,-0.283 7.838,-0.85c2.416,-0.563 4.544,-1.716 6.383,-3.458c1.847,-1.755 3.278,-4.348 4.292,-7.779c1.013,-3.431 1.522,-7.944 1.525,-13.542l-0,-207.916c-0,-6.161 -0.503,-11.064 -1.509,-14.709c-1.041,-3.63 -2.444,-6.426 -4.208,-8.387c-1.668,-1.893 -3.861,-3.25 -6.3,-3.896c-2.622,-0.658 -5.318,-0.973 -8.021,-0.938l-16.404,0l-0,-22.695l217.067,-0l1.541,79.195l-27.321,0l-1.916,-20.375c-1.006,-10.505 -3.423,-18.558 -7.25,-24.158c-3.811,-5.597 -9.731,-8.396 -17.759,-8.396l-65.862,0l-0,107.525l92.787,0l0,25.834l-92.787,-0l-0,121.183Z"/><path d="M4578.34,1631.56l16.408,-0.001c2.689,0 5.236,-0.283 7.642,-0.85c2.422,-0.563 4.552,-1.716 6.391,-3.458c1.85,-1.755 3.314,-4.347 4.392,-7.775c1.078,-3.428 1.619,-7.941 1.625,-13.541l0,-209.613c0,-5.728 -0.542,-10.311 -1.625,-13.75c-1.078,-3.428 -2.542,-6.049 -4.392,-7.862c-1.772,-1.766 -3.976,-3.038 -6.391,-3.688c-2.493,-0.638 -5.057,-0.953 -7.63,-0.938l-16.416,0.001l-0,-22.696l126,-0c36.908,-0 63.992,6.793 81.25,20.379c17.239,13.578 25.858,33.322 25.858,59.233c0,11.336 -1.528,21.414 -4.583,30.234c-2.779,8.296 -6.867,16.094 -12.108,23.1c-4.84,6.385 -10.601,12.016 -17.096,16.708c-6.096,4.395 -12.622,8.159 -19.479,11.233l46.587,88.204c3.306,6.161 6.518,11.448 9.638,15.859c3.125,4.408 6.25,8.05 9.375,10.925c3.097,2.864 6.308,4.964 9.633,6.3c3.3,1.319 6.794,1.983 10.483,1.991l1.534,0l-0,22.892l-12.784,0c-11.722,0 -21.94,-0.49 -30.654,-1.471c-8.722,-0.989 -16.356,-2.911 -22.9,-5.766c-6.404,-2.78 -12.184,-6.818 -16.996,-11.875c-4.772,-5.037 -9.194,-11.548 -13.266,-19.534l-46.405,-94.725l-25.966,0l-0,84.854c-0,5.6 0.541,10.114 1.625,13.542c1.077,3.431 2.541,6.022 4.391,7.775c1.85,1.753 3.981,2.907 6.392,3.463c2.431,0.575 4.979,0.856 7.646,0.845l16.796,0l-0,22.892l-134.975,0l-0,-22.887Zm98.125,-135.471l21.954,-0c9.028,-0 16.571,-1.328 22.629,-3.984c5.856,-2.514 10.886,-6.631 14.508,-11.875c3.636,-5.244 6.248,-11.825 7.834,-19.741c1.591,-7.898 2.387,-17.099 2.387,-27.604c0,-10.92 -0.894,-20.164 -2.683,-27.734c-1.772,-7.553 -4.572,-13.747 -8.4,-18.583c-3.858,-4.848 -9.023,-8.494 -14.883,-10.504c-6.112,-2.17 -13.494,-3.254 -22.146,-3.254l-21.2,-0l-0,123.279Z"/><path d="M4947.23,1658.66c-17.581,0 -32.221,-1.823 -43.921,-5.471c-11.719,-3.644 -21.103,-8.331 -28.15,-14.062c-7.075,-5.747 -12.105,-12.192 -15.092,-19.333c-2.9,-6.699 -4.428,-13.913 -4.491,-21.213c-0,-7.422 1.24,-13.65 3.721,-18.683c2.48,-5.034 5.793,-9.165 9.937,-12.396c4.139,-3.214 8.843,-5.524 14.113,-6.929c5.399,-1.41 10.957,-2.118 16.537,-2.109c0,12.325 1.333,23.145 4,32.459c2.667,9.314 6.356,17.083 11.067,23.308c4.711,6.225 10.344,10.913 16.9,14.063c6.71,3.184 14.057,4.8 21.483,4.725c7.639,-0 14.445,-1.185 20.417,-3.554c5.989,-2.387 11.08,-5.681 15.275,-9.884c4.194,-4.203 7.375,-9.137 9.541,-14.804c2.167,-5.667 3.253,-11.786 3.259,-18.358c-0,-7.292 -1.334,-13.773 -4,-19.442c-2.94,-6.015 -7.067,-11.373 -12.134,-15.75c-5.408,-4.836 -12.218,-9.456 -20.429,-13.858c-8.214,-4.417 -17.789,-9.148 -28.725,-14.192c-13.627,-6.156 -25.121,-12.489 -34.479,-19c-9.35,-6.508 -16.889,-13.543 -22.617,-21.104c-5.625,-7.335 -9.805,-15.674 -12.316,-24.571c-2.566,-9.444 -3.819,-19.197 -3.725,-28.983c0.008,-13.161 2.425,-25.063 7.25,-35.705c4.682,-10.41 11.517,-19.712 20.054,-27.291c8.525,-7.57 18.646,-13.385 30.363,-17.446c11.702,-4.056 24.429,-6.083 38.179,-6.083c14.375,-0 26.787,1.298 37.237,3.895c10.436,2.578 19.057,6.11 25.863,10.596c6.814,4.481 11.873,9.763 15.179,15.846c3.316,6.095 4.975,12.65 4.975,19.667c-0,5.033 -0.989,9.719 -2.967,14.058c-2.052,4.434 -5.128,8.318 -8.975,11.329c-4.017,3.228 -9.042,5.745 -15.075,7.55c-6.05,1.825 -13.082,2.738 -21.096,2.738c0,-6.009 -0.737,-12.481 -2.212,-19.417c-1.41,-6.762 -3.824,-13.274 -7.163,-19.321c-3.166,-5.815 -7.566,-10.868 -12.891,-14.804c-5.267,-3.925 -11.66,-5.887 -19.18,-5.887c-5.208,-0 -10.169,0.841 -14.883,2.525c-4.602,1.599 -8.805,4.176 -12.317,7.554c-3.513,3.361 -6.283,7.528 -8.308,12.5c-2.039,4.972 -3.058,10.68 -3.058,17.125c0.008,6.022 0.903,11.689 2.683,17c1.778,5.333 5.05,10.551 9.817,15.654c4.775,5.111 11.333,10.219 19.675,15.325c8.333,5.122 19.119,10.622 32.358,16.5c13.367,6.006 24.76,12.158 34.179,18.458c9.42,6.3 17.153,13.059 23.2,20.275c5.914,6.965 10.389,15.034 13.167,23.738c2.733,8.611 4.1,18.164 4.1,28.658c-0,13.861 -2.478,26.57 -7.433,38.125c-4.839,11.374 -12.148,21.529 -21.396,29.729c-9.286,8.253 -20.453,14.689 -33.5,19.309c-13.047,4.619 -27.718,6.933 -44.013,6.941"/><path d="M5405.39,1654.45l-26.917,-31.508c-4.842,5.327 -10.222,10.158 -16.142,14.491c-5.914,4.339 -12.433,8.085 -19.558,11.238c-7.458,3.249 -15.235,5.71 -23.204,7.341c-8.949,1.833 -18.066,2.719 -27.2,2.646c-16.042,-0.011 -30.235,-2.077 -42.58,-6.2c-12.352,-4.13 -22.726,-10.119 -31.12,-17.966c-8.501,-7.988 -15.034,-17.84 -19.084,-28.78c-4.341,-11.333 -6.512,-24.211 -6.512,-38.633c-0,-12.594 1.818,-23.34 5.454,-32.237c3.395,-8.543 8.349,-16.381 14.608,-23.113c6.207,-6.577 13.383,-12.166 21.279,-16.575c8.081,-4.555 16.578,-8.792 25.492,-12.708c-4.724,-6.193 -9.151,-12.607 -13.267,-19.221c-3.614,-5.772 -6.716,-11.849 -9.27,-18.162c-2.395,-5.968 -4.183,-12.162 -5.338,-18.488c-1.19,-6.723 -1.766,-13.54 -1.721,-20.367c0,-9.522 1.653,-18.133 4.959,-25.833c3.319,-7.704 8.383,-14.533 14.791,-19.946c6.573,-5.591 14.754,-9.903 24.546,-12.933c9.792,-2.995 21.186,-4.495 34.183,-4.5c12.584,-0 23.56,1.604 32.93,4.812c9.355,3.231 17.119,7.646 23.291,13.246c6.173,5.6 10.817,12.11 13.934,19.529c3.125,7.423 4.687,15.266 4.687,23.53c0,8.68 -1.215,16.523 -3.646,23.529c-2.46,7.077 -6.174,13.654 -10.962,19.416c-4.906,5.945 -11.082,11.507 -18.529,16.688c-7.448,5.18 -16.259,10.364 -26.434,15.55c0.729,1.236 1.705,2.309 2.867,3.15l55.362,64.05c1.65,-9.939 2.731,-19.77 3.242,-29.492c0.511,-9.722 0.764,-18.65 0.758,-26.783l0,-18.908l85.542,-0l0,22.683l-6.117,-0c-4.313,-0 -8.541,0.278 -12.683,0.833c-4.068,0.527 -7.993,1.849 -11.55,3.892c-3.757,2.216 -6.987,5.225 -9.462,8.817c-2.736,3.852 -4.93,9.065 -6.58,15.637c-2.038,7.986 -4.425,16.497 -7.158,25.533c-2.733,9.036 -6.076,18.168 -10.029,27.396l38.946,44.742c3.689,4.339 8.207,7.211 13.554,8.617c5.347,1.388 11.524,2.083 18.529,2.083l3.621,-0l-0,22.904l-77.513,0Zm-154.833,-85.258c0,8.533 1.238,16.475 3.713,23.825c2.475,7.35 5.947,13.757 10.416,19.221c4.47,5.463 9.909,9.769 16.317,12.916c6.644,3.177 13.927,4.793 21.292,4.725c13.877,0 25.586,-2.486 35.125,-7.458c9.355,-4.817 17.512,-11.67 23.87,-20.054l-83.625,-98.084c-5.094,3.95 -9.623,8.581 -13.458,13.763c-3.517,4.825 -6.286,9.933 -8.308,15.325c-2.063,5.488 -3.476,11.199 -4.209,17.017c-0.763,5.938 -1.14,12.206 -1.129,18.804m85.713,-164.663c0.014,-4.719 -0.399,-9.43 -1.234,-14.075c-0.708,-4.017 -2.167,-7.864 -4.3,-11.341c-2.05,-3.242 -4.955,-5.855 -8.395,-7.55c-3.57,-1.825 -8.088,-2.738 -13.555,-2.738c-4.333,0 -8.123,0.913 -11.37,2.738c-3.248,1.825 -5.891,4.341 -7.93,7.55c-2.038,3.208 -3.562,7.023 -4.57,11.445c-1.045,4.724 -1.56,9.55 -1.534,14.388c0,4.894 0.511,9.586 1.534,14.075c1.016,4.48 2.509,8.925 4.479,13.333c1.972,4.403 4.49,8.847 7.554,13.334c3.047,4.48 6.606,9.241 10.675,14.283c5.472,-3.361 10.056,-6.933 13.75,-10.717c3.692,-3.775 6.618,-7.866 8.779,-12.275c2.161,-4.408 3.724,-9.279 4.688,-14.612c0.964,-5.334 1.44,-11.279 1.429,-17.838"/><path d="M5827.29,1438.55c-0,12.881 -2.036,25.271 -6.109,37.171c-4.076,11.906 -10.876,22.698 -19.858,31.512c-9.167,9.098 -21.072,16.337 -35.717,21.717c-14.636,5.392 -32.518,8.092 -53.645,8.1l-13.359,0l0,68.879c0,5.6 0.572,10.114 1.717,13.542c1.144,3.428 2.672,6.019 4.583,7.775c1.911,1.756 4.134,2.91 6.667,3.463c2.553,0.574 5.165,0.858 7.837,0.85l23.871,-0l0,22.887l-142.8,0l0,-22.892l16.404,0c2.925,0 5.599,-0.316 8.021,-0.95c2.431,-0.655 4.621,-2.002 6.304,-3.875c1.778,-1.955 3.175,-4.755 4.192,-8.4c1.017,-3.644 1.529,-8.55 1.538,-14.716l-0,-207.292c-0,-5.728 -0.513,-10.311 -1.538,-13.75c-1.017,-3.428 -2.449,-6.049 -4.296,-7.862c-1.773,-1.767 -3.978,-3.038 -6.396,-3.688c-2.554,-0.64 -5.179,-0.955 -7.812,-0.938l-16.417,0.001l0,-22.692l120.075,-0c18.092,-0 33.809,2.1 47.15,6.3c13.37,4.203 24.481,10.262 33.334,18.179c8.785,7.834 15.565,17.663 19.766,28.658c4.322,11.195 6.484,23.868 6.484,38.021m-128.684,73.5l9.542,0c9.661,0 17.873,-1.328 24.637,-3.983c6.736,-2.672 12.239,-6.874 16.509,-12.604c4.255,-5.728 7.376,-13.15 9.362,-22.267c1.961,-9.097 2.947,-20.086 2.959,-32.967c-0,-11.475 -0.862,-21.448 -2.584,-29.92c-1.725,-8.484 -4.458,-15.485 -8.2,-21.005c-3.633,-5.439 -8.735,-9.739 -14.712,-12.395c-6.042,-2.734 -13.456,-4.096 -22.242,-4.088l-15.271,0l0,139.229Z"/><path d="M5850.01,1631.56l16.434,-0.001c2.666,0 5.209,-0.283 7.629,-0.85c2.43,-0.563 4.562,-1.716 6.396,-3.458c1.847,-1.755 3.309,-4.347 4.387,-7.775c1.078,-3.428 1.62,-7.941 1.625,-13.541l0,-209.613c0,-5.728 -0.541,-10.311 -1.625,-13.75c-1.078,-3.428 -2.54,-6.049 -4.387,-7.862c-1.774,-1.767 -3.979,-3.038 -6.396,-3.688c-2.492,-0.638 -5.057,-0.953 -7.629,-0.938l-16.417,0.001l0,-22.696l126,-0c36.917,-0 64,6.793 81.25,20.379c17.239,13.578 25.858,33.322 25.858,59.233c0,11.336 -1.523,21.414 -4.57,30.234c-2.787,8.297 -6.884,16.096 -12.134,23.1c-4.835,6.384 -10.592,12.016 -17.083,16.708c-6.372,4.547 -12.865,8.292 -19.479,11.233l46.587,88.204c3.3,6.161 6.513,11.448 9.638,15.859c3.125,4.411 6.245,8.052 9.362,10.925c3.125,2.864 6.336,4.964 9.633,6.3c3.317,1.319 6.82,1.983 10.509,1.991l1.525,0l-0,22.892l-12.8,0c-11.703,0 -21.915,-0.49 -30.638,-1.471c-8.725,-0.989 -16.364,-2.911 -22.916,-5.766c-6.398,-2.782 -12.172,-6.82 -16.98,-11.875c-4.777,-5.037 -9.205,-11.548 -13.283,-19.534l-46.392,-94.725l-25.966,0l-0,84.854c-0,5.6 0.543,10.114 1.629,13.542c1.078,3.431 2.54,6.022 4.388,7.775c1.847,1.753 3.977,2.907 6.391,3.463c2.431,0.575 4.979,0.856 7.646,0.845l16.796,0l-0,22.892l-134.975,0l-0.013,-22.887Zm98.138,-135.471l21.958,-0c9.042,-0 16.584,-1.328 22.625,-3.984c5.861,-2.512 10.895,-6.629 14.521,-11.875c3.628,-5.244 6.232,-11.825 7.813,-19.741c1.597,-7.898 2.395,-17.099 2.395,-27.604c0,-10.92 -0.889,-20.164 -2.666,-27.734c-1.781,-7.553 -4.586,-13.747 -8.417,-18.583c-3.857,-4.848 -9.02,-8.493 -14.879,-10.504c-6.103,-2.17 -13.486,-3.254 -22.15,-3.254l-21.2,-0l-0,123.279Z"/><path d="M6393.97,1500.49c-0,23.672 -2.891,45.239 -8.671,64.7c-5.797,19.464 -14.331,36.126 -25.6,49.987c-11.141,13.766 -25.323,24.763 -41.429,32.125c-16.348,7.57 -35.15,11.354 -56.409,11.354c-22.275,0 -41.719,-3.784 -58.333,-11.354c-16.17,-7.216 -30.355,-18.239 -41.342,-32.125c-10.936,-13.861 -19.139,-30.558 -24.608,-50.091c-5.469,-19.534 -8.208,-41.205 -8.217,-65.013c0,-23.792 2.735,-45.385 8.204,-64.779c5.47,-19.395 13.716,-35.953 24.738,-49.675c11.068,-13.759 25.271,-24.671 41.417,-31.821c16.608,-7.483 36.115,-11.225 58.52,-11.225c21.128,-0 39.874,3.742 56.238,11.225c16.072,7.281 30.224,18.215 41.325,31.929c11.2,13.792 19.699,30.383 25.496,49.775c5.78,19.395 8.671,41.061 8.671,65m-198.93,0c0,20.583 1.206,38.931 3.617,55.042c2.422,16.094 6.303,29.71 11.642,40.846c5.355,11.127 12.261,19.634 20.716,25.52c8.464,5.878 18.75,8.817 30.859,8.817c12.205,0 22.544,-2.944 31.016,-8.833c8.456,-5.867 15.296,-14.372 20.521,-25.517c5.209,-11.119 8.998,-24.73 11.367,-40.833c2.344,-16.111 3.517,-34.453 3.517,-55.025c-0,-20.592 -1.173,-38.935 -3.517,-55.029c-2.361,-16.103 -6.15,-29.718 -11.367,-40.846c-5.216,-11.128 -12.026,-19.6 -20.429,-25.417c-8.403,-5.817 -18.646,-8.725 -30.729,-8.725c-12.231,0 -22.613,2.908 -31.146,8.725c-8.508,5.817 -15.444,14.289 -20.808,25.417c-5.339,11.128 -9.22,24.743 -11.642,40.846c-2.411,16.094 -3.617,34.437 -3.617,55.029"/><path d="M6555.12,1370.09l-16.404,-0c-2.814,-0 -5.461,0.312 -7.942,0.937c-2.472,0.624 -4.698,1.983 -6.383,3.896c-1.786,1.953 -3.217,4.751 -4.292,8.396c-1.075,3.644 -1.618,8.544 -1.629,14.7l0,257.279c0,13.022 -1.337,24.572 -4.012,34.65c-2.378,9.345 -6.106,18.293 -11.067,26.562c-4.473,7.375 -10.197,13.914 -16.917,19.321c-6.491,5.213 -13.684,9.487 -21.366,12.696c-7.858,3.266 -16.06,5.629 -24.45,7.046c-8.595,1.475 -17.341,2.212 -26.238,2.212l-14.142,0l0,-25l7.071,0c6.25,0 12.327,-1.297 18.229,-3.891c5.911,-2.586 11.163,-6.888 15.755,-12.904c4.591,-6.017 8.28,-13.96 11.066,-23.83c2.797,-9.894 4.196,-22.043 4.196,-36.445l0,-259.375c0,-5.745 -0.504,-10.332 -1.512,-13.763c-1.025,-3.428 -2.457,-6.049 -4.296,-7.862c-1.774,-1.767 -3.979,-3.038 -6.396,-3.688c-2.497,-0.639 -5.065,-0.955 -7.642,-0.937l-16.416,-0l-0,-22.696l134.791,-0l-0.004,22.696Z"/><path d="M6668.93,1628.2l78.279,0c3.945,0 7.317,-0.807 10.117,-2.421c2.797,-1.605 5.219,-3.88 7.267,-6.825c2.146,-3.192 3.789,-6.696 4.87,-10.387c1.198,-3.995 2.117,-8.374 2.759,-13.138l3.05,-20.158l27.108,-0l-2.867,79.166l-229.095,0l-0,-22.875l16.408,0c2.811,0 5.422,-0.283 7.833,-0.85c2.434,-0.563 4.566,-1.716 6.396,-3.458c1.859,-1.755 3.29,-4.348 4.296,-7.779c1.028,-3.428 1.542,-7.942 1.542,-13.542l-0,-207.916c-0,-6.161 -0.509,-11.064 -1.525,-14.709c-1.028,-3.63 -2.431,-6.426 -4.209,-8.387c-1.668,-1.893 -3.861,-3.25 -6.3,-3.896c-2.621,-0.658 -5.318,-0.973 -8.02,-0.938l-16.417,0l-0,-22.695l217.083,-0l1.521,79.195l-27.304,0l-1.904,-20.375c-1.023,-10.505 -3.443,-18.558 -7.263,-24.158c-3.805,-5.597 -9.722,-8.396 -17.75,-8.396l-65.883,0l-0,107.525l92.8,0l-0,25.834l-92.792,-0l0,121.183Z"/><path d="M6980.91,1624.41c9.548,-0 18.046,-1.224 25.496,-3.671c7.054,-2.271 13.768,-5.486 19.958,-9.559c5.853,-3.916 10.975,-8.326 15.367,-13.229c4.392,-4.897 8.242,-9.723 11.55,-14.479c2.039,1.667 3.657,4.253 4.854,7.758c1.217,3.5 1.825,7.07 1.825,10.709c0,6.03 -1.462,12.366 -4.387,19.008c-2.936,6.656 -7.842,12.779 -14.717,18.371c-6.855,5.6 -15.957,10.222 -27.304,13.866c-11.319,3.648 -25.317,5.471 -41.992,5.471c-22.655,0 -42.447,-3.784 -59.375,-11.354c-16.927,-7.555 -30.99,-18.264 -42.187,-32.125c-11.197,-13.861 -19.6,-30.528 -25.209,-50c-5.597,-19.453 -8.395,-41.011 -8.395,-64.675c-0,-23.244 2.864,-44.529 8.591,-63.854c5.728,-19.325 14.223,-35.912 25.484,-49.763c11.342,-13.928 25.792,-25.007 42.187,-32.345c16.867,-7.7 36.377,-11.55 58.529,-11.55c15.017,-0 28.093,1.298 39.229,3.896c11.139,2.577 20.398,6.109 27.775,10.595c7.378,4.486 12.916,9.768 16.613,15.846c3.689,6.095 5.533,12.65 5.533,19.667c0,5.303 -1.05,10.228 -3.15,14.775c-2.083,4.567 -5.204,8.525 -9.362,11.875c-4.122,3.361 -9.243,5.986 -15.363,7.875c-6.094,1.894 -13.094,2.842 -21,2.842c0,-7.153 -0.694,-14.259 -2.083,-21.317c-1.292,-6.763 -3.715,-13.26 -7.167,-19.217c-3.275,-5.626 -7.823,-10.407 -13.279,-13.958c-5.469,-3.578 -12.279,-5.367 -20.429,-5.367c-12.344,0 -22.779,2.865 -31.304,8.596c-8.522,5.747 -15.367,14.154 -20.534,25.221c-5.147,11.067 -8.87,24.682 -11.17,40.846c-2.292,16.172 -3.434,34.618 -3.425,55.337c-0,20.731 1.397,38.86 4.191,54.388c2.798,15.547 7.316,28.464 13.554,38.75c6.242,10.305 14.359,18.009 24.35,23.112c9.984,5.106 22.232,7.659 36.746,7.659"/><path d="M7234.66,1603.62c0,6.164 0.513,11.068 1.538,14.712c1.025,3.645 2.455,6.445 4.292,8.4c1.836,1.956 3.968,3.249 6.395,3.879c2.428,0.631 5.042,0.948 7.842,0.95l16.404,0l0,22.892l-134.987,0l-0,-22.892l16.416,0c2.928,0 5.603,-0.316 8.025,-0.95c2.43,-0.656 4.618,-2.002 6.3,-3.875c1.789,-1.955 3.192,-4.757 4.209,-8.404c1.016,-3.647 1.527,-8.55 1.533,-14.708l-0,-229.954l-31.325,-0c-5.861,-0 -10.761,0.702 -14.7,2.108c-3.95,1.389 -7.163,3.376 -9.638,5.963c-2.472,2.605 -4.316,5.795 -5.533,9.57c-1.217,3.775 -2.076,8.046 -2.579,12.813l-2.667,26.679l-26.354,0l2.096,-83.396l243.617,0l1.916,83.396l-26.158,0l-2.867,-26.692c-0.428,-4.342 -1.292,-8.63 -2.579,-12.8c-1.094,-3.569 -2.986,-6.842 -5.533,-9.571c-2.707,-2.705 -6.005,-4.746 -9.633,-5.962c-3.951,-1.417 -8.856,-2.119 -14.717,-2.108l-31.313,-0l0,229.95Z"/><path d="M7443.88,1654.45l0,-22.892l16.408,0c2.925,0 5.599,-0.316 8.021,-0.95c2.43,-0.656 4.618,-2.002 6.3,-3.875c1.789,-1.955 3.192,-4.757 4.208,-8.404c1.017,-3.647 1.53,-8.55 1.538,-14.708l0,-205.604c0,-6.161 -0.514,-11.064 -1.542,-14.709c-1.014,-3.63 -2.415,-6.426 -4.204,-8.387c-1.668,-1.893 -3.861,-3.25 -6.3,-3.896c-2.622,-0.658 -5.318,-0.973 -8.021,-0.937l-16.408,-0l0,-22.696l134.988,-0l-0,22.696l-16.417,-0c-2.675,-0 -5.258,0.312 -7.75,0.937c-2.481,0.636 -4.607,1.865 -6.379,3.688c-1.789,1.813 -3.221,4.434 -4.296,7.862c-1.095,3.431 -1.642,8.014 -1.642,13.75l0,231.875l72.75,0c9.167,0 16.297,-3.19 21.392,-9.571c5.078,-6.361 8.767,-15.632 11.067,-27.812l6.304,-32.355l21.95,0l-2.863,95.988l-229.104,-0Z"/><path d="M7798.05,1628.2l78.284,0c3.95,0 7.322,-0.807 10.116,-2.421c2.786,-1.605 5.203,-3.88 7.25,-6.825c2.034,-2.933 3.659,-6.396 4.875,-10.387c1.195,-3.995 2.114,-8.374 2.759,-13.138l3.058,-20.158l27.112,-0l-2.866,79.166l-229.1,0l-0,-22.875l16.404,0c2.805,0 5.418,-0.283 7.837,-0.85c2.42,-0.566 4.552,-1.719 6.396,-3.458c1.845,-1.739 3.277,-4.332 4.296,-7.779c1.019,-3.447 1.528,-7.961 1.525,-13.542l0,-207.916c0,-6.161 -0.508,-11.064 -1.525,-14.709c-1.025,-3.63 -2.428,-6.426 -4.208,-8.387c-1.668,-1.893 -3.861,-3.25 -6.3,-3.896c-2.622,-0.658 -5.318,-0.973 -8.021,-0.938l-16.404,0l-0,-22.695l217.083,-0l1.521,79.195l-27.304,0l-1.917,-20.375c-1.014,-10.505 -3.431,-18.558 -7.25,-24.158c-3.819,-5.6 -9.736,-8.398 -17.75,-8.396l-65.883,0l-0,107.525l92.8,0l-0,25.834l-92.8,-0l0.012,121.183Z"/><path d="M8029.08,1553.44l-11.262,36.949c-1.014,3.509 -2.064,7.606 -3.15,12.292c-1.086,4.686 -1.628,8.784 -1.625,12.292c-0,2.794 0.511,5.243 1.533,7.346c1.008,2.091 2.346,3.805 4.013,5.141c1.647,1.328 3.522,2.343 5.625,3.046c2.1,0.695 4.291,1.042 6.575,1.042l16.433,-0l-0,22.904l-101.771,-0l0,-22.892l4.775,0c3.439,0 6.592,-0.42 9.458,-1.262c3.013,-0.908 5.764,-2.529 8.017,-4.725c2.472,-2.309 4.829,-5.495 7.071,-9.559c2.66,-5.068 4.924,-10.335 6.771,-15.754l84.766,-252.866l53.646,-0l81.717,253.295c1.911,6.025 3.917,11.03 6.017,15.013c2.1,3.983 4.391,7.135 6.875,9.454c2.472,2.308 5.115,3.949 7.929,4.921c2.805,0.989 5.73,1.483 8.775,1.483l7.058,0l0,22.892l-129.062,-0l-0,-22.892l15.287,0c1.892,0 3.863,-0.316 5.913,-0.95c2.027,-0.633 3.841,-1.614 5.441,-2.941c1.6,-1.328 2.902,-3.042 3.905,-5.142c1.082,-2.368 1.61,-4.952 1.541,-7.554c0,-3.514 -0.383,-6.878 -1.15,-10.092c-0.659,-2.826 -1.423,-5.627 -2.291,-8.396l-13.751,-43.05l-95.079,0.005Zm66.63,-96.826c-2.983,-10.616 -5.874,-21.258 -8.671,-31.924c-1.457,-5.552 -2.86,-11.118 -4.209,-16.696c-1.344,-5.528 -2.525,-10.814 -3.541,-15.859c-1.136,4.35 -2.473,9.111 -4.009,14.284c-1.527,5.183 -3.147,10.5 -4.858,15.95l-5.154,16.408c-1.728,5.458 -3.352,10.701 -4.871,15.729l-23.1,72.667l79.038,-0l-20.625,-70.559Z"/><path d="M8516.72,1495.26c-0,23.525 -2.927,45.053 -8.78,64.584c-5.858,19.53 -14.612,36.293 -26.262,50.287c-11.739,14.076 -26.57,25.256 -43.333,32.667c-17.256,7.769 -37.27,11.654 -60.042,11.654l-129.058,0l-0,-22.892l16.404,0c2.928,0 5.601,-0.316 8.021,-0.95c2.431,-0.655 4.621,-2.002 6.304,-3.875c1.778,-1.955 3.175,-4.755 4.191,-8.4c1.034,-3.647 1.546,-8.552 1.538,-14.716l-0,-207.292c-0,-5.728 -0.513,-10.311 -1.538,-13.75c-1.005,-3.428 -2.433,-6.049 -4.283,-7.862c-1.775,-1.768 -3.984,-3.04 -6.404,-3.688c-2.554,-0.64 -5.179,-0.955 -7.813,-0.937l-16.42,-0l-0,-22.692l129.062,-0c21.639,-0 41.018,3.115 58.138,9.346c17.1,6.25 31.609,15.559 43.529,27.929c11.891,12.397 20.989,27.836 27.291,46.316c6.303,18.481 9.455,39.905 9.455,64.271m-66.055,0c0,-41.025 -6.841,-71.55 -20.525,-91.575c-13.683,-20.025 -33.826,-30.033 -60.429,-30.025l-22.341,0l-0,254.113l21.954,-0c13.366,-0 25.141,-3.047 35.325,-9.142c10.18,-6.075 18.679,-14.854 25.496,-26.337c6.816,-11.484 11.937,-25.382 15.362,-41.696c3.439,-16.32 5.158,-34.765 5.158,-55.338"/><path d="M8647.71,1628.2l78.267,0c3.958,0 7.333,-0.807 10.125,-2.421c2.806,-1.605 5.224,-3.88 7.254,-6.825c2.148,-3.192 3.793,-6.695 4.875,-10.387c1.276,-4.298 2.202,-8.691 2.771,-13.138l3.046,-20.158l27.125,-0l-2.867,79.166l-229.117,0l0.001,-22.875l16.42,0c2.806,0 5.41,-0.283 7.813,-0.85c2.43,-0.563 4.566,-1.716 6.408,-3.458c1.847,-1.755 3.278,-4.348 4.292,-7.779c1.014,-3.431 1.522,-7.944 1.525,-13.542l-0,-207.916c-0,-6.161 -0.507,-11.064 -1.521,-14.709c-1.017,-3.63 -2.415,-6.426 -4.196,-8.387c-1.679,-1.88 -3.868,-3.234 -6.3,-3.896c-2.622,-0.658 -5.318,-0.973 -8.021,-0.938l-16.404,0l0,-22.695l217.054,-0l1.538,79.195l-27.304,0l-1.9,-20.375c-1.028,-10.505 -3.446,-18.558 -7.254,-24.158c-3.828,-5.597 -9.748,-8.396 -17.759,-8.396l-65.875,0l0,107.525l92.788,0l-0,25.834l-92.788,-0l0.004,121.183Z"/><path d="M8804.46,1631.56l16.408,-0.001c2.68,0 5.232,-0.283 7.654,-0.85c2.422,-0.566 4.553,-1.719 6.392,-3.458c1.839,-1.739 3.307,-4.33 4.404,-7.775c1.097,-3.444 1.635,-7.958 1.612,-13.541l0,-209.613c0,-5.728 -0.537,-10.311 -1.612,-13.75c-1.086,-3.428 -2.554,-6.049 -4.404,-7.862c-1.768,-1.764 -3.966,-3.035 -6.375,-3.688c-2.502,-0.641 -5.076,-0.956 -7.659,-0.937l-16.421,-0.001l0.001,-22.695l126.016,-0c36.917,-0 64,6.793 81.25,20.379c17.231,13.578 25.846,33.322 25.846,59.233c0,11.336 -1.524,21.414 -4.571,30.234c-2.779,8.296 -6.867,16.094 -12.108,23.1c-4.839,6.385 -10.601,12.016 -17.096,16.708c-6.095,4.395 -12.622,8.159 -19.479,11.233l46.583,88.204c3.3,6.161 6.513,11.448 9.638,15.859c3.125,4.411 6.241,8.052 9.35,10.925c3.125,2.864 6.341,4.964 9.65,6.3c3.314,1.319 6.816,1.983 10.508,1.991l1.521,0l-0,22.892l-12.788,0c-11.716,0 -21.933,-0.49 -30.65,-1.471c-8.714,-0.989 -16.352,-2.911 -22.916,-5.766c-6.398,-2.782 -12.172,-6.82 -16.98,-11.875c-4.775,-5.037 -9.201,-11.548 -13.279,-19.534l-46.396,-94.725l-25.958,0l0,84.854c0,5.6 0.542,10.114 1.625,13.542c1.075,3.431 2.538,6.022 4.388,7.775c1.839,1.744 3.969,2.899 6.391,3.463c2.423,0.575 4.971,0.856 7.646,0.845l16.792,0l-0,22.892l-134.984,0l0,-22.887Zm98.138,-135.471l21.967,-0c9.027,-0 16.566,-1.328 22.616,-3.984c5.855,-2.515 10.883,-6.631 14.504,-11.875c3.639,-5.244 6.253,-11.825 7.842,-19.741c1.578,-7.898 2.371,-17.099 2.379,-27.604c0,-10.92 -0.889,-20.164 -2.666,-27.734c-1.789,-7.553 -4.593,-13.747 -8.413,-18.583c-3.861,-4.85 -9.031,-8.496 -14.896,-10.504c-6.111,-2.17 -13.489,-3.254 -22.133,-3.254l-21.2,-0l-0,123.279Z"/><path d="M9173.34,1658.66c-17.57,0 -32.204,-1.823 -43.905,-5.471c-11.719,-3.644 -21.108,-8.331 -28.166,-14.062c-7.056,-5.747 -12.085,-12.192 -15.088,-19.333c-2.897,-6.7 -4.422,-13.914 -4.483,-21.213c-0,-7.422 1.237,-13.65 3.712,-18.683c2.5,-5.045 5.813,-9.177 9.938,-12.396c4.139,-3.214 8.851,-5.524 14.138,-6.929c5.386,-1.407 10.932,-2.115 16.499,-2.109c0.009,12.325 1.345,23.145 4.009,32.459c2.692,9.305 6.386,17.075 11.083,23.308c4.703,6.234 10.336,10.921 16.9,14.063c6.71,3.184 14.057,4.8 21.483,4.725c7.631,-0 14.441,-1.185 20.43,-3.554c5.989,-2.387 11.076,-5.681 15.262,-9.884c4.2,-4.2 7.381,-9.135 9.542,-14.804c2.172,-5.667 3.258,-11.786 3.258,-18.358c0,-7.292 -1.337,-13.773 -4.012,-19.442c-2.937,-6.014 -7.062,-11.372 -12.125,-15.75c-5.406,-4.836 -12.214,-9.456 -20.425,-13.858c-8.206,-4.417 -17.785,-9.148 -28.738,-14.192c-13.611,-6.156 -25.097,-12.489 -34.458,-19c-9.372,-6.508 -16.914,-13.543 -22.625,-21.104c-5.628,-7.335 -9.809,-15.674 -12.321,-24.571c-2.564,-9.445 -3.816,-19.197 -3.721,-28.983c0,-13.161 2.417,-25.063 7.25,-35.705c4.683,-10.41 11.518,-19.712 20.054,-27.291c8.859,-7.779 19.182,-13.71 30.363,-17.446c11.711,-4.056 24.437,-6.083 38.179,-6.083c14.375,-0 26.787,1.298 37.237,3.895c10.417,2.578 19.037,6.11 25.859,10.596c6.816,4.481 11.878,9.763 15.183,15.846c3.306,6.083 4.956,12.639 4.95,19.667c0.008,5.033 -0.973,9.719 -2.946,14.058c-2.067,4.427 -5.144,8.307 -8.983,11.329c-4.008,3.228 -9.029,5.745 -15.063,7.55c-6.052,1.825 -13.084,2.738 -21.095,2.738c-0,-6.009 -0.738,-12.481 -2.213,-19.417c-1.409,-6.762 -3.824,-13.274 -7.162,-19.321c-3.162,-5.813 -7.557,-10.866 -12.875,-14.804c-5.289,-3.925 -11.684,-5.887 -19.184,-5.887c-5.077,-0.022 -10.121,0.832 -14.908,2.525c-4.603,1.599 -8.805,4.176 -12.317,7.554c-3.606,3.545 -6.436,7.802 -8.308,12.5c-2.031,4.972 -3.046,10.68 -3.046,17.125c0,6.022 0.889,11.689 2.667,17c1.8,5.333 5.078,10.551 9.833,15.654c4.775,5.111 11.333,10.219 19.675,15.325c8.333,5.122 19.124,10.622 32.371,16.5c13.35,6.006 24.739,12.158 34.167,18.458c9.416,6.306 17.15,13.064 23.2,20.275c5.886,6.984 10.359,15.046 13.166,23.738c2.734,8.611 4.1,18.164 4.1,28.658c0,13.861 -2.482,26.57 -7.446,38.125c-4.83,11.371 -12.129,21.526 -21.366,29.729c-9.297,8.253 -20.47,14.689 -33.517,19.309c-13.047,4.619 -27.718,6.933 -44.012,6.941"/><path d="M323.125,578.371l0,242.642c0,46.822 2.868,76.301 8.604,88.437c5.747,12.136 15.86,21.824 30.338,29.063c14.472,7.23 41.5,10.85 81.083,10.858l0,23.608l-443.146,0l0,-23.604c40.02,0 67.159,-3.733 81.417,-11.2c14.272,-7.431 24.278,-17.11 30.017,-29.037c5.738,-11.928 8.612,-41.303 8.62,-88.125l0,-561.925c0,-46.834 -2.873,-76.313 -8.62,-88.438c-5.739,-12.144 -15.848,-21.832 -30.325,-29.062c-14.478,-7.231 -41.513,-10.852 -81.105,-10.863l0,-23.592l402.292,0c104.722,0 181.346,7.241 229.871,21.721c48.533,14.461 88.125,41.17 118.775,80.125c30.653,38.945 45.979,84.602 45.979,136.971c0,63.861 -22.986,116.647 -68.958,158.358c-29.384,26.398 -70.464,46.193 -123.242,59.388l208.163,293.1c27.249,37.889 46.62,61.514 58.112,70.875c17.447,13.2 37.669,20.439 60.667,21.717l-0,23.604l-272.671,-0l-279.079,-394.625l-56.792,0.004Zm-0,-424.638l-0,379.3l36.392,0c59.155,0 103.425,-5.426 132.808,-16.279c29.383,-10.853 52.475,-30.436 69.275,-58.75c16.822,-28.297 25.233,-65.228 25.233,-110.791c0,-65.981 -15.434,-114.723 -46.304,-146.225c-30.869,-31.503 -80.565,-47.259 -149.087,-47.267l-68.317,0.012Z"/><path d="M1107.82,86.692c27.675,-0 51.086,9.683 70.233,29.05c19.147,19.366 28.722,42.672 28.725,69.916c0.003,27.245 -9.676,50.449 -29.037,69.613c-19.375,19.15 -42.681,28.725 -69.917,28.725c-27.236,-0 -50.44,-9.575 -69.612,-28.725c-19.173,-19.15 -28.748,-42.353 -28.725,-69.608c0.022,-27.256 9.597,-50.563 28.725,-69.921c19.166,-19.361 42.369,-29.045 69.608,-29.05m89.387,289.258l0,473.175c0,42.128 4.896,69.051 14.688,80.771c9.8,11.7 28.958,18.405 57.475,20.117l-0,22.966l-322.475,0l-0,-22.966c26.4,-0.862 45.989,-8.528 58.767,-23c8.505,-9.789 12.758,-35.756 12.758,-77.9l-0,-348.646c-0,-42.153 -4.896,-69.081 -14.688,-80.784c-9.791,-11.708 -28.736,-18.409 -56.833,-20.104l0,-23.629l250.308,0Z"/><path d="M1814.63,819.113l19.792,15.312c-28.1,52.778 -63.118,92.053 -105.054,117.825c-41.928,25.747 -86.515,38.621 -133.763,38.621c-79.616,-0 -143.262,-30.014 -190.937,-90.042c-47.675,-60.028 -71.511,-132.185 -71.508,-216.471c-0,-81.3 21.708,-152.814 65.125,-214.541c52.372,-74.498 124.525,-111.746 216.458,-111.746c61.722,-0 110.786,15.539 147.192,46.617c36.397,31.075 54.595,65.766 54.595,104.075c0,24.269 -7.34,43.64 -22.02,58.112c-14.695,14.478 -33.956,21.717 -57.784,21.717c-25.122,-0 -45.878,-8.303 -62.266,-24.909c-16.389,-16.597 -26.502,-46.18 -30.338,-88.75c-2.553,-26.833 -8.725,-45.566 -18.517,-56.2c-9.783,-10.65 -21.276,-15.969 -34.479,-15.958c-20.444,0 -37.897,10.85 -52.358,32.55c-22.133,32.786 -33.2,83.025 -33.2,150.717c-0,56.18 8.94,109.92 26.821,161.22c17.88,51.3 42.361,89.505 73.441,114.613c23.403,18.314 51.068,27.471 82.996,27.471c20.695,0.045 41.088,-5 59.375,-14.688c18.75,-9.808 40.895,-28.327 66.434,-55.558"/><path d="M2151.7,107.133l0,345.442c32.786,-34.478 62.799,-58.849 90.038,-73.112c27.239,-14.264 55.55,-21.395 84.933,-21.392c37.458,-0 69.49,10.639 96.096,31.917c26.605,21.291 44.269,46.304 52.992,75.037c8.722,28.733 13.088,77.157 13.099,145.271l0,233.075c0,45.539 4.255,73.955 12.763,85.25c8.514,11.283 25.757,18.414 51.729,21.391l0,22.967l-302.667,0l0,-22.966c21.284,-2.987 37.246,-11.503 47.888,-25.551c7.658,-11.066 11.487,-38.101 11.487,-81.104l0,-266.275c0,-49.375 -1.909,-80.339 -5.729,-92.891c-3.839,-12.561 -10.336,-22.357 -19.491,-29.388c-8.831,-6.913 -19.753,-10.623 -30.967,-10.521c-17.022,-0.008 -33.624,5.842 -49.804,17.55c-16.181,11.709 -33.632,32.248 -52.354,61.617l-0,319.917c-0,42.572 3.189,69.179 9.566,79.821c8.092,14.472 24.699,23.413 49.821,26.825l0,22.966l-302.687,0l-0,-22.966c25.122,-2.562 43.004,-10.652 53.645,-24.271c7.231,-9.375 10.846,-36.836 10.846,-82.384l0,-606.608c-0.008,-45.139 -4.157,-73.242 -12.446,-84.308c-8.308,-11.067 -25.656,-18.303 -52.045,-21.709l-0,-23.604l243.287,0.004Z"/><path d="M2882.78,375.95l0,78.542c32.77,-35.764 63.099,-60.774 90.988,-75.029c27.883,-14.27 58.426,-21.4 91.629,-21.392c38.306,-0 70.45,8.94 96.433,26.821c25.953,17.883 45.957,45.127 60.013,81.733c34.061,-38.317 66.73,-65.99 98.008,-83.021c31.303,-17.014 63.981,-25.525 98.034,-25.533c41.283,-0 74.169,9.471 98.658,28.412c24.472,18.95 41.5,42.999 51.083,72.146c9.572,29.167 14.359,75.678 14.359,139.534l-0,244.57c-0,45.953 4.152,74.477 12.458,85.571c8.3,11.059 25.644,18.295 52.033,21.709l0,22.966l-308.421,0l0,-22.966c24.27,-2.128 42.152,-11.499 53.646,-28.113c7.664,-11.494 11.496,-37.883 11.496,-79.167l0,-256.695c0,-53.212 -2.132,-87.056 -6.396,-101.534c-4.25,-14.472 -10.955,-25.222 -20.116,-32.25c-9.162,-7.028 -19.907,-10.544 -32.238,-10.55c-18.306,0 -36.825,6.71 -55.558,20.129c-18.725,13.411 -37.667,33.524 -56.825,60.338l-0,320.575c-0,42.969 3.619,69.997 10.858,81.083c9.783,15.753 28.513,24.475 56.188,26.167l-0,22.983l-309.05,0l-0,-22.966c16.588,-0.87 29.679,-5.02 39.27,-12.45c9.567,-7.464 15.952,-16.405 19.155,-26.821c3.194,-10.436 4.791,-33.106 4.791,-68.009l0,-256.695c0,-54.062 -2.132,-87.906 -6.396,-101.534c-4.252,-13.63 -11.383,-24.273 -21.391,-31.929c-10,-7.656 -20.748,-11.489 -32.242,-11.5c-17.028,0 -32.565,4.472 -46.612,13.417c-20.017,13.194 -41.302,35.754 -63.855,67.679l0,320.575c0,42.117 4.149,69.89 12.446,83.321c8.309,13.402 25.653,21.384 52.034,23.946l-0,22.966l-307.775,0l-0,-22.966c25.122,-2.562 43.004,-10.652 53.645,-24.271c7.231,-9.375 10.85,-37.045 10.859,-83.009l-0,-337.162c-0,-45.122 -4.153,-73.217 -12.459,-84.283c-8.3,-11.067 -25.647,-18.303 -52.041,-21.709l-0,-23.629l243.291,0Z"/><path d="M4005.92,358.071c51.928,-0 100.244,13.411 144.95,40.233c44.705,26.822 78.654,64.917 101.846,114.284c23.194,49.394 34.791,103.462 34.791,162.204c0,84.722 -21.493,155.597 -64.479,212.625c-51.944,68.969 -123.676,103.454 -215.196,103.454c-89.825,-0 -159.004,-31.502 -207.537,-94.504c-48.534,-63.003 -72.796,-136.007 -72.788,-219.013c0,-85.572 24.8,-160.182 74.4,-223.829c49.584,-63.644 117.588,-95.462 204.013,-95.454m2.541,45.337c-21.702,0 -40.323,8.195 -55.862,24.584c-15.539,16.389 -25.756,48.741 -30.65,97.058c-4.897,48.306 -7.346,115.458 -7.346,201.458c0.008,45.556 2.986,88.125 8.933,127.709c4.689,30.233 14.694,53.223 30.013,68.971c15.331,15.755 32.787,23.633 52.371,23.633c19.15,-0 35.108,-5.325 47.875,-15.975c16.616,-14.464 27.686,-34.686 33.208,-60.667c8.514,-40.425 12.775,-122.157 12.783,-245.196c0,-72.369 -4.044,-122.069 -12.133,-149.1c-8.083,-27.03 -20.003,-46.722 -35.758,-59.075c-11.067,-8.941 -25.546,-13.412 -43.438,-13.412"/><path d="M4622.05,375.95l0,77.262c30.65,-33.202 60.021,-57.365 88.113,-72.487c28.105,-15.103 58.33,-22.654 90.675,-22.654c38.741,-0 70.88,10.75 96.416,32.25c25.536,21.5 42.564,48.211 51.084,80.133c6.805,24.261 10.208,70.875 10.208,139.842l0,232.437c0,45.964 4.158,74.592 12.475,85.884c8.3,11.286 25.644,18.418 52.033,21.395l0,22.967l-302.046,0l0,-22.966c22.57,-2.987 38.75,-12.357 48.542,-28.113c6.814,-10.642 10.221,-37.031 10.221,-79.167l0,-265.637c0,-48.959 -1.918,-79.822 -5.754,-92.592c-3.82,-12.761 -10.309,-22.661 -19.467,-29.7c-9.158,-7.025 -19.271,-10.532 -30.337,-10.521c-36.617,0 -70.673,26.181 -102.167,78.542l0,319.917c0,44.68 4.15,72.984 12.45,84.912c8.3,11.928 23.731,19.381 46.292,22.358l-0,22.967l-302.009,0l0,-22.966c25.106,-2.562 42.981,-10.652 53.625,-24.271c7.239,-9.375 10.859,-37.045 10.859,-83.009l-0,-337.162c-0,-45.122 -4.15,-73.217 -12.45,-84.283c-8.306,-11.067 -25.649,-18.303 -52.03,-21.709l0,-23.629l243.267,0Z"/><path d="M5685.79,107.133l-0,687.071c-0,46.389 1.28,73.842 3.841,82.358c3.403,14.053 9.896,24.487 19.479,31.3c9.573,6.806 26.281,11.064 50.125,12.775l0,21.067l-252.225,49.167l0,-94.504c-30.233,36.611 -57.159,61.514 -80.779,74.708c-23.627,13.194 -50.341,19.792 -80.141,19.792c-76.2,-0 -136.436,-34.057 -180.709,-102.171c-35.761,-55.339 -53.641,-123.234 -53.641,-203.684c-0,-64.28 11.068,-121.859 33.204,-172.737c22.136,-50.878 52.469,-89.293 91,-115.246c38.525,-25.972 79.922,-38.958 124.191,-38.958c28.528,-0 53.859,5.533 75.992,16.6c22.133,11.066 45.761,30.437 70.883,58.112l0.001,-180.075c-0.001,-45.547 -1.917,-73.005 -5.751,-82.375c-5.097,-12.333 -12.763,-21.486 -23,-27.458c-10.205,-5.964 -29.358,-8.946 -57.458,-8.946l0,-26.796l264.988,0Zm-178.78,404.834c-31.508,-60.453 -70.036,-90.68 -115.583,-90.68c-15.755,0 -28.742,4.259 -38.958,12.775c-15.747,13.195 -28.621,36.394 -38.621,69.596c-10,33.203 -15,84.075 -15,152.617c-0,75.347 5.529,131.115 16.587,167.304c11.059,36.189 26.173,62.37 45.342,78.542c9.8,8.072 23.211,12.108 40.233,12.108c37.456,0 72.785,-29.367 105.988,-88.1l0.012,-314.162Z"/><path d="M6215.57,860.454l-0,-398.308l-397.5,-0l-0,-65.429l397.5,-0l-0,-396.709l63.854,0l0,396.7l399.083,0l0,65.442l-399.083,-0l0,398.308l-63.854,-0.004Z"/><path d="M7057.73,578.371l0,242.642c0,46.822 2.875,76.301 8.625,88.437c5.75,12.136 15.861,21.824 30.333,29.063c14.464,7.23 41.496,10.85 81.096,10.858l0,23.608l-443.166,0l-0,-23.608c40.019,-0 67.159,-3.732 81.421,-11.196c14.252,-7.431 24.256,-17.11 30.012,-29.037c5.747,-11.928 8.621,-41.303 8.621,-88.125l-0,-561.925c-0,-46.834 -2.874,-76.313 -8.621,-88.438c-5.756,-12.144 -15.868,-21.832 -30.337,-29.062c-14.462,-7.239 -41.492,-10.859 -81.092,-10.859l-0,-23.596l402.292,0c104.722,0 181.348,7.241 229.879,21.721c48.527,14.461 88.116,41.17 118.766,80.125c30.65,38.945 45.975,84.602 45.975,136.971c0,63.861 -22.99,116.647 -68.97,158.358c-29.367,26.398 -70.448,46.193 -123.242,59.388l208.175,293.1c27.25,37.889 46.621,61.514 58.112,70.875c17.448,13.2 37.664,20.439 60.65,21.717l0,23.604l-272.654,-0l-279.037,-394.609l-56.838,-0.012Zm0,-424.638l0,379.3l36.396,0c59.175,0 103.45,-5.426 132.825,-16.279c29.375,-10.853 52.465,-30.436 69.271,-58.75c16.822,-28.297 25.229,-65.228 25.221,-110.791c-0,-65.981 -15.431,-114.723 -46.292,-146.225c-30.861,-31.503 -80.556,-47.259 -149.083,-47.267l-68.338,0.012Z"/><path d="M7980.38,358.071c51.928,-0 100.243,13.411 144.946,40.233c44.703,26.822 78.653,64.917 101.85,114.284c23.194,49.394 34.791,103.462 34.791,162.204c0.001,84.722 -21.497,155.597 -64.491,212.625c-51.928,68.969 -123.66,103.454 -215.196,103.454c-89.808,-0 -158.983,-31.502 -207.525,-94.504c-48.525,-63.006 -72.788,-136.01 -72.788,-219.013c0,-85.572 24.796,-160.182 74.388,-223.829c49.592,-63.647 117.6,-95.465 204.025,-95.454m2.542,45.337c-21.703,0 -40.328,8.195 -55.875,24.584c-15.539,16.389 -25.752,48.741 -30.638,97.058c-4.905,48.306 -7.358,115.458 -7.358,201.458c-0,45.556 2.982,88.125 8.946,127.709c4.686,30.233 14.69,53.223 30.012,68.971c15.322,15.755 32.779,23.633 52.371,23.633c19.139,-0 35.101,-5.325 47.887,-15.975c16.598,-14.464 27.667,-34.686 33.209,-60.667c8.505,-40.425 12.758,-122.157 12.758,-245.196c0,-72.369 -4.042,-122.069 -12.125,-149.1c-8.097,-27.03 -20.019,-46.722 -35.767,-59.075c-11.066,-8.941 -25.541,-13.412 -43.425,-13.412"/><path d="M8729.96,359.346l9.571,203.7l-21.708,-0c-25.972,-60.453 -52.899,-101.746 -80.779,-123.879c-27.881,-22.134 -55.659,-33.203 -83.334,-33.209c-17.447,0 -32.347,5.856 -44.7,17.567c-12.344,11.711 -18.516,25.224 -18.516,40.538c-0,11.5 4.262,22.57 12.787,33.212c13.611,17.45 51.709,47.356 114.292,89.717c62.564,42.352 103.75,78.325 123.558,107.916c19.792,29.584 29.688,62.681 29.688,99.292c-0,33.194 -8.303,65.757 -24.909,97.687c-16.597,31.937 -40.008,56.416 -70.233,73.438c-30.217,17.039 -63.638,25.553 -100.263,25.542c-28.513,-0 -66.608,-8.941 -114.283,-26.821c-12.786,-4.686 -21.514,-7.025 -26.183,-7.017c-14.047,0 -25.759,10.643 -35.134,31.929l-21.066,0l-10.209,-214.558l21.709,-0c19.155,56.197 45.439,98.342 78.85,126.433c33.411,28.092 65.022,42.141 94.833,42.146c20.433,0 37.143,-6.28 50.129,-18.841c12.986,-12.55 19.479,-27.767 19.479,-45.65c0,-20.445 -6.388,-38.11 -19.166,-52.996c-12.761,-14.895 -41.281,-37.464 -85.559,-67.709c-65.138,-45.111 -107.283,-79.59 -126.433,-103.437c-28.1,-34.895 -42.15,-73.418 -42.15,-115.571c0,-45.964 15.861,-87.579 47.583,-124.846c31.709,-37.239 77.575,-55.858 137.6,-55.858c32.353,-0 63.642,7.878 93.867,23.633c11.495,6.381 20.856,9.571 28.083,9.571c7.675,0 13.849,-1.597 18.521,-4.792c4.686,-3.194 12.138,-12.24 22.354,-27.137l21.721,-0Z"/><path d="M9238.81,359.346l9.57,203.7l-21.708,-0c-25.964,-60.453 -52.89,-101.746 -80.779,-123.879c-27.875,-22.139 -55.653,-33.209 -83.333,-33.209c-17.448,0 -32.344,5.856 -44.688,17.567c-12.344,11.711 -18.517,25.224 -18.517,40.538c0,11.5 4.255,22.57 12.763,33.212c13.628,17.45 51.73,47.356 114.308,89.717c62.57,42.352 103.754,78.325 123.554,107.916c19.792,29.584 29.688,62.681 29.688,99.292c-0,33.194 -8.299,65.757 -24.896,97.687c-16.606,31.937 -40.022,56.416 -70.25,73.438c-30.206,17.039 -63.625,25.553 -100.258,25.542c-28.506,-0 -66.6,-8.941 -114.284,-26.821c-12.769,-4.686 -21.493,-7.025 -26.17,-7.017c-14.064,0 -25.78,10.643 -35.146,31.929l-21.067,0l-10.208,-214.558l21.708,-0c19.156,56.197 45.44,98.342 78.854,126.433c33.414,28.092 65.024,42.141 94.829,42.146c20.434,0 37.143,-6.28 50.13,-18.841c12.977,-12.55 19.466,-27.767 19.466,-45.65c0,-20.445 -6.38,-38.11 -19.141,-52.996c-12.778,-14.895 -41.302,-37.464 -85.571,-67.709c-65.139,-45.111 -107.284,-79.59 -126.434,-103.437c-28.1,-34.895 -42.15,-73.418 -42.15,-115.571c0,-45.964 15.861,-87.579 47.584,-124.846c31.716,-37.239 77.583,-55.858 137.6,-55.858c32.352,-0 63.641,7.878 93.866,23.633c11.495,6.381 20.856,9.571 28.084,9.571c7.666,0 13.844,-1.597 18.533,-4.792c4.689,-3.194 12.136,-12.24 22.342,-27.137l21.72,-0Z"/></g></svg>