<?xml version="1.0" encoding="UTF-8" standalone="no"?><!DOCTYPE svg PUBLIC "-//W3C//DTD SVG 1.1//EN" "http://www.w3.org/Graphics/SVG/1.1/DTD/svg11.dtd"><svg width="100%" height="100%" viewBox="0 0 9171 9171" version="1.1" xmlns="http://www.w3.org/2000/svg" xmlns:xlink="http://www.w3.org/1999/xlink" xml:space="preserve" xmlns:serif="http://www.serif.com/" style="fill-rule:evenodd;clip-rule:evenodd;stroke-linejoin:round;stroke-miterlimit:2;"><g><path d="M4585.42,115.457c-2467.01,-0 -4469.91,2002.08 -4469.91,4468.09c-0,2466 2002.9,4468.08 4469.91,4468.08c2467.01,0 4469.91,-2002.08 4469.91,-4468.08c-0,-2466 -2002.9,-4468.09 -4469.91,-4468.09Z" style="fill:url(#_Radial1);"/><path d="M5637.5,5623.21c6.375,-14.633 12.633,-28.337 18.363,-42.258c24.604,-59.763 50.758,-118.963 73.149,-179.55c32.588,-88.175 57.342,-178.808 79.105,-270.296c14.125,-59.387 24.95,-119.346 33.695,-179.646c9.146,-63.062 17.013,-126.35 20.442,-190.05c2.883,-53.579 7.029,-107.171 7.442,-160.779c0.746,-96.842 -5.229,-193.425 -15.825,-289.746c-8.071,-73.412 -17.338,-146.612 -33.867,-218.65c-13.421,-58.5 -25.237,-117.579 -42.696,-174.896c-30.433,-99.916 -63.1,-199.245 -106.666,-294.516c-21.542,-47.096 -40.942,-95.275 -64.567,-141.296c-47.158,-91.854 -100.554,-180.138 -159.521,-264.988c-41.087,-59.125 -81.437,-118.791 -129.162,-172.962c-38.5,-43.7 -75.875,-88.438 -115.613,-130.971c-33.8,-36.175 -70.087,-70.033 -105.617,-104.571c-19.399,-18.858 -38.712,-37.933 -59.458,-55.246c-36.258,-30.266 -73.262,-59.666 -110.546,-88.675c-62.279,-48.445 -125.854,-95.129 -192.941,-136.816c-105.317,-65.442 -214.53,-123.359 -328.759,-171.817c-89.537,-37.979 -180.283,-72.958 -273.562,-100.179c-86.175,-25.146 -173.546,-46.363 -261.967,-62.6c-27.946,-5.129 -55.908,-10.713 -84.112,-13.808c-60.617,-6.655 -121.48,-11.1 -182.092,-17.805c-62.996,-6.966 -126.446,-2.566 -189.421,-8.925l-1701.39,0c-5.967,0 -11.938,-0.166 -17.896,0.071c-2.934,0.121 -5.842,0.992 -9.471,1.65l555.058,2069.92l2.942,0.096c1.55,-4.067 3.183,-8.104 4.637,-12.204c9.942,-28.067 18.38,-56.775 30.088,-84.088c20.037,-46.733 39.5,-94.029 63.9,-138.512c45.075,-82.192 98.333,-159.171 161.604,-228.717c44.454,-48.867 89.825,-96.792 142.254,-137.542c60.496,-47.021 120.804,-94.237 189.354,-129.387c51.388,-26.35 102.809,-52.567 157.284,-72.35c68.987,-25.059 138.204,-48.879 211.054,-60.596c47.075,-7.567 93.904,-16.846 141.687,-18.692c42.146,-1.625 84.367,-4.404 126.471,-3.375c65.141,1.601 130.032,8.676 193.988,21.15c42.25,8.238 84.837,15.9 126.087,27.909c71.813,20.904 141.059,48.841 207.734,83.208c90.891,46.846 176.1,101.762 253.2,169.262c57.441,50.288 111.641,103.78 159.645,163c59.971,73.984 109.446,154.896 151.134,240.596c36.221,74.454 64.883,151.496 84.141,232.117c24.155,101.142 40.146,203.204 39.8,307.508c-0.083,25.663 0.513,51.484 3.217,76.971c4.113,38.713 9.538,77.329 15.921,115.738c5.104,30.704 10.871,61.479 19.187,91.429c13.5,48.625 32.859,95.262 53.263,141.396c7.971,18.02 15.266,36.429 24.508,53.783c31.738,59.579 66.713,117.179 109.238,169.821c20.441,25.304 39.779,51.583 63.808,73.837c18.171,16.829 36.2,33.829 53.867,51.184c44.096,43.316 93.433,79.958 146.196,111.645c56.629,34.009 115.854,63.038 177.362,87.605c76.221,30.45 154.917,50.616 236.025,61.908c15.813,2.204 31.804,3.137 48.3,4.708m89.179,1392.43l2.754,0c6.8,-0.533 13.6,-1.533 20.4,-1.533c569.417,-0.071 1138.83,-0.067 1708.24,-0.067c4.587,0 9.183,0.167 13.762,-0.066c3.413,-0.171 6.805,-0.859 11.425,-1.479l-556.2,-2065.98l-2.962,-0.008c-1.717,4.571 -3.471,9.133 -5.154,13.717c-12.138,33.112 -23.459,66.55 -36.563,99.275c-26.816,66.962 -58.941,131.391 -98.691,191.65c-41.696,63.212 -85.905,124.654 -139.113,178.966c-28.237,28.825 -55.429,58.963 -85.942,85.196c-39.241,33.75 -80.833,64.85 -122.4,95.771c-24.241,18.029 -49.345,35.454 -75.92,49.688c-63.4,33.966 -127.192,67.429 -195.588,90.762c-38.596,13.167 -76.558,28.988 -116.037,38.55c-53.371,12.929 -107.809,21.65 -162.013,30.846c-23.437,3.975 -47.4,5.4 -71.196,6.617c-36.629,1.866 -73.375,4.408 -109.975,3.341c-67.412,-1.962 -134.579,-8.408 -200.871,-21.291c-42.712,-8.296 -85.762,-15.975 -127.466,-28.055c-73.621,-21.312 -144.596,-49.929 -212.7,-85.533c-56.163,-29.362 -111.359,-60.504 -162.396,-97.954c-75.213,-55.188 -144.442,-117.342 -207.088,-186.733c-32.65,-36.167 -63.537,-73.78 -90.608,-114.121c-42.946,-63.996 -82.65,-130.046 -113.317,-201.025c-14.354,-33.225 -29.795,-66.179 -41.212,-100.434c-20.283,-60.894 -36.142,-123.174 -47.454,-186.354c-11.596,-64.6 -20.096,-129.437 -21.042,-195.287c-1.033,-71.988 -4.725,-143.788 -18.217,-214.913c-11.812,-62.3 -25.329,-123.908 -50.412,-182.416c-15.883,-37.055 -30.283,-74.9 -48.629,-110.713c-30.129,-58.812 -64.821,-115.071 -106.534,-166.608c-18.737,-23.154 -37.47,-46.396 -57.62,-68.296c-16.113,-17.508 -34.705,-32.713 -51.596,-49.542c-30.629,-30.508 -63.417,-58.516 -98.671,-83.387c-68.063,-48.021 -141.263,-86.684 -218.113,-118.892c-79.954,-33.508 -162.708,-56.196 -248.391,-68.467c-17.575,-2.516 -35.371,-3.491 -52.875,-5.158c-1.746,3.275 -2.979,5.196 -3.842,7.271c-28.9,69.396 -60.137,137.933 -86.096,208.412c-43.291,117.55 -76.179,238.317 -99.058,361.546c-9.7,52.234 -16.742,104.996 -23.654,157.696c-5.305,40.442 -9.55,81.079 -12.388,121.767c-3.771,53.971 -7.867,108.071 -7.954,162.121c-0.154,92.654 4.429,185.187 14.346,277.429c8.187,76.158 17.087,152.187 33.95,226.962c13.904,61.671 26.704,123.804 44.942,184.238c30.712,101.758 64.462,202.65 108.987,299.504c20.671,44.971 39.008,91.125 61.746,135.012c45.375,87.575 95.441,172.534 152.05,253.442c32.337,46.213 63.133,93.709 98.296,137.692c70.758,88.521 145.608,173.608 227.879,251.829c30.246,28.754 59.746,58.417 91.433,85.504c38.321,32.767 78.321,63.596 118.088,94.638c94.512,73.779 193.908,140.125 299.137,197.854c91.388,50.133 185.438,94.371 282.346,132.591c68.667,27.084 137.775,53.384 208.813,73.284c85.133,23.85 170.945,45.533 258.045,61.367c29.755,5.408 59.567,10.808 89.559,14.541c40.941,5.092 82.041,9.117 123.158,12.625c43.85,3.738 87.775,6.763 131.717,9.258c23.341,1.321 46.787,0.755 70.179,1.296c4.917,0.113 9.808,1.338 14.708,2.054m-2290.72,0l2.754,0c5.841,-0.754 11.675,-2.07 17.525,-2.175c72.479,-1.304 144.933,-3.1 217.004,-11.608c51.437,-6.071 103.108,-10.992 154.096,-19.787c63.633,-10.98 127.179,-23.35 189.85,-38.805c110.837,-27.337 220.175,-60.02 326.104,-103.175c4.471,-1.82 8.871,-3.808 14.921,-6.416c-407.875,-251.204 -724.792,-585.625 -951.746,-1004.66c-66.25,-2.983 -130.888,-9.8 -195.042,-21.733c-77.721,-14.458 -153.654,-34.404 -227.171,-63.992c-68.216,-27.454 -134.287,-58.583 -196.5,-98.1c-58.175,-36.95 -114.8,-75.991 -167.021,-120.891c-71.887,-61.809 -136.37,-130.734 -191.008,-208.442c-21.887,-31.121 -45.05,-61.687 -63.537,-94.792c-48.08,-86.1 -92.213,-174.208 -120.046,-269.45c-0.934,-3.191 -2.892,-6.083 -4.367,-9.112l-2.621,0.221l-555.333,2071.32l22.175,0c570.325,0 1140.65,-0.004 1710.97,0.067c6.333,0 12.666,1 18.995,1.538m3490.51,-2794.26c185.23,-688.6 370.444,-1377.2 555.641,-2065.81c0.088,-0.334 -0.266,-0.821 -0.487,-1.188c-0.233,-0.383 -0.558,-0.708 -1.771,-2.196l-15.408,0c-471.717,0 -943.434,-0.333 -1415.15,0.238c-119.654,0.146 -239.363,-3.871 -358.975,3.371c-59.504,3.6 -119.183,4.754 -178.583,9.466c-50.242,3.984 -100.475,9.775 -150.204,17.892c-61.942,10.108 -123.85,21.342 -184.892,35.8c-121.388,28.746 -240.809,64.404 -356.659,111.179c-3.225,1.3 -6.225,3.163 -12.254,6.267c136.546,79.333 259.321,173.175 376.059,275.346c117.404,102.754 223.341,216.312 320.979,337.708c97.391,121.092 179.537,252.388 255.121,388.213c268.637,9.495 510.537,92.908 724.608,254.733c214.346,162.025 357.004,374.375 441.971,628.979" style="fill:#fff;"/><path d="M4585.42,0c2530.76,0 4585.42,2053.82 4585.42,4583.54c0,2529.72 -2054.66,4583.54 -4585.42,4583.54c-2530.76,-0 -4585.42,-2053.82 -4585.42,-4583.54c0,-2529.73 2054.66,-4583.54 4585.42,-4583.54Zm-0,229.073c-2404.28,0 -4356.25,1951.17 -4356.25,4354.47c-0,2403.3 1951.97,4354.47 4356.25,4354.47c2404.28,0 4356.25,-1951.17 4356.25,-4354.47c-0,-2403.3 -1951.97,-4354.47 -4356.25,-4354.47Z" style="fill:#fff;"/></g><defs><radialGradient id="_Radial1" cx="0" cy="0" r="1" gradientUnits="userSpaceOnUse" gradientTransform="matrix(-6866.35,11892.9,-11183.6,-6456.84,9161.97,-1866.55)"><stop offset="0" style="stop-color:#5980a6;stop-opacity:1"/><stop offset="1" style="stop-color:#0a1829;stop-opacity:1"/></radialGradient></defs></svg>