<?xml version="1.0" encoding="UTF-8"?>
<svg data-bbox="-209.246 -220.737 1492.417 1088.153" xmlns="http://www.w3.org/2000/svg" viewBox="0 0 928 602" fill-rule="evenodd" clip-rule="evenodd" stroke-linejoin="round" stroke-miterlimit="2" data-type="ugc">
    <g>
        <path d="M880.11 554.34V47.18H373v95.23h-46.73V0h601.28v601.49h-601.3v-142h46.81v94.81z" fill-rule="nonzero"/>
        <clipPath id="cd56f71c-60a4-4936-b2ad-c99215cee5fb">
            <path clip-rule="nonzero" d="M880.11 554.34V47.18H373v95.23h-46.73V0h601.28v601.49h-601.3v-142h46.81v94.81z"/>
        </clipPath>
        <g clip-path="url(#cd56f71c-60a4-4936-b2ad-c99215cee5fb)">
            <path fill="url(#d00f4d8d-09af-473a-a598-c24226316339)" d="M1281 263c0 256.26-309.371 464-691 464s-691-207.74-691-464 309.371-464 691-464 691 207.74 691 464" transform="matrix(.85958 -.18476 .3281 .89743 -56.48 196.324)"/>
        </g>
        <path d="M326.25 181.12c1.61-.09 3.07-.25 4.52-.25 24.5 0 49-.08 73.5 0s42.15 11.53 49.43 32.33c4.47 12.79 5.21 26.07 3.8 39.43a86 86 0 0 1-3 15.62c-4.3 14.33-12.93 24.95-27.73 29.95.54.69.75 1.26 1.11 1.38 16.64 5.55 25.86 17.68 29.32 34.25 4 19 3.12 37.8-4.25 55.89-7.69 18.87-22.26 29.88-42.38 30.65-27.93 1.08-55.94.28-84.31.28zm46.92 200.74h16.73c10.59-.05 16.1-3.86 19.1-13.95a62.36 62.36 0 0 0 .46-33.44c-1.63-6.38-4.78-12.45-11.64-13.72-8-1.49-16.26-1.33-24.62-1.9zm0-101.25c5.32 0 10.11.06 14.9 0 11.55-.15 18.88-5.33 20.7-16.73 1.315-8.989 1.577-18.1.78-27.15-.56-7.25-3.8-14.87-11.7-16.33s-16.32-.32-24.68-.32z" fill-rule="nonzero"/>
        <clipPath id="ef057357-6834-4406-8f23-5125cb07c8f7">
            <path clip-rule="nonzero" d="M326.25 181.12c1.61-.09 3.07-.25 4.52-.25 24.5 0 49-.08 73.5 0s42.15 11.53 49.43 32.33c4.47 12.79 5.21 26.07 3.8 39.43a86 86 0 0 1-3 15.62c-4.3 14.33-12.93 24.95-27.73 29.95.54.69.75 1.26 1.11 1.38 16.64 5.55 25.86 17.68 29.32 34.25 4 19 3.12 37.8-4.25 55.89-7.69 18.87-22.26 29.88-42.38 30.65-27.93 1.08-55.94.28-84.31.28zm46.92 200.74h16.73c10.59-.05 16.1-3.86 19.1-13.95a62.36 62.36 0 0 0 .46-33.44c-1.63-6.38-4.78-12.45-11.64-13.72-8-1.49-16.26-1.33-24.62-1.9zm0-101.25c5.32 0 10.11.06 14.9 0 11.55-.15 18.88-5.33 20.7-16.73 1.315-8.989 1.577-18.1.78-27.15-.56-7.25-3.8-14.87-11.7-16.33s-16.32-.32-24.68-.32z"/>
        </clipPath>
        <g clip-path="url(#ef057357-6834-4406-8f23-5125cb07c8f7)">
            <path fill="url(#c66d902c-d769-446f-8440-fcdda62707ff)" d="M1281 263c0 256.26-309.371 464-691 464s-691-207.74-691-464 309.371-464 691-464 691 207.74 691 464" transform="matrix(.85958 -.18476 .3281 .89743 -56.48 196.324)"/>
        </g>
        <path d="M214 220.66v199.81h-47.52V181.13c1.61-.09 3.36-.26 5.1-.26 21.83 0 43.66-.26 65.48.07 18 .27 34.7 4.53 47.28 18.64 9.82 11 14 24.47 15.27 38.78 1.41 16.47 1.17 32.92-4.47 48.83-3.83 10.82-9.8 20-19.65 26.22-2.55 1.6-2.61 3.1-1.83 5.72a21284 21284 0 0 1 28.84 98.44c.23.78.38 1.58.67 2.81h-49.25L220.29 290c4.56 0 8.31.05 12.06 0 8.81-.16 14.52-5 17.08-12.91 4.67-14.45 4.94-29.15-.22-43.58-3.22-9-9.13-12.79-18.65-12.86-5.3-.02-10.56.01-16.56.01" fill-rule="nonzero"/>
        <clipPath id="e501a798-69da-4c95-aba4-e97681b92c06">
            <path clip-rule="nonzero" d="M214 220.66v199.81h-47.52V181.13c1.61-.09 3.36-.26 5.1-.26 21.83 0 43.66-.26 65.48.07 18 .27 34.7 4.53 47.28 18.64 9.82 11 14 24.47 15.27 38.78 1.41 16.47 1.17 32.92-4.47 48.83-3.83 10.82-9.8 20-19.65 26.22-2.55 1.6-2.61 3.1-1.83 5.72a21284 21284 0 0 1 28.84 98.44c.23.78.38 1.58.67 2.81h-49.25L220.29 290c4.56 0 8.31.05 12.06 0 8.81-.16 14.52-5 17.08-12.91 4.67-14.45 4.94-29.15-.22-43.58-3.22-9-9.13-12.79-18.65-12.86-5.3-.02-10.56.01-16.56.01"/>
        </clipPath>
        <g clip-path="url(#e501a798-69da-4c95-aba4-e97681b92c06)">
            <path fill="url(#0ce7823a-e4f9-4915-a05f-ba83449fd9b6)" d="M1281 263c0 256.26-309.371 464-691 464s-691-207.74-691-464 309.371-464 691-464 691 207.74 691 464" transform="matrix(.85958 -.18476 .3281 .89743 -56.48 196.324)"/>
        </g>
        <path d="M0 181.12h47.91v175.06a47.6 47.6 0 0 0 .87 10.4c2.56 11.41 10.63 17 22.73 16.22 9.92-.68 16.55-7.72 17.7-18.9.179-1.995.252-3.998.22-6V181.17h45.13c.266 1.026.44 2.073.52 3.13 0 59.81.27 119.63-.21 179.44-.25 30.16-20.21 53-49.88 58.89-16.79 3.32-33.49 2.81-49.66-3.08-20.25-7.36-31-22.63-34.3-43.45a99 99 0 0 1-1-15.41Q-.06 274 0 187.26z" fill-rule="nonzero"/>
        <clipPath id="e92e3e40-5293-4896-a8fb-1e4e76dd036f">
            <path clip-rule="nonzero" d="M0 181.12h47.91v175.06a47.6 47.6 0 0 0 .87 10.4c2.56 11.41 10.63 17 22.73 16.22 9.92-.68 16.55-7.72 17.7-18.9.179-1.995.252-3.998.22-6V181.17h45.13c.266 1.026.44 2.073.52 3.13 0 59.81.27 119.63-.21 179.44-.25 30.16-20.21 53-49.88 58.89-16.79 3.32-33.49 2.81-49.66-3.08-20.25-7.36-31-22.63-34.3-43.45a99 99 0 0 1-1-15.41Q-.06 274 0 187.26z"/>
        </clipPath>
        <g clip-path="url(#e92e3e40-5293-4896-a8fb-1e4e76dd036f)">
            <path fill="url(#5d95d990-009b-44f2-95b0-13338e529b6a)" d="M1281 263c0 256.26-309.371 464-691 464s-691-207.74-691-464 309.371-464 691-464 691 207.74 691 464" transform="matrix(.85958 -.18476 .3281 .89743 -56.48 196.324)"/>
        </g>
        <path d="M685 245.33h-42.19c-.87-4.37-1.54-9.64-3-14.68-2-6.9-5.25-13.15-13.16-14.88-13.57-3-23.93 8.06-21.17 22.3 1.63 8.4 6.52 14.92 12.29 20.74 13.25 13.36 26.94 26.3 40.14 39.72 12.86 13.08 23.8 27.61 27.43 46.08 5.25 26.75 0 50.44-22.66 67.88-12.09 9.31-26.43 12.46-41.37 12.08-22.49-.58-41.14-8.84-53-29-7.25-12.3-10.16-25.84-11-40.89h43.84c1.91 6.66 3.25 13.9 6 20.51 3.71 8.74 12.19 12.1 21.06 9.68 5.71-1.56 9.09-5.46 10.75-10.82 3.53-11.35 1.6-22-6.22-30.84-8.94-10.07-18.59-19.53-28.11-29.08-11.74-11.78-24.3-22.77-33-37.27-14.78-24.62-14.32-55.81 1.51-77.2a52.74 52.74 0 0 1 26.38-18.86 75.1 75.1 0 0 1 42.79-1.8c23 5.83 34.59 22.26 39.54 44.25 1.52 6.75 2.02 13.75 3.15 22.08" fill-rule="nonzero"/>
        <clipPath id="43569be6-c4fe-4107-bc42-0c92d055284a">
            <path clip-rule="nonzero" d="M685 245.33h-42.19c-.87-4.37-1.54-9.64-3-14.68-2-6.9-5.25-13.15-13.16-14.88-13.57-3-23.93 8.06-21.17 22.3 1.63 8.4 6.52 14.92 12.29 20.74 13.25 13.36 26.94 26.3 40.14 39.72 12.86 13.08 23.8 27.61 27.43 46.08 5.25 26.75 0 50.44-22.66 67.88-12.09 9.31-26.43 12.46-41.37 12.08-22.49-.58-41.14-8.84-53-29-7.25-12.3-10.16-25.84-11-40.89h43.84c1.91 6.66 3.25 13.9 6 20.51 3.71 8.74 12.19 12.1 21.06 9.68 5.71-1.56 9.09-5.46 10.75-10.82 3.53-11.35 1.6-22-6.22-30.84-8.94-10.07-18.59-19.53-28.11-29.08-11.74-11.78-24.3-22.77-33-37.27-14.78-24.62-14.32-55.81 1.51-77.2a52.74 52.74 0 0 1 26.38-18.86 75.1 75.1 0 0 1 42.79-1.8c23 5.83 34.59 22.26 39.54 44.25 1.52 6.75 2.02 13.75 3.15 22.08"/>
        </clipPath>
        <g clip-path="url(#43569be6-c4fe-4107-bc42-0c92d055284a)">
            <path fill="url(#3f998b54-b9cb-4f00-b967-f12e22e075b1)" d="M1281 263c0 256.26-309.371 464-691 464s-691-207.74-691-464 309.371-464 691-464 691 207.74 691 464" transform="matrix(.85958 -.18476 .3281 .89743 -56.48 196.324)"/>
        </g>
        <path fill-rule="nonzero" d="M533.75 181.3v239.08h-47.47V181.3z"/>
        <clipPath id="abb92712-80e4-49b4-a735-997486446861">
            <path clip-rule="nonzero" d="M533.75 181.3v239.08h-47.47V181.3z"/>
        </clipPath>
        <g clip-path="url(#abb92712-80e4-49b4-a735-997486446861)">
            <path fill="url(#4b77b1df-68a0-402a-ac5b-2b2e777e820e)" d="M1281 263c0 256.26-309.371 464-691 464s-691-207.74-691-464 309.371-464 691-464 691 207.74 691 464" transform="matrix(.85958 -.18476 .3281 .89743 -56.48 196.324)"/>
        </g>
        <defs>
            <radialGradient gradientTransform="matrix(1382 0 0 928 -101 263)" gradientUnits="userSpaceOnUse" r="1" cy="0" cx="0" id="d00f4d8d-09af-473a-a598-c24226316339">
                <stop offset="0" stop-color="#59b8d8"/>
                <stop offset="1" stop-color="#6276b5"/>
            </radialGradient>
            <radialGradient gradientTransform="matrix(1382 0 0 928 -101 263)" gradientUnits="userSpaceOnUse" r="1" cy="0" cx="0" id="c66d902c-d769-446f-8440-fcdda62707ff">
                <stop offset="0" stop-color="#59b8d8"/>
                <stop offset="1" stop-color="#6276b5"/>
            </radialGradient>
            <radialGradient gradientTransform="matrix(1382 0 0 928 -101 263)" gradientUnits="userSpaceOnUse" r="1" cy="0" cx="0" id="0ce7823a-e4f9-4915-a05f-ba83449fd9b6">
                <stop offset="0" stop-color="#59b8d8"/>
                <stop offset="1" stop-color="#6276b5"/>
            </radialGradient>
            <radialGradient gradientTransform="matrix(1382 0 0 928 -101 263)" gradientUnits="userSpaceOnUse" r="1" cy="0" cx="0" id="5d95d990-009b-44f2-95b0-13338e529b6a">
                <stop offset="0" stop-color="#59b8d8"/>
                <stop offset="1" stop-color="#6276b5"/>
            </radialGradient>
            <radialGradient gradientTransform="matrix(1382 0 0 928 -101 263)" gradientUnits="userSpaceOnUse" r="1" cy="0" cx="0" id="3f998b54-b9cb-4f00-b967-f12e22e075b1">
                <stop offset="0" stop-color="#59b8d8"/>
                <stop offset="1" stop-color="#6276b5"/>
            </radialGradient>
            <radialGradient gradientTransform="matrix(1382 0 0 928 -101 263)" gradientUnits="userSpaceOnUse" r="1" cy="0" cx="0" id="4b77b1df-68a0-402a-ac5b-2b2e777e820e">
                <stop offset="0" stop-color="#59b8d8"/>
                <stop offset="1" stop-color="#6276b5"/>
            </radialGradient>
        </defs>
    </g>
</svg>
