<?xml version="1.0" encoding="UTF-8" standalone="no"?><!DOCTYPE svg PUBLIC "-//W3C//DTD SVG 1.1//EN" "http://www.w3.org/Graphics/SVG/1.1/DTD/svg11.dtd"><svg width="100%" height="100%" viewBox="0 0 281 243" version="1.1" xmlns="http://www.w3.org/2000/svg" xmlns:xlink="http://www.w3.org/1999/xlink" xml:space="preserve" xmlns:serif="http://www.serif.com/" style="fill-rule:evenodd;clip-rule:evenodd;stroke-linejoin:round;stroke-miterlimit:2;"><g><path d="M0,164.563l280.142,-0.001l-0,-37.083l-280.142,0l0,37.083Zm0,-127.479l280.142,0l-0,-37.083l-280.142,-0l0,37.083Z" style="fill-rule:nonzero;"/><path d="M187.154,72.446c-3.278,6.139 -3.278,13.527 0,19.667c1.557,2.888 3.878,5.294 6.709,6.954c2.897,1.688 6.2,2.555 9.554,2.508c2.699,0.011 5.372,-0.537 7.85,-1.608c2.421,-1.041 4.632,-2.516 6.525,-4.35l9.458,10.496c-2.978,3.226 -6.603,5.789 -10.637,7.52c-4.166,1.799 -8.659,2.717 -13.196,2.696c-6.303,0.117 -12.523,-1.451 -18.017,-4.541c-5.15,-2.911 -9.403,-7.18 -12.292,-12.342c-5.864,-10.681 -5.864,-23.653 0,-34.333c2.892,-5.159 7.144,-9.427 12.292,-12.338c5.494,-3.09 11.714,-4.658 18.017,-4.542c4.521,-0.025 8.999,0.893 13.146,2.696c4.019,1.737 7.629,4.299 10.595,7.521l-9.366,10.496c-1.898,-1.828 -4.108,-3.301 -6.525,-4.35c-2.478,-1.072 -5.151,-1.619 -7.85,-1.608c-3.352,-0.047 -6.654,0.82 -9.55,2.508c-2.832,1.658 -5.154,4.062 -6.713,6.95m-114.146,142.233l7.363,-19.816l7.358,19.816l-14.721,0Zm7.596,-38.962c-5.361,-0 -9.333,3.341 -11.916,10.025l-21.938,57.121l15.792,-0l5.479,-14.755l24.696,0l5.479,14.75l16.267,0l-22.042,-57.116c-2.583,-6.684 -6.522,-10.025 -11.817,-10.025m-65.583,53.225l26.533,-0l0,13.916l-41.554,0l0,-66.195l15.025,-0l-0.004,52.279Zm113.287,-141.742l7.359,-19.821l7.362,19.821l-14.721,-0Zm7.596,-38.967c-5.361,0 -9.333,3.342 -11.916,10.025l-21.942,57.125l15.792,0l5.483,-14.754l24.696,0l5.479,14.75l16.267,0l-22.042,-57.125c-2.583,-6.678 -6.522,-10.018 -11.817,-10.021m99.509,0.942l44.733,0l-0,13.917l-29.708,-0l-0,11.458l27.162,-0l0,14.687l-27.167,0l0,12.225l29.709,0.001l-0,13.916l-44.725,0l-0.004,-66.204Zm-180.113,0l0,66.208l41.554,0l0,-13.925l-26.529,0l0,-52.291l-15.025,0.008Zm-40.275,29.283l8.404,0c2.971,0 10.609,0 10.609,-7.808c-0,-7.554 -7.3,-7.554 -10.184,-7.554l-8.833,-0l0.004,15.362Zm0,36.925l-15.025,0l0,-66.208l26.4,-0c2.883,-0 23.425,-0 23.425,21.563c0,21.725 -20.708,22.404 -23.512,22.404l-11.292,-0l0.004,22.241Zm129.667,113.559l-10.009,-0l0,-13.071l10.521,-0c3.313,-0 9.85,0.596 9.85,6.537c0,6.113 -6.962,6.534 -10.358,6.534m-10.013,-38.363l9.417,0c3.313,0 8.829,0.592 8.829,6.113c0,5.77 -5.771,6.196 -9.25,6.196l-9,-0l0.004,-12.309Zm23.934,18.333l-0,-0.17c6.295,-2.223 10.416,-8.353 10.1,-15.021c-0,-9.933 -7.129,-17.063 -19.863,-17.063l-29.196,0l0,66.205l27.925,-0c9.167,-0 23.596,-3.138 23.596,-18.25c0.451,-7.641 -5.009,-14.465 -12.562,-15.7" style="fill-rule:nonzero;"/></g></svg>