<?xml version="1.0" encoding="UTF-8" standalone="no"?><!DOCTYPE svg PUBLIC "-//W3C//DTD SVG 1.1//EN" "http://www.w3.org/Graphics/SVG/1.1/DTD/svg11.dtd"><svg width="100%" height="100%" viewBox="0 0 8334 596" version="1.1" xmlns="http://www.w3.org/2000/svg" xmlns:xlink="http://www.w3.org/1999/xlink" xml:space="preserve" xmlns:serif="http://www.serif.com/" style="fill-rule:evenodd;clip-rule:evenodd;stroke-linejoin:round;stroke-miterlimit:2;"><g><path d="M61.467,21.554l-61.459,0l0,377.863l213.646,-0l0,-39.084l-152.187,0l-0,-338.779Z" style="fill-rule:nonzero;"/><path d="M274.383,399.417l286.084,-0l-0,-39.084l-224.625,0l-0,-148.341l218.041,-0l0,-39.092l-218.041,0l-0,-112.254l224.625,-0l-0,-39.092l-286.084,0l0,377.863Z" style="fill-rule:nonzero;"/><path d="M916.058,60.646l0,-39.092l-250.966,0l-0,377.863l61.458,-0l0,-187.425l183.654,-0l0,-39.092l-183.65,0l0,-112.254l189.504,-0Z" style="fill-rule:nonzero;"/><path d="M1265.79,60.646l-0,-39.092l-250.959,0l0,377.863l61.459,-0l-0,-187.425l183.65,-0l-0,-39.092l-183.65,0l-0,-112.254l189.5,-0Z" style="fill-rule:nonzero;"/><path d="M1426.03,21.554l-61.458,0l-0,377.863l213.646,-0l-0,-39.084l-152.188,0l0,-338.779Z" style="fill-rule:nonzero;"/><path d="M1638.95,399.417l286.083,-0l0,-39.084l-224.625,0l0,-148.341l218.042,-0l-0,-39.092l-218.042,0l0,-112.254l224.625,-0l0,-39.092l-286.083,0l-0,377.863Z" style="fill-rule:nonzero;"/><path d="M2091.12,60.646l18.291,-0c21.953,-0 40.853,0.751 56.7,2.254c15.861,1.503 30.131,4.51 42.809,9.021c12.68,4.508 22.68,11.357 30,20.546c7.319,9.189 10.977,21.3 10.975,36.333c-0,14.033 -3.782,25.561 -11.346,34.583c-7.556,9.014 -17.92,15.945 -31.092,20.792c-13.166,4.842 -27.68,8.1 -43.541,9.775c-15.85,1.667 -33.774,2.501 -53.771,2.504l-19.025,0l-0,-135.808Zm-0,172.896l15.366,-0l166.821,165.875l75.363,-0l-175.6,-169.384c42.433,-2.68 76.09,-13.455 100.971,-32.325c24.875,-18.88 37.312,-42.852 37.312,-71.916c0,-20.381 -5.365,-37.503 -16.096,-51.367c-10.733,-13.867 -25.366,-24.557 -43.9,-32.071c-18.533,-7.522 -39.751,-12.868 -63.654,-16.037c-23.9,-3.175 -49.997,-4.763 -78.292,-4.763l-79.75,0l0,377.863l61.459,-0l-0,-165.875Z" style="fill-rule:nonzero;"/><path d="M2859.13,73.675c-13.028,-18.714 -30.617,-33.164 -52.766,-43.35c-22.153,-10.189 -46.91,-15.283 -74.271,-15.283c-18.242,-0 -35.616,2.255 -52.121,6.766c-16.506,4.509 -31.272,11.023 -44.3,19.542c-13.031,8.517 -23.131,18.707 -30.3,30.571c-7.164,11.855 -10.745,24.969 -10.742,39.342c0,13.025 2.713,24.466 8.138,34.325c5.43,9.852 13.03,18.54 22.8,26.062c9.777,7.514 20.636,13.944 32.575,19.292c11.944,5.341 26.389,11.022 43.333,17.041l29.963,10.021l2.608,1c14.333,5.009 26.167,9.436 35.5,13.284c9.159,3.741 17.894,8.445 26.058,14.033c8.039,5.508 14.447,12.105 19.225,19.792c4.781,7.677 7.17,16.698 7.167,27.062c-0,10.356 -2.717,20.044 -8.15,29.067c-5.422,9.019 -12.913,16.871 -22.471,23.554c-9.556,6.678 -20.414,11.857 -32.575,15.537c-12.254,3.687 -24.986,5.545 -37.783,5.513c-25.628,-0 -47.454,-6.767 -65.479,-20.3c-18.025,-13.533 -28.991,-30.154 -32.896,-49.863l-53.421,11.525c7.817,29.398 25.514,53.036 53.092,70.917c27.583,17.869 60.919,26.806 100.008,26.808c21.278,0 41.255,-2.923 59.933,-8.77c18.678,-5.856 35.182,-14.124 49.513,-24.805c14.333,-10.7 25.409,-23.144 33.229,-37.333c7.817,-14.206 11.725,-29.492 11.725,-45.858c-0,-14.373 -3.04,-27.067 -9.121,-38.084c-6.083,-11.03 -14.444,-20.637 -25.083,-28.82c-10.639,-8.189 -22.584,-15.205 -35.834,-21.046c-13.244,-5.85 -29.205,-11.948 -47.883,-18.292l-32.571,-11.025c-10.861,-3.681 -20.416,-7.189 -28.666,-10.525c-8.123,-3.286 -15.967,-7.224 -23.455,-11.775c-7.389,-4.514 -13.361,-9.861 -17.916,-16.042c-4.497,-5.992 -6.9,-13.3 -6.838,-20.791c0,-17.042 8.035,-31.075 24.104,-42.1c16.067,-11.025 35.178,-16.538 57.334,-16.538c19.972,0 36.475,3.342 49.508,10.025c13.028,6.681 24.756,17.038 35.183,31.071l43.646,-21.55Z" style="fill-rule:nonzero;"/><rect x="2961.42" y="21.554" width="54.721" height="377.863" style="fill-rule:nonzero;"/><path d="M3083.24,399.417l56.029,-0l63.191,-255.584l1.305,0l157.662,271.121l158.309,-271.121l1.304,0l63.196,255.584l56.025,-0l-99.675,-399.409l-179.159,317.221l-178.512,-317.221l-99.675,399.409Z" style="fill-rule:nonzero;"/><path d="M3706.06,399.417l254.733,-0l-0,-39.084l-200.008,0l-0.001,-148.341l194.146,-0l0,-39.092l-194.146,0l0.001,-112.254l200.008,-0l-0,-39.092l-254.733,0l-0,377.863Z" style="fill-rule:nonzero;"/><path d="M4323.68,73.675c-13.031,-18.714 -30.621,-33.164 -52.771,-43.35c-22.15,-10.189 -46.907,-15.283 -74.271,-15.283c-18.241,-0 -35.614,2.255 -52.116,6.766c-16.509,4.509 -31.277,11.023 -44.305,19.542c-13.03,8.517 -23.13,18.707 -30.3,30.571c-7.163,11.855 -10.744,24.969 -10.741,39.342c-0,13.025 2.712,24.466 8.137,34.325c5.431,9.852 13.032,18.54 22.804,26.062c9.773,7.514 20.63,13.944 32.571,19.292c11.95,5.341 26.395,11.022 43.334,17.041l29.966,10.021l2.604,1c14.334,5.009 26.167,9.436 35.5,13.284c9.161,3.74 17.897,8.445 26.063,14.033c8.036,5.508 14.443,12.105 19.221,19.792c4.78,7.677 7.169,16.698 7.166,27.062c0,10.356 -2.715,20.044 -8.145,29.067c-5.428,9.019 -12.918,16.871 -22.471,23.554c-9.556,6.678 -20.414,11.857 -32.575,15.537c-12.256,3.688 -24.989,5.545 -37.788,5.513c-25.625,-0 -47.451,-6.767 -65.479,-20.3c-18.022,-13.533 -28.987,-30.154 -32.896,-49.863l-53.421,11.525c7.817,29.398 25.514,53.036 53.092,70.917c27.583,17.869 60.92,26.806 100.008,26.808c21.281,0 41.26,-2.923 59.938,-8.77c18.672,-5.856 35.176,-14.124 49.512,-24.805c14.334,-10.7 25.409,-23.144 33.225,-37.333c7.817,-14.206 11.725,-29.492 11.725,-45.858c0,-14.373 -3.04,-27.067 -9.12,-38.084c-6.084,-11.03 -14.445,-20.637 -25.084,-28.82c-10.639,-8.189 -22.583,-15.205 -35.833,-21.046c-13.244,-5.85 -29.204,-11.948 -47.879,-18.292l-32.575,-11.025c-10.859,-3.681 -20.414,-7.189 -28.667,-10.525c-8.123,-3.286 -15.966,-7.224 -23.454,-11.775c-7.389,-4.514 -13.361,-9.861 -17.917,-16.042c-4.496,-5.992 -6.9,-13.3 -6.837,-20.791c-0,-17.042 8.035,-31.075 24.104,-42.1c16.067,-11.025 35.178,-16.538 57.333,-16.538c19.973,0 36.475,3.342 49.509,10.025c13.033,6.681 24.761,17.038 35.183,31.071l43.65,-21.55Z" style="fill-rule:nonzero;"/><path d="M4906.53,292.175l59.767,107.242l62.45,-0l-227.65,-395.9l-233.692,395.9l61.779,-0l61.113,-107.242l216.233,0Zm-22.163,-39.092l-171.241,0l86.629,-151.346l84.612,151.346Z" style="fill-rule:nonzero;"/><path d="M5140.22,60.646l16.791,-0c20.145,-0 37.491,0.751 52.038,2.254c14.547,1.503 27.644,4.51 39.292,9.021c11.633,4.508 20.809,11.357 27.529,20.546c6.716,9.186 10.075,21.297 10.075,36.333c-0,14.033 -3.473,25.561 -10.417,34.583c-6.933,9.014 -16.444,15.945 -28.533,20.792c-12.089,4.842 -25.409,8.1 -39.959,9.775c-14.55,1.667 -31.002,2.501 -49.358,2.504l-17.458,0l-0,-135.808Zm-0,172.896l14.104,-0l153.108,165.875l69.167,-0l-161.167,-169.384c38.947,-2.68 69.838,-13.455 92.671,-32.325c22.833,-18.88 34.25,-42.852 34.25,-71.916c-0,-20.381 -4.925,-37.503 -14.775,-51.367c-9.853,-13.867 -23.283,-24.557 -40.292,-32.071c-17.008,-7.522 -36.483,-12.868 -58.425,-16.037c-21.936,-3.175 -45.887,-4.763 -71.854,-4.763l-73.196,0l0,377.863l56.409,-0l-0,-165.875Z" style="fill-rule:nonzero;"/><path d="M5833.91,52.125c-44.319,-24.722 -94.683,-37.083 -151.091,-37.083c-35.814,-0 -69.728,5.094 -101.742,15.283c-32.003,10.186 -60.208,24.386 -84.617,42.6c-24.394,18.203 -43.42,39.25 -57.079,63.142c-13.65,23.883 -20.475,49.191 -20.475,75.925c-0.003,26.389 6.936,51.361 20.817,74.916c13.88,23.553 33.018,44.268 57.412,62.146c24.403,17.872 52.607,31.821 84.613,41.846c32.011,10.022 65.701,15.033 101.071,15.033c26.408,0 52.708,-3.257 78.9,-9.77c26.186,-6.52 50.25,-15.624 72.191,-27.313l0,-52.121c-20.594,15.367 -44.32,27.561 -71.179,36.583c-26.864,9.023 -54.173,13.534 -81.929,13.534c-27.753,-0.003 -54.167,-4.179 -79.242,-12.529c-25.066,-8.356 -47.116,-19.8 -66.15,-34.334c-19.022,-14.527 -33.795,-31.315 -44.32,-50.362c-10.514,-19.045 -15.773,-38.756 -15.775,-59.134c-0,-20.383 5.258,-40.094 15.775,-59.133c10.527,-19.044 25.301,-35.833 44.32,-50.367c19.031,-14.533 40.857,-25.976 65.48,-34.329c24.622,-8.352 50.812,-12.529 78.57,-12.529c28.653,-0.003 56.41,4.425 83.271,13.283c26.859,8.85 50.585,21.128 71.179,36.834l0,-52.121Z" style="fill-rule:nonzero;"/><path d="M5988.36,174.904l-0,-153.35l-56.409,0l0,377.863l56.409,-0l-0,-185.417l259.208,-0l-0,185.417l56.412,-0l0,-377.863l-56.408,0l0,153.35l-259.212,0Z" style="fill-rule:nonzero;"/><rect x="6410.08" y="21.554" width="56.413" height="377.863" style="fill-rule:nonzero;"/><path d="M6703.54,60.646l123.566,-0l0,-39.092l-302.191,0l-0,39.092l122.22,-0l0,338.771l56.409,-0l-0.004,-338.771Z" style="fill-rule:nonzero;"/><path d="M6884.86,399.417l262.571,-0l0,-39.084l-206.162,0l-0,-148.341l200.116,-0l0,-39.092l-200.116,0l-0,-112.254l206.162,-0l0,-39.092l-262.571,0l0,377.863Z" style="fill-rule:nonzero;"/><path d="M7629.59,52.125c-44.32,-24.722 -94.685,-37.083 -151.096,-37.083c-35.811,-0 -69.725,5.094 -101.742,15.283c-32,10.186 -60.204,24.386 -84.612,42.6c-24.392,18.203 -43.42,39.25 -57.084,63.142c-13.647,23.883 -20.471,49.191 -20.471,75.925c-0.002,26.389 6.936,51.361 20.817,74.916c13.878,23.553 33.014,44.268 57.408,62.146c24.409,17.872 52.614,31.821 84.617,41.846c32.011,10.022 65.7,15.033 101.067,15.033c26.414,0 52.714,-3.257 78.9,-9.77c26.194,-6.52 50.259,-15.624 72.196,-27.313l-0,-52.121c-20.595,15.367 -44.323,27.561 -71.184,36.583c-26.861,9.023 -54.169,13.534 -81.925,13.534c-27.755,-0 -54.169,-4.177 -79.241,-12.529c-25.067,-8.356 -47.117,-19.8 -66.15,-34.334c-19.025,-14.527 -33.799,-31.315 -44.321,-50.362c-10.514,-19.045 -15.773,-38.756 -15.775,-59.134c-0,-20.383 5.258,-40.094 15.775,-59.133c10.522,-19.044 25.296,-35.833 44.321,-50.367c19.03,-14.533 40.856,-25.976 65.479,-34.329c24.622,-8.352 50.812,-12.529 78.57,-12.529c28.653,-0.003 56.409,4.425 83.267,13.283c26.861,8.85 50.589,21.128 71.184,36.834l-0,-52.121Z" style="fill-rule:nonzero;"/><path d="M7859.25,60.646l123.567,-0l-0,-39.092l-302.192,0l0,39.092l122.221,-0l-0,338.771l56.408,-0l-0.004,-338.771Z" style="fill-rule:nonzero;"/><path d="M8315.23,73.675c-13.431,-18.714 -31.563,-33.164 -54.396,-43.35c-22.833,-10.189 -48.351,-15.283 -76.554,-15.283c-18.806,-0 -36.714,2.255 -53.725,6.766c-17.011,4.509 -32.232,11.023 -45.662,19.542c-13.434,8.517 -23.844,18.707 -31.23,30.571c-7.389,11.855 -11.082,24.969 -11.079,39.342c0,13.025 2.797,24.466 8.392,34.325c5.6,9.852 13.433,18.54 23.5,26.062c10.075,7.514 21.269,13.944 33.583,19.292c12.314,5.341 27.2,11.022 44.659,17.041l30.891,10.021l2.684,1c14.777,5.009 26.976,9.436 36.595,13.284c9.418,3.732 18.42,8.435 26.863,14.033c8.289,5.508 14.893,12.105 19.812,19.792c4.923,7.677 7.385,16.698 7.388,27.062c-0,10.356 -2.8,20.044 -8.4,29.067c-5.589,9.019 -13.31,16.871 -23.163,23.554c-9.847,6.678 -21.039,11.857 -33.575,15.537c-12.653,3.69 -25.77,5.546 -38.95,5.513c-26.411,-0 -48.909,-6.767 -67.495,-20.3c-18.573,-13.533 -29.874,-30.154 -33.905,-49.863l-55.066,11.525c8.058,29.398 26.3,53.036 54.725,70.917c28.433,17.869 62.794,26.806 103.083,26.808c21.939,0 42.533,-2.923 61.783,-8.77c19.25,-5.856 36.263,-14.124 51.038,-24.805c14.769,-10.7 26.186,-23.144 34.25,-37.333c8.055,-14.206 12.083,-29.492 12.083,-45.858c0,-14.373 -3.133,-27.067 -9.4,-38.084c-6.264,-11.03 -14.883,-20.637 -25.858,-28.82c-10.964,-8.189 -23.277,-15.205 -36.938,-21.046c-13.647,-5.85 -30.097,-11.948 -49.35,-18.292l-33.579,-11.025c-9.944,-3.233 -19.797,-6.743 -29.546,-10.525c-8.362,-3.267 -16.447,-7.205 -24.175,-11.775c-7.611,-4.514 -13.768,-9.861 -18.47,-16.042c-4.703,-6.18 -7.052,-13.111 -7.046,-20.791c-0.003,-17.042 8.279,-31.075 24.846,-42.1c16.566,-11.025 36.265,-16.538 59.095,-16.538c20.595,0 37.606,3.342 51.034,10.025c13.433,6.681 25.521,17.038 36.262,31.071l44.996,-21.55Z" style="fill-rule:nonzero;"/><path d="M8321.04,578.125l-0.001,14.113l-8321.04,-0l0,-14.109l8321.04,-0.004Z"/></g></svg>