<?xml version="1.0" encoding="UTF-8"?>
<svg data-bbox="0 0 2445.544 1428.577" xmlns="http://www.w3.org/2000/svg" viewBox="0 0 2446 1429" fill-rule="evenodd" clip-rule="evenodd" stroke-linejoin="round" stroke-miterlimit="2" data-type="ugc">
    <g>
        <path d="M725.88 907.577h305.82v-415.06L837.562 327.723V864.9h-68.006V271.46l67.292 55.685V267.59L725.88 173.676z" fill="#bc955c" fill-rule="nonzero"/>
        <path d="m1519.35 81.607-295.64 266.445L928.186 81.607 837.562 0v267.59l194.153 164.941.282.283 156.34 134.003 35.372 30.209 35.358-30.209 121.548-104.226 5.297-4.435 29.36-25.06v.283l194.703-166.072V0z" fill="#bc955c" fill-rule="nonzero"/>
        <path fill="#bc955c" fill-rule="nonzero" d="M1610.273 327.01v.149h-.432v-.149z"/>
        <path d="M1610.273 267.307v59.703l68.006-55.834V864.9h-68.304V327.293l-194.703 166.37v413.914h305.373V173.96z" fill="#bc955c" fill-rule="nonzero"/>
        <path d="m327.442 1030.837-151.34 168.527-151.474-168.527H0v389.718h77.887v-214.182l98.215 103.08 98.214-103.08-.565 214.182h77.887v-389.718z" fill="#0e3b60" fill-rule="nonzero"/>
        <path d="M484.213 1420.555v-383.84h192.143v76.74H560.954v76.876h100.938v76.742H560.954v76.74H682.8v76.742z" fill="#0e3b60" fill-rule="nonzero"/>
        <path d="M879.08 1200.078h67.575c52.113 0 52.113-85.908 0-85.908H879.08zm114.54 221.191-77.322-146.607H879.08v146.607h-76.74v-384.554h151.34c136.86 0 150.328 192.857 37.649 225.491l89.047 158.498z" fill="#0e3b60" fill-rule="nonzero"/>
        <path fill="#0e3b60" fill-rule="nonzero" d="M1255.912 1036.715v383.84h-76.742v-383.84z"/>
        <path d="M1436.88 1420.555v-307.1h-95.492v-76.175h267.873v76.176h-95.64v307.1z" fill="#0e3b60" fill-rule="nonzero"/>
        <path d="M1866.688 1109.304c-153.483 0-153.483 237.233 0 237.233 153.482 0 153.631-237.233 0-237.233m0-79.033c264.152 0 264.152 395.73 0 395.73-264.153 0-264.153-395.73 0-395.73" fill="#0e3b60" fill-rule="nonzero"/>
        <path d="M2153.89 1028.694v391.861h76.89V1211.82l194.287 216.757h20.477V1037.28h-77.322v216.906l-193.855-225.492z" fill="#0e3b60" fill-rule="nonzero"/>
    </g>
</svg>
