<?xml version="1.0" encoding="UTF-8"?>
<svg data-bbox="0 0 2000 2175.582" xmlns="http://www.w3.org/2000/svg" viewBox="0 0 2000 2176" fill-rule="evenodd" clip-rule="evenodd" stroke-linejoin="round" stroke-miterlimit="2" data-type="ugc">
    <g>
        <path d="m2000 473.752-708.13-408.16S1179.683 0 1000.7 0C814.318 0 706.33 67.593 706.33 67.593L50.394 442.955l997.9 573.543v1159.084l656.734-374.963s117.389-64.793 206.58-218.778c78.592-135.586 88.39-266.773 88.39-266.773zM932.107 662.533s146.385-26.997 270.173 44.396c123.787 71.393 196.78 113.388 196.78 113.388s.2 99.39.2 247.976c0 118.988-100.79 242.375-100.79 242.375l.2-436.556zm580.342 957.504-213.78 122.588v-114.988l166.384-95.19c158.384-114.19 184.582-282.573 184.582-340.967l-.6-517.148-453.755-261.174s-68.993-45.195-192.98-45.195c-123.988 0-191.581 41.795-191.581 41.795L651.335 501.35l-100.59-58.194 220.178-125.787s86.191-47.796 230.577-47.796c132.586 0 235.776 51.795 235.776 51.795l512.349 295.97-.6 564.344c3.6 86.791-36.796 298.77-236.576 438.356" fill="#005f9e" fill-rule="nonzero"/>
        <path d="m0 818.318 699.53 401.36-.6 119.587-397.96-228.177-250.375 142.386 647.935 373.363.4 115.188L4.8 1342.665c1.8 46.795 44.195 190.981 125.387 302.57 82.392 112.989 176.382 160.984 176.382 160.984l641.536 369.363v-1101.49L.6 529.946z" fill="#005f9e" fill-rule="nonzero"/>
    </g>
</svg>
