<?xml version="1.0" encoding="UTF-8"?>
<svg data-bbox="0 0 2500.005 2651.852" xmlns="http://www.w3.org/2000/svg" viewBox="0 0 2500 2652" fill-rule="evenodd" clip-rule="evenodd" stroke-linejoin="round" stroke-miterlimit="2" data-type="ugc">
    <g>
        <path d="M332.63 2651.8h2167.375V413.94H223.602v2128.039a116 116 0 0 0-.08 4.276c0 57.947 47.65 105.597 105.597 105.597 1.162 0 2.35-.026 3.511-.053" fill="#0c3f92" fill-rule="nonzero"/>
        <path d="M2198.79 0H402.06l1.584 1863.52h1912.622V115.627C2315.263 51.874 2262.544 0 2198.79 0" fill="#186cff" fill-rule="nonzero"/>
        <path d="m0 2106.656 402.06-243.137V0L0 243.137z" fill="#699aeb" fill-rule="nonzero"/>
        <path d="M1823.921 1310.192v151.004a156.67 156.67 0 0 1-113.517 26.399c-90.549.58-172.94-53.802-208.025-137.276-37.223-75.238-76.558-151.795-113.78-228.353-3.96-7.92-9.769-17.688-13.728-26.4h-107.973c0 41.183-1.848 80.518-1.848 119.589v249.208h-260.824V421.86c12.328-1.716 24.789-2.402 37.223-2.112 115.628 0 229.409-1.848 345.301 0a539.9 539.9 0 0 1 221.49 41.183c79.699 31.468 139.572 99.393 160.77 182.418a211.2 211.2 0 0 1 6.072 50.95v96.094c3.96 94.245-41.182 161.035-113.78 213.833-13.728 9.768-29.567 19.8-47.255 31.415 13.728 26.4 26.4 50.95 39.335 76.558 23.495 45.143 49.103 88.173 70.75 133.316 14.07 33.58 46.04 56.415 82.366 58.87 5.807 1.848 9.767 3.96 17.423 5.808m-557.023-398.1h107.973a251 251 0 0 0 37.222-1.848c49.288-2.402 89.731-41.13 94.246-90.285a1168 1168 0 0 0 1.848-117.74c-.95-43.11-32.128-80.016-74.446-88.174-52.799-17.687-107.973-9.767-164.731-9.767-2.112 103.22-2.112 203.801-2.112 307.814" fill="#ffffff" fill-rule="nonzero"/>
        <path d="M1147.31 2377.248v57.022a55.57 55.57 0 0 1-43.031 9.768c-33.686 1.082-64.546-19.456-76.558-50.95-13.727-29.568-26.4-57.023-43.295-86.326-1.847-3.96-3.695-6.072-5.807-9.768h-38.807v137.276H843.19v-386.484c3.96 0 10.031-1.848 13.991-1.848h127.244a198.5 198.5 0 0 1 82.63 15.575c29.91 12.012 52.455 37.487 60.718 68.638a64 64 0 0 1 1.848 19.536v36.167c1.795 32.365-14.916 63.094-43.03 79.197l-17.688 11.88c5.808 9.768 9.768 19.535 15.575 26.399 7.92 15.576 17.688 33.263 26.4 49.103 4.725 12.222 16.209 20.617 29.303 21.383a10.1 10.1 0 0 0 7.128 3.432m-207.498-147.044h52.798c18.242-1.03 33.237-15.126 35.375-33.263.924-14.414.924-28.88 0-43.294-.422-15.682-11.22-29.277-26.4-33.263a214.1 214.1 0 0 0-60.717-3.96z" fill="#ffffff" fill-rule="nonzero"/>
        <path d="M1357.183 2351.905c23.495-100.053 46.99-198.258 70.75-298.311a398.7 398.7 0 0 1 97.941-1.848c0 9.767-94.245 356.917-105.597 386.484h-127.772c-9.768-17.688-113.78-376.717-113.78-386.484h98.205c13.727 49.102 26.399 100.053 39.07 151.003 12.672 50.95 26.4 100.053 39.335 149.156z" fill="#ffffff" fill-rule="nonzero"/>
        <path d="M1873.024 2051.746v70.486h-97.942v316.79c-33.526 1.848-64.678 0-98.205 0a503 503 0 0 1 0-52.798v-261.88h-101.9a396 396 0 0 1 0-70.75c100.053-1.848 197.994-1.848 298.047-1.848" fill="#ffffff" fill-rule="nonzero"/>
    </g>
</svg>
