<?xml version="1.0" encoding="UTF-8"?>
<svg data-bbox="5.36 10.251 245.28 235.498" viewBox="0 0 256 256" height="256" width="256" xmlns="http://www.w3.org/2000/svg" data-type="ugc">
    <g>
        <defs>
            <linearGradient y2="11.232" x2="197.17" y1="249.007" x1="200.788" gradientUnits="userSpaceOnUse" id="8e3daa70-3547-47fa-9a91-9763ecb29aeb">
                <stop stop-color="#589632" offset="0"/>
                <stop stop-color="#93B023" offset="1"/>
            </linearGradient>
            <linearGradient y2="16.928" x2="126.351" y1="252.718" x1="129.939" gradientUnits="userSpaceOnUse" id="3364d8e4-1e5d-425d-916f-59bf1100e3c3">
                <stop stop-color="#589632" offset="0"/>
                <stop stop-color="#93B023" offset="1"/>
            </linearGradient>
        </defs>
        <path fill="#EE7913" d="M137.607 136.899h34.437l-29.146-28.816H107.19v34.309l30.417 30.316z"/>
        <path fill="url(#8e3daa70-3547-47fa-9a91-9763ecb29aeb)" d="m248.061 212.048-61.443-60.742H152.01v35.761l58.881 58.682h37.17z"/>
        <path fill="#F0E64A" d="M152.01 151.306h34.608l-14.574-14.407h-34.437v35.809l14.403 14.359z"/>
        <path fill="url(#3364d8e4-1e5d-425d-916f-59bf1100e3c3)" d="M144.826 199.3a72.2 72.2 0 0 1-16.238 1.854c-40.027 0-74.072-32.914-74.072-75.59s33.666-74.869 74.072-74.869c40.401 0 72.57 32.187 72.57 74.869a81.4 81.4 0 0 1-2.461 19.945l37.047 37.042c9.552-16.736 14.896-36.197 14.896-57.274 0-65.778-52.493-115.026-122.801-115.026-69.99 0-122.479 48.927-122.479 115.026 0 66.421 52.489 116.321 122.479 116.321 18.066 0 34.952-3.323 50.077-9.371z"/>
        <path fill-opacity=".172" fill="#FFFFFF" d="m107.19 108.083 140.871 137.666v-33.701l-61.443-60.742-14.574-14.408-29.146-28.815z"/>
    </g>
</svg>
