<?xml version="1.0" encoding="UTF-8" standalone="no"?><!DOCTYPE svg PUBLIC "-//W3C//DTD SVG 1.1//EN" "http://www.w3.org/Graphics/SVG/1.1/DTD/svg11.dtd"><svg width="100%" height="100%" viewBox="0 0 985 985" version="1.1" xmlns="http://www.w3.org/2000/svg" xmlns:xlink="http://www.w3.org/1999/xlink" xml:space="preserve" xmlns:serif="http://www.serif.com/" style="fill-rule:evenodd;clip-rule:evenodd;stroke-linejoin:round;stroke-miterlimit:2;"><path d="M982.813,98.438c-0,-54.33 -44.109,-98.438 -98.438,-98.438l-787.5,-0c-54.329,-0 -98.437,44.108 -98.437,98.438l-0.001,787.499c0.001,54.33 44.109,98.438 98.438,98.438l787.5,-0c54.329,-0 98.438,-44.108 98.438,-98.438l-0,-787.499Z" style="fill:url(#_Radial1);"/><g><path d="M887.5,126.351c-30.149,6.975 -99.188,7.071 -116.705,36.963l-17.678,29.634c-44.226,75.468 -155.339,355.772 -263.012,359.372c-107.673,3.632 56.633,-344.298 72.961,-379.171c-66.854,15.717 -131.072,6.203 -155.114,74.761c-24.909,71.096 -49.498,142.225 -75.95,212.775c-54.961,145.664 -121.976,285.736 -213.225,410.348c2.057,-2.765 4.082,-5.497 -2.668,3.76c67.85,-13.563 129.53,-11.314 170.188,-72.414c37.606,-56.537 61.712,-119.887 87.167,-182.563l12.118,-29.795l9.738,9.193c96.971,91.41 171.442,-0 247.392,-71.322l11.217,-10.51l42.491,159.967l94.238,-101.052c-7.964,-14.203 -15.605,-28.584 -22.916,-43.134l-1.19,-2.571c-62.193,-134.736 43.809,-289.239 116.48,-397.523l4.468,-6.718Z" style="fill:#01356e;fill-rule:nonzero;"/><path d="M865.141,109.582c-30.149,6.974 -99.188,7.071 -116.705,36.962l-17.678,29.635c-44.226,75.467 -155.339,355.771 -263.012,359.371c-107.673,3.632 56.633,-344.297 72.961,-379.17c-66.854,15.717 -131.072,6.203 -155.114,74.76c-24.91,71.097 -49.498,142.225 -75.95,212.775c-54.962,145.665 -121.976,285.737 -213.225,410.348c2.057,-2.764 4.082,-5.496 -2.668,3.761c67.85,-13.564 129.529,-11.314 170.188,-72.415c37.605,-56.536 61.711,-119.887 87.167,-182.562l12.118,-29.795l9.738,9.192c96.971,91.41 171.442,0 247.392,-71.321l11.217,-10.51l42.491,159.967l94.238,-101.052c-7.964,-14.203 -15.605,-28.584 -22.917,-43.134l-1.189,-2.571c-62.193,-134.736 43.809,-289.24 116.48,-397.524l4.468,-6.717Z" style="fill:#fff;fill-rule:nonzero;"/></g><defs><radialGradient id="_Radial1" cx="0" cy="0" r="1" gradientUnits="userSpaceOnUse" gradientTransform="matrix(1048.25,1030.43,-991.181,1008.32,-33.4984,8.75038)"><stop offset="0" style="stop-color:#0065b3;stop-opacity:1"/><stop offset="1" style="stop-color:#003875;stop-opacity:1"/></radialGradient></defs></svg>