<?xml version="1.0" encoding="UTF-8"?>
<svg data-bbox="-0.003 -0.003 2500.003 2651.603" xmlns="http://www.w3.org/2000/svg" viewBox="0 0 2500 2652" fill-rule="evenodd" clip-rule="evenodd" stroke-linejoin="round" stroke-miterlimit="2" data-type="ugc">
    <g>
        <path d="M1350.041 589.889c-2.786 7.348-5.088 14.93-5.507 22.834-33.261 140.593-66.595 281.197-99.175 421.951 70.673.132 141.346-.066 212.013.036-33.196-139.397-67.498-278.506-100.754-417.873-1.555-9.136-3.857-18.105-6.577-26.948M1178.22 419.46c114.942-.03 229.926-.353 344.868.161 103.29 344.289 207.744 688.218 311.093 1032.477-87.708-.102-175.415.287-263.123-.197-20.083-72.258-40.616-144.39-60.73-216.611-1.685-3.043-.717-10.266-6.218-8.616-102.057-.197-204.144-.066-306.195-.066-19.211 75.044-38.673 150.028-57.298 225.233-85.86.544-171.726.353-257.586.09 98.53-344.121 196.988-688.278 295.189-1032.471" fill="#ffffff" fill-rule="nonzero"/>
        <path d="M880.706 2076.127c31.898-28.533 76.305-38.452 118.153-37.382 38.571.556 79.773 9.268 108.76 36.377 24.55 22.38 35.498 56.03 36.37 88.55-30.092.096-60.143.06-90.236 0-1.16-19.372-9.554-40.388-28.43-48.615-24.682-10.56-57.657-7.935-75.989 13.31-11.563 13.667-15.223 32.125-15.318 49.584-.257 42.045-.03 84.084-.126 126.123-.072 17.327 1.489 35.63 11.103 50.56 9.268 15.12 26.787 23.67 44.18 24.55 17.554 1.064 37.184-1.878 49.98-15.098 11.072-11.498 13.984-27.982 15.252-43.3 30.445.101 60.92-.132 91.366.125-2.301 33.722-12.502 69.023-37.99 92.64-29.83 28.078-72.521 36.012-112.163 36.27-42.332 1.106-86.996-10.847-117.896-41.065-28.239-26.882-41.841-66.236-42.427-104.682-.162-39.839-.096-79.707-.03-119.546.514-40.03 14.702-81.52 45.441-108.401" fill="#ffffff" fill-rule="nonzero"/>
        <path d="M1346.61 2113.113c-13.632 56.066-26.434 112.36-39.773 168.485 26.75.036 53.537.096 80.287-.03-13.477-56.168-27.27-112.228-40.514-168.455m-65.328-64.58c43.624-.132 87.253-.198 130.913 0 39.061 130.59 78.607 261.047 117.794 391.607-33.292.03-66.59.03-99.851 0-7.904-28.598-16-57.13-23.964-85.705-39.062 0-78.153-.125-117.22.036-7.349 28.538-14.47 57.137-21.824 85.669-32.52 0-65.005.066-97.49-.036 37.053-130.554 74.656-260.982 111.642-391.571" fill="#ffffff" fill-rule="nonzero"/>
        <path d="M1675.61 2118.745c.072 83.66-.066 167.35.072 251.009 22.99-.515 47.121 2.493 68.95-6.476 18.01-6.9 30.638-23.545 35.756-41.746 8.909-31.94 4.376-65.525 5.506-98.236.03-30.183 1.782-65.68-21.704-88.545-24.03-22.027-58.942-14.613-88.58-16.006m-97.908-70.248c32.682-.132 65.364-.03 98.04-.066 36.693.293 74.427-2.56 109.86 9.232 38.738 11.372 72.096 40.52 86.35 78.607 17.1 42.039 10.559 88.126 11.886 132.275 1.423 43.69-8.974 90.363-40.167 122.65-32.903 34.983-82.488 47.904-129.095 48.873-45.633.167-91.235.102-136.874.036.036-130.524.066-261.084 0-391.607" fill="#ffffff" fill-rule="nonzero"/>
        <path d="M304.805 58.885C337.84 39.387 370.198 18.658 403.717.003c.132 621.725-.131 1243.42.132 1865.144-53.932 32.39-107.69 65.1-161.717 97.328-7.839 4.407-15.187 9.62-22.637 14.673C145.647 2019.414 73.713 2065.017.32 2108.09c-.645-621.719 0-1243.45-.323-1865.144 101.25-61.89 203.302-122.524 304.809-184.06" fill="#e85984" fill-rule="nonzero"/>
        <path d="M1350.046 589.893c2.716 8.844 5.019 17.81 6.576 26.946a385 385 0 0 0-7.449-10.496c-1.174 1.59-3.5 4.796-4.637 6.382.419-7.9 2.72-15.483 5.51-22.832" fill="#e85984" fill-rule="nonzero"/>
        <path d="M1178.226 419.461c-98.2 344.187-196.665 688.344-295.188 1032.471 85.86.263 171.726.454 257.585-.09 18.625-75.21 38.087-150.189 57.292-225.232 102.057 0 204.145-.132 306.196.065 5.507-1.656 4.538 5.567 6.218 8.616 20.12 72.222 40.652 144.354 60.736 216.611 87.707.484 175.415.096 263.116.197-103.349-344.258-207.798-688.188-311.086-1032.477-114.943-.52-229.927-.19-344.869-.161M403.723-.003c259.918 1.07 519.895.168 779.812.455h984.382c17.387.095 35.264-1.07 52.077 4.502 54.667 15.611 95.678 68.891 96.03 125.86.294 94.38.132 188.76.096 283.14-.03 480.062-.19 960.118.072 1440.18-.622 3.79 1.644 12.437-5.25 10.948-635.691.125-1271.371.03-1907.087.066-.263-621.731 0-1243.42-.132-1865.15" fill="#e51050" fill-rule="nonzero"/>
        <path d="M1349.168 606.344c2.53 3.432 5.022 6.93 7.45 10.493 33.262 139.367 67.564 278.477 100.76 417.88-70.673-.102-141.346.095-212.013-.037 32.58-140.76 65.907-281.358 99.175-421.957a827 827 0 0 1 4.628-6.38" fill="#e51050" fill-rule="nonzero"/>
        <path d="M1577.702 2048.497c.066 130.524.036 261.083 0 391.607 45.638.066 91.241.132 136.874-.036 46.607-.969 96.191-13.89 129.094-48.873 31.193-32.287 41.59-78.96 40.168-122.65-1.327-44.149 5.214-90.236-11.887-132.275-14.254-38.087-47.611-67.235-86.35-78.607-35.432-11.785-73.166-8.939-109.86-9.232-32.675.036-65.357-.06-98.039.066m-296.414.036c-36.993 130.59-74.595 261.011-111.648 391.571 32.49.102 64.975.036 97.496.036 7.348-28.538 14.475-57.136 21.823-85.669 39.062-.167 78.153-.036 117.22-.036 7.965 28.569 16.06 57.107 23.959 85.705 33.268.03 66.56.03 99.857 0-39.187-130.56-78.733-261.018-117.8-391.607-43.654-.198-87.283-.138-130.907 0m-400.582 27.593c-30.738 26.882-44.92 68.371-45.44 108.401-.067 39.84-.132 79.708.03 119.546.585 38.446 14.187 77.8 42.433 104.683 30.894 30.218 75.558 42.17 117.89 41.064 39.641-.257 82.332-8.191 112.162-36.27 25.489-23.617 35.689-58.917 37.99-92.633-30.445-.258-60.92-.03-91.366-.132-1.261 15.324-4.18 31.803-15.252 43.3-12.796 13.22-32.425 16.162-49.98 15.098-17.393-.879-34.912-9.43-44.173-24.55-9.62-14.93-11.175-33.226-11.11-50.56.096-42.039-.131-84.078.126-126.123.096-17.459 3.76-35.91 15.318-49.584 18.338-21.244 51.307-23.869 75.989-13.31 18.876 8.227 27.27 29.244 28.436 48.616 30.087.06 60.144.096 90.231 0-.873-32.52-11.82-66.17-36.37-88.55-28.987-27.11-70.183-35.821-108.76-36.377-41.848-1.07-86.25 8.849-118.154 37.381M2316.121 413.96c61.28 0 122.524-.101 183.803.03.102 745.87.102 1491.738 0 2237.577-707.65-.06-1415.336 0-2122.987-.036-22.672-.419-46.248 2.236-67.79-6.535-51.397-17.752-88.838-69.155-89.323-123.594-.49-181.412.162-362.848-.322-544.26 7.444-5.046 14.798-10.26 22.636-14.672 54.028-32.222 107.786-64.933 161.717-97.322 635.716-.036 1271.396.066 1907.088-.066 6.894 1.489 4.628-7.157 5.25-10.948-.263-480.062-.102-960.118-.072-1440.174" fill="#770829" fill-rule="nonzero"/>
        <path d="M1346.61 2113.113c13.244 56.228 27.037 112.288 40.514 168.455-26.75.126-53.536.066-80.287.03 13.34-56.125 26.14-112.419 39.773-168.485" fill="#770829" fill-rule="nonzero"/>
        <path d="M1675.61 2118.745c29.638 1.393 64.55-6.02 88.58 16.006 23.486 22.864 21.734 58.362 21.704 88.545-1.13 32.711 3.403 66.296-5.506 98.236-5.118 18.2-17.746 34.846-35.755 41.746-21.83 8.969-45.962 5.961-68.951 6.476-.138-83.66 0-167.35-.072-251.009" fill="#770829" fill-rule="nonzero"/>
    </g>
</svg>
