<?xml version="1.0" encoding="UTF-8"?>
<svg data-bbox="0 0.001 2499.992 3046.713" xmlns="http://www.w3.org/2000/svg" viewBox="0 0 2500 3047" fill-rule="evenodd" clip-rule="evenodd" stroke-linejoin="round" stroke-miterlimit="2" data-type="ugc">
    <g>
        <path d="M19.143 75.558c-2.724 0-4.945 2.121-4.945 4.753 0 1.789 1.031 3.322 2.565 4.14l19.118 10.246A10.1 10.1 0 0 0 40.85 96c1.164 0 2.275-.204 3.306-.562l6.531-1.814V75.533c.027.025-31.519.025-31.545.025z" fill="url(#771bec87-6acf-4b2f-a9bc-58ce4d9a53b9)" fill-rule="nonzero" transform="translate(.001 .003)scale(31.73657)"/>
        <path d="M19.143 75.558c-2.724 0-4.945 2.121-4.945 4.753 0 1.789 1.031 3.322 2.565 4.14l19.118 10.246A10.1 10.1 0 0 0 40.85 96c1.164 0 2.275-.204 3.306-.562l6.531-1.814V75.533c.027.025-31.519.025-31.545.025z" fill="url(#42626e9e-c458-4b41-9af7-35881cbe0f5e)" fill-rule="nonzero" transform="translate(.001 .003)scale(31.73657)"/>
        <path d="M43.736.383A10 10 0 0 0 40.959 0c-1.56 0-3.12.307-4.522 1.022-.29.128-31.096 16.864-31.096 16.864-.423.205-.82.46-1.19.716-.052.025-.079.051-.132.077-.238.178-.45.357-.687.536-.106.077-.212.18-.291.256a5 5 0 0 0-.37.383c-.37.383-1.005 1.2-1.005 1.2A9.15 9.15 0 0 0 0 26.345v44.46c0 2.633 2.221 4.754 4.945 4.754q1.03 0 1.904-.384l8.805-4.778c1.586-.766 2.856-2.07 3.517-3.68.158-.332.29-.74.37-1.15.026-.102.053-.23.053-.332 0-.05.026-.127.026-.178.027-.18.053-.384.053-.562 0-.154.027-.282.027-.435V33.013c0-2.07.925-3.935 2.38-5.238 0 0-.688.613 0 0s1.586-1.15 2.644-1.507c1.057-.384 26.072-9.122 26.072-9.122V2.402z" fill="url(#8307ab21-f0be-4d30-aa25-e48e41cc3982)" fill-rule="nonzero" transform="translate(.001 .003)scale(31.73657)"/>
        <path d="M43.736.383A10 10 0 0 0 40.959 0c-1.56 0-3.12.307-4.522 1.022-.29.128-31.096 16.864-31.096 16.864-.423.205-.82.46-1.19.716-.052.025-.079.051-.132.077-.238.178-.45.357-.687.536-.106.077-.212.18-.291.256a5 5 0 0 0-.37.383c-.37.383-1.005 1.2-1.005 1.2A9.15 9.15 0 0 0 0 26.345v44.46c0 2.633 2.221 4.754 4.945 4.754q1.03 0 1.904-.384l8.805-4.778c1.586-.766 2.856-2.07 3.517-3.68.158-.332.29-.74.37-1.15.026-.102.053-.23.053-.332 0-.05.026-.127.026-.178.027-.18.053-.384.053-.562 0-.154.027-.282.027-.435V33.013c0-2.07.925-3.935 2.38-5.238 0 0-.688.613 0 0s1.586-1.15 2.644-1.507c1.057-.384 26.072-9.122 26.072-9.122V2.402z" fill="url(#68c78238-ff03-4afb-b0a8-86cb1de76876)" fill-rule="nonzero" transform="translate(.001 .003)scale(31.73657)"/>
        <path d="M71.898 8.35 44.16.507c4.019 1.508 6.53 4.906 6.53 9.046 0 0-.025 75.2 0 77.014.027 4.088-2.67 7.589-6.53 8.892.846-.23 27.738-7.717 27.738-7.717 3.992-1.226 6.875-4.804 6.875-9.07V17.42c.026-4.24-2.883-7.844-6.875-9.07" fill="url(#ea855539-1fec-4c68-9161-28892afaf955)" fill-rule="nonzero" transform="translate(.001 .003)scale(31.73657)"/>
        <defs>
            <linearGradient gradientTransform="rotate(5.172 -914.074 229.153)scale(69.01)" gradientUnits="userSpaceOnUse" y2="0" x2="1" y1="0" x1="0" id="771bec87-6acf-4b2f-a9bc-58ce4d9a53b9">
                <stop offset="0" stop-color="#f32b44"/>
                <stop offset=".6" stop-color="#a4070a"/>
                <stop offset="1" stop-color="#a4070a"/>
            </linearGradient>
            <linearGradient gradientTransform="rotate(-174.823 33.73 42.214)scale(30.637)" gradientUnits="userSpaceOnUse" y2="0" x2="1" y1="0" x1="0" id="42626e9e-c458-4b41-9af7-35881cbe0f5e">
                <stop offset="0" stop-color="#000000" stop-opacity=".4"/>
                <stop offset="1" stop-color="#000000" stop-opacity="0"/>
            </linearGradient>
            <linearGradient gradientTransform="rotate(124.084 23.261 10.216)scale(90.361)" gradientUnits="userSpaceOnUse" y2="0" x2="1" y1="0" x1="0" id="8307ab21-f0be-4d30-aa25-e48e41cc3982">
                <stop offset="0" stop-color="#800600"/>
                <stop offset=".6" stop-color="#c72127"/>
                <stop offset=".73" stop-color="#c13959"/>
                <stop offset=".85" stop-color="#bc4b81"/>
                <stop offset=".94" stop-color="#b95799"/>
                <stop offset="1" stop-color="#b85ba2"/>
            </linearGradient>
            <linearGradient gradientTransform="rotate(124.084 24.188 9.756)scale(19.136)" gradientUnits="userSpaceOnUse" y2="0" x2="1" y1="0" x1="0" id="68c78238-ff03-4afb-b0a8-86cb1de76876">
                <stop offset="0" stop-color="#000000" stop-opacity=".4"/>
                <stop offset="1" stop-color="#000000" stop-opacity="0"/>
            </linearGradient>
            <linearGradient gradientTransform="rotate(90 33.187 28.3)scale(93.668)" gradientUnits="userSpaceOnUse" y2="0" x2="1" y1="0" x1="0" id="ea855539-1fec-4c68-9161-28892afaf955">
                <stop offset="0" stop-color="#ffb900"/>
                <stop offset=".17" stop-color="#ef8400"/>
                <stop offset=".31" stop-color="#e25c01"/>
                <stop offset=".43" stop-color="#db4401"/>
                <stop offset=".5" stop-color="#d83b01"/>
                <stop offset="1" stop-color="#d83b01"/>
            </linearGradient>
        </defs>
    </g>
</svg>
